<?xml version="1.0" encoding="UTF-8"?>
<svg id="Capa_1" data-name="Capa 1" xmlns="http://www.w3.org/2000/svg" viewBox="0 0 15.92 15.89">
  <defs>
    <style>
      .cls-1 {
        fill: #286bce;
      }
    </style>
  </defs>
  <path class="cls-1" d="m0,13.07c.02-.81.37-1.8.86-2.75.28-.54.58-1.07.91-1.57.17-.26.15-.42-.01-.67C.99,6.92.34,5.69.08,4.29-.34,1.99.94.68,3.26,1.06c1.42.23,2.67.88,3.85,1.66.29.19.47.17.74-.01,1.23-.81,2.53-1.47,4.01-1.71.12-.02.24-.12.33-.22.85-.97,2.26-1.04,3.15-.14.85.86.75,2.23-.22,3.08-.1.09-.2.21-.22.33-.24,1.48-.9,2.78-1.72,4.01-.19.29-.17.47.01.74.79,1.2,1.45,2.45,1.67,3.89.05.29.06.59.05.88-.05,1.36-.94,2.25-2.31,2.31-.89.04-1.74-.18-2.54-.55-.78-.36-1.53-.78-2.27-1.22-.26-.15-.43-.15-.67.01-1.32.87-2.7,1.58-4.31,1.73C1.09,16.02,0,15.04,0,13.07Zm11.39-4.65c-.05-.07-.08-.13-.12-.19-1.06-1.34-2.26-2.55-3.61-3.6-.09-.07-.32-.05-.42.02-1.31,1.03-2.48,2.21-3.53,3.51-.17.21-.14.35.01.54,1.04,1.29,2.2,2.45,3.49,3.49.19.15.32.15.51,0,1.3-1.05,2.48-2.22,3.51-3.52.06-.08.11-.16.16-.25Zm.93,1.32c-1.2,1.19-2.39,2.37-3.56,3.53.72.55,2.36,1.25,3.36,1.38,1.1.14,1.67-.41,1.55-1.52-.15-1.34-.79-2.48-1.35-3.39ZM6.17,3.56c-.94-.57-2.11-1.26-3.49-1.37-1.02-.09-1.53.47-1.42,1.5.14,1.35.79,2.5,1.36,3.44,1.17-1.18,2.36-2.37,3.55-3.56Zm-3.54,6.15c-.14.26-.44.67-.62,1.14-.3.77-.61,1.55-.75,2.35-.17.94.36,1.46,1.3,1.43,1.45-.05,2.64-.75,3.62-1.35-1.18-1.19-2.36-2.38-3.54-3.57Zm11-5.55c-1.09-.22-1.68-.86-1.9-1.89-1.17.26-2.18.79-2.94,1.29,1.18,1.19,2.36,2.38,3.54,3.57.5-.78,1.04-1.78,1.3-2.97Zm-.65-2.08c0,.46.41.84.92.84.38,0,.76-.41.78-.85.02-.49-.31-.83-.8-.84-.52,0-.9.35-.9.85Z"/>
  <path class="cls-1" d="m7.46,10.51c-1.14,0-2.07-.93-2.08-2.07,0-1.15.95-2.1,2.1-2.1,1.14,0,2.07.94,2.08,2.08,0,1.16-.94,2.1-2.1,2.09Zm0-2.93c-.5,0-.84.36-.83.87.01.48.35.83.83.83.49,0,.85-.36.85-.85,0-.5-.35-.85-.85-.85Z"/>
</svg>