<?xml version="1.0" encoding="UTF-8"?>
<svg id="Capa_1" data-name="Capa 1" xmlns="http://www.w3.org/2000/svg" viewBox="0 0 80.56 70.24">
  <defs>
    <style>
      .cls-1 {
        fill: #17774f;
      }
    </style>
  </defs>
  <path class="cls-1" d="m66.16,21.88l13.51-15.73c.94-1.1,1.16-2.66.56-3.98-.61-1.31-1.94-2.17-3.39-2.17H16.25c-2.05,0-3.72,1.67-3.72,3.73v60.51H3c-1.66,0-3,1.34-3,3s1.34,3,3,3h26c1.66,0,3-1.34,3-3s-1.34-3-3-3h-9.03v-20.19l56.82.79c1.47,0,2.78-.82,3.4-2.09.63-1.29.45-2.85-.45-3.96l-13.58-16.91Zm-46.19,14.73V7.45h48.77l-10.24,11.92c-1.17,1.36-1.2,3.36-.08,4.76l10.57,13.16-49.02-.68Z"/>
</svg>