<?xml version="1.0" encoding="UTF-8"?>
<svg id="Capa_1" data-name="Capa 1" xmlns="http://www.w3.org/2000/svg" viewBox="0 0 93.79 94.01">
  <defs>
    <style>
      .cls-1 {
        fill: #17774f;
      }
    </style>
  </defs>
  <path class="cls-1" d="m68.67,62.83c-.59,6.88-3.16,13.14-7.64,18.61-3.25,3.97-7.37,7.14-12.26,9.44-4.44,2.09-9.12,3.13-14.17,3.13-2.02,0-4.1-.17-6.25-.5-5.3-.81-10.37-3.09-15.06-6.78-4.6-3.6-7.95-7.88-10.26-13.07C.91,68.89-.08,64.22,0,59.38H0c.34-11.87,5.21-21.24,14.47-27.87,8.66-6.21,18.43-7.94,29.05-5.16,2.06.54,4.06,1.41,5.99,2.24l.11.06c1.2.52,1.97,1.35,2.2,2.34.2.89-.07,1.82-.76,2.62-.97,1.12-2.35,1.3-3.88.52-5.79-2.97-12.05-3.77-18.61-2.41-7.33,1.53-13.22,5.46-17.51,11.69-3.2,4.66-4.89,9.82-5.02,15.33-.14,6.57,1.75,12.55,5.63,17.77,2.41,3.25,5.32,5.87,8.64,7.79,3.51,2.03,7.31,3.22,11.27,3.55,8.28.69,15.49-1.6,21.39-6.83,8.12-7.2,11.21-16.44,9.2-27.47-.33-1.79-1.09-3.56-1.83-5.28-.19-.44-.38-.89-.56-1.33-.75-1.81-.37-3.6.91-4.35.79-.46,1.67-.59,2.47-.35.85.25,1.56.88,2.01,1.77,2.89,5.75,4.06,12.08,3.49,18.82Z"/>
  <path class="cls-1" d="m93.67,21.37c-.33-1.12-1.23-1.94-2.4-2.17-2.1-.43-4.2-1.05-6.24-1.66-.58-.17-1.16-.34-1.75-.51-.38-.11-.75-.3-1.18-.52-.05-.03-.1-.05-.15-.08l.11-.13c.31-.38.57-.7.81-1.02.11-.15.22-.29.33-.43.37-.46.75-.94.94-1.52.41-1.24-.03-2.43-1.19-3.2-1.08-.72-2.28-.72-3.28,0-.61.43-1.16.91-1.8,1.47-.13.12-.27.24-.41.36-.05-.14-.11-.28-.16-.42-.28-.7-.53-1.31-.71-1.94-.28-.97-.53-1.95-.79-2.93-.35-1.35-.71-2.75-1.14-4.11-.42-1.34-1.22-2.23-2.25-2.49-1.02-.26-2.14.13-3.14,1.1-2.32,2.24-4.63,4.55-6.86,6.78-1.17,1.16-2.33,2.33-3.5,3.48-1.21,1.2-1.57,2.6-1.1,4.29.6,2.15,1.16,4.31,1.72,6.48.43,1.68.87,3.36,1.32,5.04.24.86.1,1.43-.5,2.02-2.28,2.25-4.54,4.52-6.8,6.79l-7.69,7.7c-2.73,2.72-5.45,5.44-8.16,8.17-1.79,1.8-3.65,3.66-5.39,5.61-.55.62-.76,1.59-.77,2.3-.01,1.14.7,2.09,1.86,2.47.36.11.71.17,1.05.17.91,0,1.78-.41,2.6-1.23,5.45-5.51,10.92-11.01,16.38-16.5,1.42-1.42,2.84-2.84,4.25-4.26,2.19-2.18,4.37-4.37,6.55-6.57.88-.9,1.64-1.1,2.79-.76,2.79.82,5.65,1.55,8.41,2.26.96.25,1.93.5,2.89.75,1.59.42,2.97.03,4.07-1.14.8-.84,1.62-1.66,2.45-2.47l1.14-1.14c.7-.69,1.39-1.39,2.08-2.09,1.54-1.55,3.07-3.1,4.63-4.61.96-.93,1.32-2.18.98-3.35Zm-15.97.45c1.57.34,3.15.77,4.68,1.18.52.15,1.05.29,1.57.43.71.19.79.4.8.43.03.1-.08.36-.46.75l-.4.4c-1.34,1.34-2.72,2.73-4.12,4.06-.27.25-.64.46-.96.64-.09.05-.18.09-.26.14-.19-.04-.36-.07-.52-.1-.41-.07-.74-.13-1.07-.22l-1.01-.27c-1.56-.43-3.18-.87-4.75-1.37-.4-.12-.5-.23-.52-.23.01-.03.05-.17.37-.49l.42-.42c1.54-1.56,3.13-3.16,4.79-4.64.28-.24.98-.39,1.44-.29Zm-11.06,1.11c-.18.18-.36.27-.47.25-.09-.03-.22-.17-.29-.43-.48-1.72-.9-3.44-1.34-5.27-.16-.66-.32-1.33-.49-2.01.04-.1.08-.2.13-.3.14-.33.29-.67.51-.9,1.46-1.56,2.96-3.07,4.45-4.48.28-.26.7-.46.99-.49.07.11.19.36.36.96l.04.14c.55,1.87,1.11,3.81,1.55,5.74.11.49.05,1.16-.14,1.36-1.34,1.48-2.78,2.92-4.18,4.31l-1.12,1.12Z"/>
  <path class="cls-1" d="m47.89,62.87c-.55,2.93-2.11,5.46-4.64,7.52-2.66,2.16-5.75,3.25-8.85,3.25-2.49,0-4.99-.7-7.29-2.11-4.27-2.62-6.77-7.12-6.69-12.04.07-6.24,4.09-11.6,10-13.35,1.54-.45,2.85-.12,3.61.92.77,1.06.85,2.25.21,3.28-.34.53-.9.9-1.44,1.24-.47.29-.96.54-1.46.8-.89.45-1.73.89-2.38,1.5-1.83,1.73-2.75,4.11-2.51,6.53.24,2.43,1.6,4.58,3.73,5.92,1.91,1.2,4.13,1.54,6.25.96,2.18-.6,4.04-2.12,5.1-4.18.2-.38.37-.78.53-1.18.11-.27.23-.54.35-.81.66-1.44,2.04-2.09,3.53-1.65,1.47.43,2.26,1.79,1.95,3.4Z"/>
</svg>