<?xml version="1.0" encoding="UTF-8"?>
<svg id="Capa_1" data-name="Capa 1" xmlns="http://www.w3.org/2000/svg" viewBox="0 0 96.8 58">
  <defs>
    <style>
      .cls-1 {
        fill: #17774f;
      }
    </style>
  </defs>
  <path class="cls-1" d="m95.31,25.45c-7.99-8.82-16.26-15.32-25.26-19.87C63.07,2.05,56.37.23,49.57.02c-5.8-.17-11.73.91-17.6,3.23C20.94,7.61,11.18,14.74,1.25,25.7c-1.72,1.89-1.66,4.81.14,6.8,7.62,8.41,15.49,14.71,24.06,19.28,7.81,4.16,15.3,6.19,22.9,6.22,6.03,0,11.88-1.25,17.9-3.81,10.4-4.44,19.95-11.57,29.21-21.8,1.84-2.03,1.78-4.82-.15-6.94Zm-6.07,4.75c-1.2,1.24-2.45,2.52-3.71,3.72-6.79,6.47-13.55,11.16-20.66,14.33-6.59,2.93-12.86,4.12-19.18,3.63-5.3-.4-10.54-1.94-16-4.68-8.1-4.05-15.72-10.01-23.27-18.2,6.2-6.73,12.47-11.95,19.14-15.94,5.05-3.02,9.94-5.04,14.94-6.16,7.48-1.67,14.87-.97,22.62,2.13,6.99,2.81,13.61,7.09,20.25,13.09,1.67,1.5,3.28,3.14,4.84,4.72.69.7,1.38,1.4,2.07,2.09.03.03.07.07.1.11-.38.38-.76.77-1.14,1.16Z"/>
  <path class="cls-1" d="m61.95,15.6c-3.6-3.61-8.4-5.59-13.52-5.6h0c-5.27,0-10.05,2.15-13.52,5.61-3.47,3.46-5.62,8.24-5.63,13.51-.01,5.14,1.97,9.98,5.58,13.61,3.61,3.65,8.42,5.65,13.54,5.66h.04c10.53,0,19.11-8.53,19.14-19.04,0-5.22-1.98-10.1-5.62-13.75Zm-13.53,26.98h-.02c-3.57,0-6.92-1.39-9.44-3.91s-3.93-5.9-3.93-9.48,1.38-6.95,3.91-9.47c2.52-2.53,5.88-3.92,9.47-3.92h.01c3.57,0,6.93,1.39,9.46,3.91,2.53,2.53,3.93,5.89,3.93,9.47,0,7.38-6.01,13.39-13.39,13.4Z"/>
</svg>