<?xml version="1.0" ?><svg data-name="Layer 1" id="Layer_1" viewBox="0 0 64 64" xmlns="http://www.w3.org/2000/svg"><path d="M54,30h-3v-2c0-.43-.28-.81-.68-.95l-5.32-1.77v-.28c0-.55-.45-1-1-1-5.4,0-10.04,3.31-12,8-1.96-4.69-6.6-8-12-8-.55,0-1,.45-1,1v.28l-5.32,1.77c-.41,.14-.68,.52-.68,.95v2h-3c-.55,0-1,.45-1,1v24c0,.55,.45,1,1,1H26.59l1.71,1.71c.19,.19,.44,.29,.71,.29h6c.27,0,.52-.11,.71-.29l1.71-1.71h16.59c.55,0,1-.45,1-1V31c0-.55-.45-1-1-1Zm-39-1.28l4-1.33v17.61c0,.55,.45,1,1,1,4.51,0,8.39,2.73,10.09,6.62-5.18-5.42-12.26-5.17-15.09-4.8V28.72Zm14.41,27.28l-1.71-1.71c-.19-.19-.44-.29-.71-.29H11v-22h2v17c0,.31,.14,.6,.38,.79,.24,.19,.56,.26,.86,.18,.11-.03,10.31-2.42,15.99,6.03h-.82Zm1.59-5.91c-2.14-3.39-5.79-5.73-10-6.05V26.04c5.6,.51,10,5.23,10,10.96v13.09Zm14-5.09V27.39l4,1.33v19.1c-2.83-.37-9.91-.62-15.08,4.8,1.7-3.89,5.58-6.62,10.08-6.62,.55,0,1-.45,1-1Zm-12-8c0-5.73,4.4-10.45,10-10.96v17.99c-4.21,.32-7.86,2.66-10,6.05v-13.09Zm20,17h-16c-.27,0-.52,.11-.71,.29l-1.71,1.71h-.82c5.63-8.43,15.55-6.14,15.99-6.03,.3,.07,.61,0,.86-.19s.38-.48,.38-.79v-17h2v22Z"/><path d="M59,6h-14c-.55,0-1,.45-1,1v10c0,.55,.45,1,1,1h2v4c0,.42,.27,.8,.67,.94,.11,.04,.22,.06,.33,.06,.3,0,.59-.13,.78-.38l3.7-4.62h6.52c.55,0,1-.45,1-1V7c0-.55-.45-1-1-1Zm-1,10h-6c-.3,0-.59,.14-.78,.38l-2.22,2.77v-2.15c0-.55-.45-1-1-1h-2V8h12v8Z"/><path d="M15.22,22.62c.19,.24,.48,.38,.78,.38,.11,0,.22-.02,.33-.06,.4-.14,.67-.52,.67-.94v-4h2c.55,0,1-.45,1-1V7c0-.55-.45-1-1-1H5c-.55,0-1,.45-1,1v10c0,.55,.45,1,1,1h6.52l3.7,4.62ZM6,8h12v8h-2c-.55,0-1,.45-1,1v2.15l-2.22-2.77c-.19-.24-.48-.38-.78-.38H6V8Z"/><path d="M25,6c-.55,0-1,.45-1,1v10c0,.55,.45,1,1,1h4.32l1.75,4.37c.15,.38,.52,.63,.93,.63s.78-.25,.93-.63l1.75-4.37h4.32c.55,0,1-.45,1-1V7c0-.55-.45-1-1-1h-14Zm13,10h-4c-.41,0-.78,.25-.93,.63l-1.07,2.68-1.07-2.68c-.15-.38-.52-.63-.93-.63h-4V8h12v8Z"/></svg>