<?xml version="1.0" ?><svg id="Layer_1" style="enable-background:new 0 0 256 256;" version="1.1" viewBox="0 0 256 256" xml:space="preserve" xmlns="http://www.w3.org/2000/svg" xmlns:xlink="http://www.w3.org/1999/xlink"><g><path d="M244.6,91.9c-6.4-15.1-15.5-28.6-27.1-40.2c-11.6-11.6-25.2-20.7-40.2-27.1c-15.6-6.6-32.2-10-49.3-10s-33.7,3.3-49.3,10   C63.6,30.9,50.1,40,38.5,51.6C26.9,63.3,17.7,76.8,11.4,91.9c-6.6,15.6-10,32.2-10,49.3v74c0,0.3,0,0.5,0.1,0.7   c0.3,6.6,3.8,12.6,9.5,16.1l13.8,8.6c0.8,0.5,1.7,0.8,2.7,0.8h20.4c6.4,0,11.6-5.2,11.6-11.6V163c0-6.4-5.2-11.6-11.6-11.6H31.9   c-2.8,0-5.1,2.3-5.1,5.1s2.3,5.1,5.1,5.1h15.8c0.8,0,1.5,0.6,1.5,1.5v66.9c0,0.8-0.7,1.5-1.5,1.5H28.9l-12.6-7.9   c-2.9-1.8-4.6-4.9-4.7-8.3c0-0.2,0-0.3,0-0.5v-73.5c0-15.7,3.1-31,9.2-45.3C26.6,82,35,69.5,45.7,58.8c10.7-10.7,23.1-19.1,37-24.9   c14.4-6.1,29.6-9.2,45.3-9.2s31,3.1,45.3,9.2c13.9,5.9,26.3,14.3,37,24.9c10.7,10.7,19.1,23.1,24.9,37c6.1,14.4,9.2,29.6,9.2,45.3   v73.4c0,0.2,0,0.3,0,0.5c-0.1,3.4-1.8,6.5-4.7,8.3l-12.6,7.9h-18.9c-0.8,0-1.5-0.6-1.5-1.5V163c0-0.8,0.7-1.5,1.5-1.5h15.8   c2.8,0,5.1-2.3,5.1-5.1s-2.3-5.1-5.1-5.1h-15.8c-6.4,0-11.6,5.2-11.6,11.6v66.9c0,6.4,5.2,11.6,11.6,11.6h20.4c1,0,1.9-0.3,2.7-0.8   l13.8-8.6c5.6-3.5,9.1-9.5,9.5-16.1c0-0.2,0.1-0.5,0.1-0.7v-74C254.6,124.1,251.3,107.5,244.6,91.9z"/><path d="M174.4,181.9l-6-0.2c-0.6,0-1.3,0-1.9,0c-0.7-2.3-1.7-4.6-2.8-6.7c0.8-0.8,1.7-1.7,2.5-2.5l3.1-3.1l-2.6-3.6   c-3-4.2-6.8-7.9-11-11l-3.5-2.5l-5.1,5.2c-0.2,0.2-0.3,0.3-0.5,0.5c-2.2-1.1-4.4-2.1-6.7-2.8l0-1.2c0-0.7,0-1.4,0-2.4v-4.3   l-4.3-0.7c-5-0.8-10.2-0.8-15.2,0l-4.5,0.7l0.2,4.5c0,0.7,0,1.4,0,2.1l0,1.2c-2.3,0.7-4.6,1.6-6.7,2.8c-0.2-0.2-0.3-0.3-0.5-0.5   l-5.1-5.2l-3.5,2.5c-4.3,3-8,6.7-11,11l-2.6,3.6l3.1,3.1c0.8,0.8,1.7,1.6,2.5,2.5c-1.1,2.2-2.1,4.4-2.8,6.7c-0.6,0-1.3,0-1.9,0   l-6,0.2l-0.7,4.1c-0.4,2.6-0.6,5.2-0.6,7.8c0,2.6,0.2,5.2,0.6,7.7l0.6,3.9l4.5,0.4l0.3,0c1.1,0,2.2,0,3.3,0   c0.7,2.4,1.7,4.7,2.9,6.8c-0.2,0.2-0.5,0.5-0.7,0.7l-4.8,5l2.5,3.4c3,4.2,6.7,7.9,10.9,10.9l3.7,2.4l3-3.2c0.8-0.8,1.6-1.6,2.3-2.4   c2.2,1.1,4.4,2.1,6.8,2.8c0,0.2,0,0.3,0,0.5c0,1,0,1.9,0,2.9l0.2,4.6l4.1,0.7c2.5,0.4,5,0.6,7.6,0.6s5.1-0.2,7.6-0.6l4.1-0.7   l0.2-4.4l0-0.1c0-0.9,0-1.9,0-2.8c0-0.2,0-0.4,0-0.5c2.3-0.7,4.6-1.7,6.8-2.8c0.8,0.8,1.6,1.6,2.5,2.6l3,3l3.5-2.5   c4.2-3,7.9-6.7,10.9-10.9l2.5-3.4l-4.8-5c-0.2-0.2-0.5-0.5-0.7-0.7c1.2-2.2,2.1-4.5,2.9-6.8c1.1,0,2.2,0,3.2,0l4.8-0.4l0.6-3.9   c0.4-2.5,0.6-5.2,0.6-7.7c0-2.6-0.2-5.2-0.6-7.8L174.4,181.9z M165.5,195.6l-2.7,0l-4.5,0.3l-0.8,3.8c-0.8,3.9-2.3,7.6-4.5,10.9   l-1.9,2.9l2,2.9c0.3,0.4,0.6,0.8,1,1.2c0.6,0.5,1.1,1.1,1.7,1.7c-0.8,0.9-1.7,1.7-2.5,2.5c-0.6-0.6-1.1-1.1-1.7-1.7   c-0.4-0.4-0.8-0.8-1.3-1.1l-2.8-1.8l-2.8,1.8c-3.3,2.2-6.9,3.7-10.8,4.4l-3.2,0.6l-0.8,3.2c-0.1,0.6-0.2,1.2-0.2,1.9   c0,0.7,0,1.5,0,2.2c-1.1,0.1-2.3,0.1-3.4,0c0-0.7,0-1.5,0-2.2c0-0.7,0-1.3-0.2-1.9l-0.8-3.2l-3.2-0.6c-3.9-0.8-7.5-2.3-10.8-4.4   l-2.8-1.8l-2.8,1.8c-0.5,0.3-0.9,0.6-1.2,1c-0.6,0.6-1.1,1.2-1.7,1.7c-0.9-0.8-1.7-1.7-2.5-2.5c0.6-0.6,1.1-1.1,1.7-1.6   c0.4-0.4,0.7-0.8,1-1.2l2-2.9l-1.9-2.9c-2.2-3.3-3.8-7-4.5-10.9l-0.8-3.8l-4.3-0.3l-2.9,0c0-0.6,0-1.2,0-1.8c0-0.6,0-1.3,0-1.9   c0.7,0,1.4,0,2.1,0c0.8,0,1.5-0.1,2.2-0.2l3-0.8l0.6-3.1c0.8-3.8,2.3-7.4,4.4-10.7l1.8-2.8l-1.8-2.8c-0.4-0.7-0.9-1.2-1.4-1.7   l-0.6-0.6c-0.2-0.2-0.5-0.5-0.7-0.7c0.8-0.9,1.7-1.8,2.6-2.6c0.5,0.5,1,1,1.5,1.6c0.7,0.7,1.4,1.2,2.2,1.6l2.5,1.1l2.3-1.5   c3.3-2.2,6.9-3.6,10.7-4.4l3.1-0.6l0.8-3c0.2-0.6,0.3-1.3,0.2-2c0-0.8,0-1.5,0-2.3c1.1-0.1,2.3-0.1,3.4,0c0,0.8,0,1.5,0,2.3   c0,0.7,0.1,1.4,0.2,2l0.8,3l3.1,0.6c3.8,0.8,7.4,2.2,10.7,4.4l2.3,1.5l2.5-1.1c0.8-0.3,1.5-0.9,2.2-1.6c0.5-0.5,1-1,1.5-1.5   c0.9,0.8,1.8,1.7,2.6,2.6c-0.2,0.2-0.5,0.5-0.7,0.7l-0.6,0.6c-0.5,0.5-1,1-1.4,1.7l-1.8,2.8l1.8,2.8c2.2,3.3,3.7,6.9,4.4,10.7   l0.6,3.1l3,0.8c0.7,0.2,1.4,0.2,2.2,0.2c0.7,0,1.4,0,2.1,0c0,0.6,0,1.3,0,1.9C165.6,194.3,165.5,194.9,165.5,195.6z"/></g></svg>