<?xml version="1.0" encoding="UTF-8"?>
<svg id="Layer_2" data-name="Layer 2" xmlns="http://www.w3.org/2000/svg" viewBox="0 0 256.76304 60.60699">
  <defs>
    <style>
      .cls-1 {
        fill: #0050a5;
      }

      .cls-1, .cls-2, .cls-3 {
        stroke-width: 0px;
      }

      .cls-2 {
        fill: #10519f;
      }

      .cls-3 {
        fill: #8bbe42;
      }
    </style>
  </defs>
  <g id="Capa_1" data-name="Capa 1">
    <g>
      <g>
        <path class="cls-1" d="M95.19156,45.49295h-4.07011l12.86851-30.31701h4.34612l12.93285,30.31701h-4.34612l-3.92213-9.54024h-10.02793l1.0809-3.18029h7.63257l-5.66057-13.73805-10.8341,26.45858Z"/>
        <path class="cls-1" d="M130.66119,34.36257l-8.33194-11.13038h4.5578l6.04275,8.07748,6.04211-8.07748h4.5578l-8.31071,11.13038,8.31071,11.13038h-4.5578l-6.04211-8.07748-6.04275,8.07748h-4.5578l8.33194-11.13038Z"/>
        <path class="cls-1" d="M151.58626,15.17594v3.71013h-3.92213v-3.71013h3.92213ZM151.58626,23.23219v22.26076h-3.92213v-22.26076h3.92213Z"/>
        <path class="cls-1" d="M158.15788,44.43296v-3.39197c2.61475.84799,5.25781,1.27199,7.92918,1.27199,3.54767,0,5.32151-1.05999,5.32151-3.18029,0-1.97843-1.23725-2.96797-3.71045-2.96797h-3.17965c-4.80615,0-7.20858-2.19075-7.20858-6.57226,0-4.24028,3.08829-6.36026,9.26486-6.36026,2.65721,0,5.2932.35354,7.90795,1.05999v3.39229c-2.61475-.84799-5.25073-1.27199-7.90795-1.27199-3.70337,0-5.55441,1.05999-5.55441,3.17997,0,1.97908,1.16583,2.96797,3.49813,2.96797h3.17965c5.0886,0,7.63257,2.19108,7.63257,6.57226,0,4.24028-3.08121,6.36026-9.24363,6.36026-2.67137,0-5.31443-.3529-7.92918-1.05999Z"/>
        <path class="cls-1" d="M180.63097,44.43296v-3.60397c3.17965,1.13076,6.61473,1.69598,10.3033,1.69598,5.21535,0,7.82302-1.90798,7.82302-5.72427,0-3.25074-1.92246-4.87628-5.76673-4.87628h-3.90089c-6.34579,0-9.519-2.75597-9.519-8.26825,0-5.79472,4.06367-8.69224,12.19037-8.69224,3.53352,0,6.81932.424,9.85871,1.27199v3.60429c-3.03939-1.13076-6.3252-1.69631-9.85871-1.69631-5.51195,0-8.26825,1.83753-8.26825,5.51227,0,3.25107,1.86584,4.87628,5.59688,4.87628h3.90089c6.45902,0,9.68886,2.75597,9.68886,8.26825,0,5.93627-3.91505,8.90424-11.74514,8.90424-3.68857,0-7.12365-.424-10.3033-1.27199Z"/>
        <path class="cls-1" d="M206.92001,34.36257c0-7.42025,3.53352-11.13038,10.60055-11.13038s10.60055,3.71013,10.60055,11.13038c0,7.40642-3.53352,11.10915-10.60055,11.10915-7.03872,0-10.57224-3.70273-10.60055-11.10915ZM217.52056,42.31298c4.45228,0,6.67842-2.67845,6.67842-8.03502,0-5.24365-2.22614-7.86548-6.67842-7.86548s-6.67842,2.62183-6.67842,7.86548c0,5.35657,2.22614,8.03502,6.67842,8.03502Z"/>
        <path class="cls-1" d="M233.42138,45.49295v-23.34199c0-5.38488,3.0529-8.07748,9.1587-8.07748,1.68183,0,3.26458.28277,4.74889.84799v3.18029c-1.39938-.56522-2.98921-.84831-4.77012-.84831-3.4769,0-5.21535,1.57631-5.21535,4.72798v1.25076h6.8901v3.18029h-6.8901v19.08047h-3.92213Z"/>
        <path class="cls-1" d="M247.43513,19.62822h2.45905l.84799,3.60397h6.02087v3.18029h-5.40579v12.7839c0,2.07784.89753,3.1166,2.6926,3.1166h2.71319v3.17997h-3.73104c-3.73168,0-5.59688-1.99967-5.59688-5.99964v-19.86509Z"/>
      </g>
      <g>
        <path class="cls-3" d="M20.58281,59.9086c-1.09215-.56615-2.06431-1.43106-2.80629-2.50019-.48975-.70427-.87225-1.50012-1.10978-2.30135L2.08531,5.49993c-.35997-1.21655-.3634-2.35473-.01518-3.29212.34821-.94718,1.03289-1.62794,1.97616-1.97273.18562-.06661.38446-.11264.58917-.15084l-.19541-.02889c-.26006-.03624-.52404-.05535-.77479-.05535-.51424,0-.99861.08032-1.43253.23508-.94327.34479-1.62647,1.02554-1.97664,1.97273-.34626.93739-.34234,2.07557.01763,3.29212l14.58143,49.60712c.23508.80124.62003,1.59709,1.10978,2.30135.74002,1.06913,1.71414,1.93404,2.80629,2.50019.88009.45743,1.81748.69839,2.70883.69839.25075,0,.50347-.0191.74247-.0573l.1817-.0289c-.61219-.1053-1.2283-.3061-1.82139-.61219Z"/>
        <path class="cls-2" d="M66.44185,44.15225l-2.44877.23949,1.32576,4.51259-43.22858,5.64196L7.83795,6.0607l46.54568,5.64196,1.32772,4.51259,2.59031.23949-1.3047-4.43472c-.14937-.50885-.36732-1.01379-.62933-1.47905-.39621-.69986-.88988-1.31205-1.42518-1.77536-.53775-.46477-1.12496-.77822-1.67202-.85707L6.38388,1.11517c-.62346-.08962-1.19157-.04016-1.67006.13419-.72483.26202-1.2474.79585-1.51922,1.52852-.27328.73463-.28308,1.68328.02498,2.72205l14.57996,49.60712c.20276.69251.52404,1.34682.92367,1.92033.59897.86098,1.36984,1.54419,2.21173,1.98007.83405.43441,1.75234.62199,2.60941.48437l42.88967-6.79533c.33499-.05387.6259-.20864.86099-.44567.35017-.35605.57399-.88401.65627-1.51922.08424-.62933.02106-1.37915-.20472-2.14463l-1.3047-4.43472Z"/>
        <path class="cls-3" d="M69.98473,30.3035c-.28699-.97559-1.02162-1.77339-1.64508-1.78123l-21.96055-.28112c-.84531-.0093-1.26062.91241-.92417,2.06235.33891,1.14994,1.29736,2.07166,2.13337,2.06235l21.79794-.28112c.61954-.00784.88352-.80564.59848-1.78123ZM48.91015,23.04731c.3252,1.11125,1.2381,2.0315,2.03003,2.05844l20.70922.68663c.59113.0191.84189-.73267.56224-1.67985-.27916-.94669-.98294-1.74254-1.57799-1.77731l-20.86252-1.21067c-.79977-.048-1.18814.81299-.86099,1.92277ZM66.23322,17.54493c-.287-.97559-1.03485-1.81944-1.67594-1.88408l-22.5551-2.30527c-.86687-.08816-1.30275.77087-.96433,1.92032.33842,1.14994,1.31597,2.13728,2.17695,2.20389l22.39104,1.74303c.63717.04996.91437-.70035.62738-1.67789ZM72.12005,41.38417l-21.36745,1.74303c-.82082.06661-1.21851,1.05591-.88009,2.20389.33695,1.14945,1.27777,2.01044,2.09125,1.92228l21.2029-2.30723c.60239-.06465.85315-.90849.56615-1.88408-.28504-.97559-1.00644-1.72785-1.61276-1.6779ZM75.85246,36.49447c-.27916-.94718-.9702-1.69896-1.55154-1.6779l-20.30371.68468c-.77675.02694-1.14798.94914-.82082,2.05844.32519,1.10978,1.22046,1.97077,1.99182,1.92473l20.15042-1.21116c.57399-.03624.81299-.83013.53383-1.77879Z"/>
      </g>
    </g>
  </g>
</svg>