<?xml version="1.0" encoding="UTF-8"?>
<svg id="Capa_1" data-name="Capa 1" xmlns="http://www.w3.org/2000/svg" viewBox="0 0 62.62 103.42">
  <defs>
    <style>
      .cls-1 {
        fill: #17774f;
      }
    </style>
  </defs>
  <path class="cls-1" d="m62.4,6.18c-.3-.71-.92-1.25-1.74-1.51-6.36-2.03-12.73-3.4-18.94-4.07-1.44-.15-2.88-.28-4.32-.41l-1.96-.19h-8.38l-.22.02c-.09.02-.18.05-.28.07-.12.04-.24.07-.3.07-7.78.39-15.67,1.81-23.46,4.22-.88.27-2.12.76-2.6,1.87-.47,1.1-.01,2.3.39,3.11l12.3,25.23c.43.88,1.14,2.08,2.36,2.33,1.2.26,2.32-.53,3.05-1.15l.38-.32c1.47-1.24,2.95-2.48,4.42-3.72.01.06.03.12.04.18.25,1.1.49,2.15.37,3.05-.78,5.99-1.7,12.07-2.59,17.95-.32,2.14-.64,4.27-.96,6.41l-.88,5.97c-.98,6.65-1.97,13.3-2.98,19.95-.15.98.08,1.75.76,2.48,3.11,3.39,6.21,6.79,9.31,10.18l3.87,4.24c.13.14.27.27.43.42l.93.86,3.05-3.34c3.88-4.25,7.73-8.46,11.56-12.7.64-.71.51-1.84.48-2.06-.72-4.98-1.46-9.96-2.21-14.94l-.63-4.26c-.39-2.6-.77-5.21-1.16-7.81-.95-6.45-1.93-13.12-2.95-19.68-.39-2.45-.64-4.69,0-6.87l4.87,4.09c1.08.91,2.05,1.26,2.97,1.07.91-.2,1.66-.91,2.28-2.18l8.81-18.08c1.25-2.56,2.5-5.12,3.74-7.69.48-.99.55-1.98.2-2.79Zm-10.67,1.92l-1.61.78c-6.15,2.97-12.29,5.93-18.46,8.87-.17.09-.48.1-.57.07-6.31-3.01-12.6-6.06-18.9-9.1l-1.34-.65c13.72-3.18,27.15-3.17,40.88.03Zm-23.8,36.26c.36-2.37.71-4.74,1.05-7.12,1.66.02,3.18.02,4.65,0,.64,4.43,1.31,8.87,1.97,13.3l.93,6.2c.36,2.43.71,4.86,1.07,7.29.89,6.08,1.81,12.37,2.81,18.55.29,1.82.02,2.8-1.1,3.92-2.14,2.13-4.2,4.41-6.19,6.62-.6.67-1.21,1.34-1.82,2.01l-1.37-1.5c-2.7-2.93-5.34-5.81-7.92-8.65-.04-.07-.07-.31-.04-.51.41-2.83.83-5.66,1.26-8.49l4.7-31.62Zm5.89-12.8c-1.77.03-3.42.03-5.02-.01-.35-1.25-.65-2.52-.9-3.73,0-.02.01-.05,0-.05.98-.88,1.99-1.74,3.01-2.6l.39-.32.39.33c1.02.86,2.03,1.71,3.02,2.59-.25,1.27-.56,2.54-.89,3.79Zm-17.04-1.9l-7.88-16.18,17.23,8.29-9.35,7.89Zm29.05,0l-9.36-7.89,17.24-8.3-7.88,16.19Z"/>
</svg>