<?xml version="1.0" encoding="UTF-8"?>
<svg id="Capa_1" data-name="Capa 1" xmlns="http://www.w3.org/2000/svg" viewBox="0 0 124.92 79.5">
  <defs>
    <style>
      .cls-1 {
        fill: #17774f;
      }
    </style>
  </defs>
  <path class="cls-1" d="m123.88,7.28c-.01-3.56-2.59-5.99-6.13-6.01-3.25-.03-6.5-.02-9.75,0-3.08.01-5.2,1.71-6.06,4.72-.13.44-.41,1.03-.78,1.19-3.32,1.42-6.62,2.91-10.03,4.08-2.22.77-4.37.35-6.31-1.31-2.83-2.41-5.93-4.5-8.74-6.94-3.63-3.16-7.33-2.19-10.12.03-1.55,1.23-3.13,2.42-4.64,3.69-.63.54-1.07.51-1.7,0-1.16-.95-2.35-1.89-3.61-2.71-3.02-1.96-6.09-2.24-9.27-.26-3.67,2.29-7.43,4.44-11.1,6.74-1.41.88-2.77,1-4.3.5-2.36-.79-4.73-1.57-7.12-2.25-.84-.25-1.07-.62-1.1-1.47-.1-3.54-2.63-5.99-6.14-6.02-3.11-.02-6.22-.01-9.33,0-4.24.01-6.63,2.38-6.63,6.66-.02,13.71-.02,27.43-.02,41.14,0,.38,0,.75.04,1.13.26,3.21,2.73,5.59,5.96,5.64,3.39.05,6.78.05,10.17,0,2.24-.04,4.34-.97,5.03-3.03.74-2.23,2.06-2.23,3.79-2.05.37.04.76.06,1.13,0,2.57-.35,4.11,1.03,5.06,3.17,1.21,2.69,3.13,4.55,5.87,5.57,1.48.55,2.67,1.49,3.27,2.95,1.22,2.97,3.38,4.91,6.31,6.09,1.43.57,2.37,1.59,3.01,3,2.27,5.05,7.25,6.96,12.31,4.71.79-.35,1.23-.23,1.83.31,4.41,3.92,11.4,1.61,12.24-3.93.04-.21.15-.41.21-.58,4.68-.29,6.38-1.7,7.93-6.51,4.33-.08,7.07-2.14,7.9-6.58.47,0,.89.03,1.3-.01,4.5-.34,7.61-4.66,6.17-8.83-.49-1.42-.16-2.07,1.26-2.71,0,.71,0,1.26,0,1.82.01,4.1,2.5,6.61,6.59,6.62,3.07,0,6.13.02,9.19,0,3.71-.03,6.31-2.47,6.32-6.15.04-14.14.04-28.28,0-42.41Zm-15.35,44.58c-2-.01-2.76-.75-2.76-2.72,0-13.75,0-27.51,0-41.26,0-1.93.74-2.64,2.65-2.65,2.92-.01,5.84-.01,8.76,0,2.05.01,2.72.66,2.72,2.69,0,6.87,0,13.75,0,20.63v20.34c0,2.37-.62,2.97-3.03,2.98-2.78,0-5.56.01-8.34,0Zm-25.2,8.68c-1.69-1.62-3.27-3.37-4.89-5.07-.81-.85-1.6-1.72-2.42-2.56-.91-.93-1.27-2.02-.75-3.22.54-1.25,1.61-1.78,3.14-2.1.92.57,1.99.98,2.74,1.72,2.27,2.25,4.44,4.61,6.62,6.94,1.44,1.54,1.57,3.03.41,4.24-1.26,1.3-3.46,1.4-4.85.05Zm-3.09,6.47c-1.26,1.29-3.46,1.38-4.85.05-1.63-1.56-3.14-3.25-4.69-4.88-.88-.92-1.74-1.86-2.62-2.77-.89-.93-1.29-2-.75-3.22.55-1.24,1.62-1.76,3.14-2.08.92.56,2,.97,2.75,1.71,2.27,2.24,4.43,4.6,6.61,6.94,1.41,1.51,1.54,3.08.41,4.25Zm-20.82-4.36c.59-1.22,1.66-1.74,3.18-2.03.92.58,1.98,1.01,2.73,1.75,2.24,2.22,4.36,4.54,6.51,6.84,1.47,1.57,1.6,3.19.42,4.35-1.29,1.27-3.44,1.31-4.86-.03-1.19-1.13-2.28-2.37-3.41-3.56-1.3-1.37-2.59-2.74-3.88-4.1-.88-.94-1.26-2.02-.69-3.22Zm27.54-13.07c-.97-1.02-1.94-2.04-2.9-3.07-1.22-1.3-1.42-2.63-.61-3.81.79-1.16,2.47-1.7,3.91-1.11.66.28,1.3.76,1.81,1.28,2.2,2.25,4.38,4.54,6.5,6.86.58.63.95,1.45,1.62,2.5-.74.85-1.29,1.81-2.1,2.35-1.27.82-2.88.5-4.02-.62-1.44-1.42-2.81-2.91-4.21-4.38Zm10.33-4c-1.89-1.99-3.78-4.1-5.8-6.07-3.68-3.58-9.87-2.54-11.94,1.96-.33.72-.49,1.52-.76,2.38-4.4.07-7.05,2.17-7.88,6.5-4.4.04-7.1,2.15-7.92,6.42-1.05.18-2.05.22-2.98.52-4.86,1.53-6.44,7.2-3.08,11.03,1.29,1.48,2.68,2.88,4.05,4.34-2.61,1.09-5.36.22-6.41-2.23-1.22-2.88-3.2-4.8-6.06-5.94-1.66-.65-2.73-1.89-3.45-3.54-1.06-2.43-2.87-4.18-5.37-5.12-1.88-.7-3.18-1.9-3.95-3.77-.37-.9-.99-1.7-1.47-2.51,5.58-5.86,11.16-11.72,16.74-17.59,1.91-2.01,3.36-2.16,5.88-.78,2.63,1.44,5.23,3.01,8.02,4.08,8.26,3.17,15.53.49,21.37-5.34,1.2-1.19.98-2.32-.6-3.52-5.48-4.15-10.97-8.29-16.45-12.44-1.77-1.33-3.53-2.67-5.46-4.13,1.94-1.47,3.75-2.95,5.67-4.28,1.24-.87,2.49-.74,3.74.29,2.88,2.35,5.97,4.46,8.75,6.93,3.33,2.96,7.04,3.43,11.05,2.18,2.95-.91,5.79-2.15,8.75-3.28.02.36.05.81.05,1.25,0,9.43-.01,18.85.02,28.28,0,.94-.2,1.52-1.1,2.01-1.19.64-2.24,1.54-3.41,2.37Zm-15.45-17.05c-4.24,3.62-8.93,5.11-14.19,3.39-2.82-.92-5.42-2.54-8.14-3.8-1.31-.61-2.62-1.3-4-1.66-2.69-.7-4.97.15-6.88,2.18-5.08,5.38-10.22,10.7-15.27,16.09-1.07,1.14-2.2,1.88-3.77,1.88-2.1,0-4.2,0-6.37,0V12.66c1.58.49,3.11.97,4.65,1.43,1.22.37,2.43.74,3.65,1.07,2.03.54,3.91.12,5.68-.95,3.66-2.21,7.33-4.42,10.99-6.64,2.67-1.62,3.86-1.57,6.41.35,7.32,5.53,14.64,11.07,21.97,16.61,1.72,1.3,3.44,2.61,5.27,4ZM19.14,7.9c.01,13.75.01,27.5,0,41.25,0,1.98-.75,2.7-2.77,2.71-2.87.02-5.74.02-8.61,0-2.04-.02-2.72-.7-2.72-2.71,0-6.87,0-13.75,0-20.62V8.05c0-2.21.63-2.82,2.87-2.82h8.47c2.04.01,2.77.68,2.77,2.67Z"/>
  <path class="cls-1" d="m80.98,26.61c-1.3-.98-2.55-1.93-3.81-2.88-7.32-5.54-14.65-11.07-21.97-16.61-2.87-2.16-4.49-2.25-7.53-.41-2.37,1.44-4.74,2.87-7.12,4.31l-3.87,2.33c-1.65,1.01-3.26,1.28-4.9.84-1.21-.33-2.42-.69-3.62-1.05-1.06-.32-2.11-.65-3.18-.98l-2.76-.86v36.31h2.94s1.89,0,1.89,0c.85,0,1.7,0,2.55,0,2.16,0,3.54-1.17,4.49-2.19,2.92-3.12,5.87-6.22,8.82-9.31,2.15-2.26,4.3-4.51,6.44-6.78,1.76-1.86,3.68-2.48,5.91-1.9,1.04.27,2.05.75,3.12,1.26l.71.34c.91.42,1.8.88,2.69,1.34,1.77.92,3.61,1.87,5.56,2.5,5.26,1.72,10.35.51,15.15-3.58l.95-.81-2.46-1.87Zm-13.02,4.36c-1.79-.59-3.48-1.46-5.26-2.38-.92-.47-1.84-.95-2.77-1.38l-.69-.32c-1.1-.53-2.25-1.08-3.48-1.4-2.95-.77-5.59.06-7.86,2.47-2.14,2.26-4.29,4.51-6.44,6.77-2.95,3.1-5.91,6.2-8.83,9.32-1.02,1.09-1.93,1.56-3.04,1.56-1.47,0-2.94,0-4.43,0h-.94V14.01l.17.06c1.07.33,2.13.66,3.19.98,1.23.37,2.45.74,3.68,1.07,2.17.58,4.34.23,6.46-1.05l3.87-2.34c2.37-1.44,4.75-2.87,7.12-4.31,2.33-1.41,3.07-1.37,5.28.3,7.33,5.53,14.65,11.07,21.97,16.6,1.26.95,2.51,1.9,3.81,2.89l.45.34c-3.97,3.02-7.99,3.81-12.26,2.42ZM16.38,4.23H7.9c-2.78,0-3.87,1.07-3.87,3.81v25.99c0,5.04,0,10.08,0,15.12,0,2.55,1.14,3.69,3.71,3.71,1.46,0,2.92,0,4.37,0s2.84,0,4.26,0c2.56-.02,3.76-1.2,3.76-3.71.01-13.75.01-27.5,0-41.25,0-2.53-1.16-3.66-3.76-3.67Zm1.76,44.92c0,1.41-.3,1.7-1.77,1.71-2.87.02-5.74.02-8.61,0-1.48-.01-1.72-.25-1.72-1.71,0-5.04,0-10.08,0-15.12V8.05c0-1.65.18-1.82,1.87-1.82h8.47c1.51.01,1.77.26,1.77,1.68.01,13.74.01,27.49,0,41.24ZM117.19,4.23c-2.93-.01-5.85-.01-8.77,0-2.49.01-3.65,1.17-3.65,3.65,0,13.75,0,27.51,0,41.26,0,2.52,1.2,3.7,3.75,3.72,1.23,0,2.46,0,3.69,0h4.66c2.97,0,4.03-1.05,4.03-3.97v-26.08c0-4.97,0-9.94,0-14.91,0-2.57-1.11-3.67-3.71-3.68Zm1.71,18.59v26.07c0,1.81-.17,1.97-2.04,1.98h-1.28c-2.35,0-4.7.01-7.04,0-1.47-.01-1.77-.3-1.77-1.72,0-13.75,0-27.51,0-41.26,0-1.37.28-1.64,1.66-1.65,1.39,0,2.77-.01,4.16-.01,1.53,0,3.06.01,4.59.01s1.72.21,1.72,1.69c0,4.96,0,9.93,0,14.9Zm-20.77,28.87c-.21-.34-.4-.66-.57-.95-.37-.64-.69-1.19-1.15-1.68-1.96-2.14-4.09-4.4-6.52-6.89-.47-.47-1.22-1.12-2.15-1.5-1.84-.76-4.04-.13-5.12,1.46-1.08,1.58-.82,3.43.7,5.06.97,1.04,1.94,2.06,2.92,3.08l1.12,1.19c1.01,1.06,2.04,2.16,3.11,3.21.91.9,2.04,1.37,3.15,1.37.74,0,1.46-.2,2.11-.63.7-.45,1.21-1.11,1.69-1.75.2-.26.4-.52.63-.78l.49-.56-.41-.63Zm-2.3.76c-.41.55-.77,1.02-1.19,1.29-.82.53-1.93.33-2.77-.49-1.04-1.03-2.06-2.11-3.05-3.16l-1.13-1.2c-.97-1.01-1.94-2.03-2.9-3.06-1.18-1.26-.86-2.07-.52-2.57.4-.58,1.11-.91,1.84-.91.29,0,.59.05.86.16.49.21,1.02.58,1.48,1.06,2.42,2.47,4.54,4.71,6.49,6.84.31.34.57.78.89,1.34.08.13.16.26.24.4-.08.1-.16.2-.24.3Zm-7.33,3.11l-1.18-1.26c-1.76-1.89-3.59-3.85-5.47-5.7-.62-.61-1.36-1-2.07-1.39-.29-.15-.57-.3-.85-.47l-.33-.21-.39.08c-1.38.29-3.06.85-3.86,2.68-.64,1.49-.3,3.03.95,4.31.48.5.96,1,1.43,1.51.33.35.66.7.99,1.05.46.48.92.97,1.38,1.46,1.14,1.21,2.31,2.47,3.54,3.64.83.81,1.93,1.25,3.09,1.25h.1c1.16-.03,2.28-.51,3.07-1.33,1.54-1.6,1.39-3.7-.4-5.62Zm-1.04,4.24c-.43.44-1.03.69-1.67.71-.64.02-1.29-.23-1.76-.69-1.19-1.14-2.35-2.37-3.47-3.57-.46-.49-.93-.98-1.4-1.47-.32-.35-.65-.69-.97-1.04-.48-.52-.97-1.03-1.46-1.53-.9-.93-.74-1.66-.54-2.13.31-.72.9-1.14,2.06-1.42.19.1.39.21.59.32.61.33,1.2.64,1.61,1.04,1.85,1.83,3.66,3.77,5.41,5.65l1.18,1.26c1.57,1.67.73,2.54.42,2.87Zm-6.9,2.28l-1.09-1.18c-1.79-1.92-3.64-3.91-5.55-5.79-.62-.61-1.36-1.01-2.08-1.39-.29-.15-.58-.3-.85-.47l-.34-.2-.39.08c-1.45.3-3.04.86-3.84,2.66-.46,1.04-.67,2.63.94,4.31.49.51.97,1.02,1.45,1.54.39.41.77.82,1.16,1.23.44.46.87.92,1.31,1.39,1.09,1.17,2.23,2.38,3.41,3.52.87.83,2,1.25,3.11,1.25s2.3-.44,3.15-1.32c1.54-1.58,1.39-3.74-.39-5.63Zm-1.04,4.23c-.91.93-2.48.95-3.44.03-1.15-1.1-2.26-2.3-3.34-3.45-.44-.47-.88-.94-1.32-1.4-.38-.41-.77-.81-1.15-1.22-.48-.52-.97-1.04-1.47-1.56-.9-.94-.77-1.62-.55-2.11.32-.73.89-1.14,2.06-1.43.19.11.39.21.59.32.62.33,1.2.64,1.61,1.04,1.88,1.85,3.72,3.83,5.5,5.74l1.09,1.17c.72.77,1.37,1.89.42,2.87Zm23.26-45.72v-7.67c0-.33-.02-.67-.03-.97l-.09-1.7-1.28.49c-.93.35-1.84.71-2.74,1.07-2.04.8-3.96,1.57-5.95,2.19-3.93,1.22-7.24.57-10.1-1.98-1.67-1.49-3.48-2.86-5.23-4.19-1.17-.9-2.39-1.82-3.55-2.77-2.06-1.69-3.82-1.11-4.94-.33-1.36.94-2.63,1.93-3.98,2.98-.57.44-1.14.88-1.72,1.33l-1.05.79,11.74,8.88,11.22,8.49c.81.61.95,1.01.96,1.19.02.27-.24.6-.46.82-4.27,4.25-11.25,8.59-20.31,5.12-2.15-.83-4.25-2-6.28-3.13-.54-.3-1.08-.6-1.62-.9-2.96-1.61-4.88-1.35-7.08.97-3.95,4.16-7.91,8.31-11.87,12.47l-5.4,5.67.39.66c.15.26.32.52.49.78.36.54.69,1.06.91,1.59.87,2.09,2.35,3.51,4.53,4.33,2.22.84,3.84,2.38,4.8,4.58.89,2.03,2.19,3.36,4,4.07,2.64,1.05,4.39,2.76,5.51,5.4.9,2.1,2.88,3.3,5.11,3.3.85,0,1.74-.17,2.61-.54l1.33-.55-.99-1.05c-.43-.46-.87-.92-1.3-1.37-.95-1.01-1.86-1.95-2.73-2.95-1.38-1.57-1.86-3.55-1.33-5.45.53-1.89,1.97-3.34,3.96-3.97.55-.17,1.16-.25,1.81-.33.34-.05.69-.09,1.03-.15l.69-.11.13-.69c.72-3.74,2.99-5.57,6.95-5.61h.82s.15-.81.15-.81c.73-3.82,2.93-5.63,6.91-5.69h.72s.22-.7.22-.7c.09-.29.17-.57.25-.85.15-.53.28-1,.47-1.41.83-1.8,2.47-3.05,4.5-3.42,2.12-.4,4.3.26,5.83,1.76,1.38,1.34,2.72,2.78,4.01,4.17.59.63,1.18,1.26,1.77,1.87l.6.63.7-.5c.36-.26.72-.52,1.06-.79.76-.57,1.48-1.11,2.25-1.52,1.44-.78,1.63-1.9,1.62-2.9-.02-6.86-.02-13.73-.02-20.6Zm-2.56,21.74c-.89.48-1.71,1.09-2.49,1.69-.11.08-.21.16-.32.23-.38-.4-.76-.81-1.14-1.22-1.31-1.4-2.67-2.85-4.09-4.23-1.99-1.95-4.83-2.81-7.59-2.3-2.68.5-4.84,2.16-5.95,4.55-.25.56-.42,1.14-.58,1.71,0,.04-.02.08-.03.12-4.25.29-6.91,2.47-7.93,6.5-4.21.28-6.94,2.51-7.94,6.5-.1.02-.19.03-.29.04-.71.09-1.45.19-2.16.41-2.61.83-4.58,2.82-5.29,5.35-.7,2.52-.05,5.25,1.75,7.3.91,1.03,1.87,2.03,2.8,3.01.04.04.07.08.11.12-1.58.12-2.98-.63-3.59-2.07-1.33-3.12-3.49-5.24-6.62-6.48-1.3-.51-2.22-1.47-2.89-3.01-1.19-2.71-3.19-4.62-5.94-5.65-1.66-.62-2.73-1.65-3.38-3.22-.29-.71-.69-1.32-1.08-1.92-.02-.03-.03-.06-.05-.08l4.34-4.56c3.96-4.16,7.91-8.31,11.87-12.47,1.56-1.65,2.52-1.76,4.67-.59.53.29,1.07.59,1.6.89,2.09,1.16,4.26,2.37,6.54,3.25,7.97,3.05,15.73,1.12,22.44-5.57.75-.75,1.11-1.55,1.05-2.38-.06-.93-.64-1.8-1.75-2.64-3.74-2.84-7.49-5.66-11.23-8.49l-9.64-7.29c.23-.18.47-.36.7-.54,1.32-1.03,2.58-2.01,3.89-2.92.6-.42,1.37-.72,2.54.24,1.18.97,2.41,1.91,3.6,2.81,1.72,1.31,3.49,2.65,5.11,4.09,3.38,3.02,7.43,3.82,12.02,2.4,2.07-.65,4.11-1.46,6.09-2.24.47-.19.94-.38,1.41-.56v7.48c0,6.87,0,13.74.02,20.61,0,.72-.11.87-.58,1.13Zm-27.64,26.2l-1.23-1.31c-1.71-1.84-3.49-3.75-5.32-5.56-.61-.61-1.34-1.01-2.05-1.4-.29-.16-.57-.31-.85-.49l-.33-.2-.39.07c-1.36.26-3.03.79-3.89,2.58-.7,1.46-.39,3.01.87,4.34l3.87,4.1c.33.34.65.69.98,1.04.79.85,1.6,1.74,2.48,2.56.9.85,2.04,1.27,3.16,1.27s2.23-.42,3.08-1.25c1.58-1.56,1.43-3.81-.38-5.75Zm-1.02,4.32c-.94.92-2.46.9-3.47-.05-.82-.77-1.62-1.63-2.39-2.46-.33-.36-.65-.71-.99-1.06l-3.87-4.1c-.9-.94-.74-1.62-.51-2.1.34-.72.94-1.13,2.1-1.4.19.11.38.22.58.33.62.34,1.2.66,1.62,1.07,1.79,1.78,3.56,3.68,5.26,5.51l1.22,1.31c.76.8,1.45,1.97.45,2.95ZM117.19,4.23c-2.93-.01-5.85-.01-8.77,0-2.49.01-3.65,1.17-3.65,3.65,0,13.75,0,27.51,0,41.26,0,2.52,1.2,3.7,3.75,3.72,1.23,0,2.46,0,3.69,0h4.66c2.97,0,4.03-1.05,4.03-3.97v-26.08c0-4.97,0-9.94,0-14.91,0-2.57-1.11-3.67-3.71-3.68Zm1.71,18.59v26.07c0,1.81-.17,1.97-2.04,1.98h-1.28c-2.35,0-4.7.01-7.04,0-1.47-.01-1.77-.3-1.77-1.72,0-13.75,0-27.51,0-41.26,0-1.37.28-1.64,1.66-1.65,1.39,0,2.77-.01,4.16-.01,1.53,0,3.06.01,4.59.01s1.72.21,1.72,1.69c0,4.96,0,9.93,0,14.9Zm-16.12-2.23v-7.67c0-.33-.02-.67-.03-.97l-.09-1.7-1.28.49c-.93.35-1.84.71-2.74,1.07-2.04.8-3.96,1.57-5.95,2.19-3.93,1.22-7.24.57-10.1-1.98-1.67-1.49-3.48-2.86-5.23-4.19-1.17-.9-2.39-1.82-3.55-2.77-2.06-1.69-3.82-1.11-4.94-.33-1.36.94-2.63,1.93-3.98,2.98-.57.44-1.14.88-1.72,1.33l-1.05.79,11.74,8.88,11.22,8.49c.81.61.95,1.01.96,1.19.02.27-.24.6-.46.82-4.27,4.25-11.25,8.59-20.31,5.12-2.15-.83-4.25-2-6.28-3.13-.54-.3-1.08-.6-1.62-.9-2.96-1.61-4.88-1.35-7.08.97-3.95,4.16-7.91,8.31-11.87,12.47l-5.4,5.67.39.66c.15.26.32.52.49.78.36.54.69,1.06.91,1.59.87,2.09,2.35,3.51,4.53,4.33,2.22.84,3.84,2.38,4.8,4.58.89,2.03,2.19,3.36,4,4.07,2.64,1.05,4.39,2.76,5.51,5.4.9,2.1,2.88,3.3,5.11,3.3.85,0,1.74-.17,2.61-.54l1.33-.55-.99-1.05c-.43-.46-.87-.92-1.3-1.37-.95-1.01-1.86-1.95-2.73-2.95-1.38-1.57-1.86-3.55-1.33-5.45.53-1.89,1.97-3.34,3.96-3.97.55-.17,1.16-.25,1.81-.33.34-.05.69-.09,1.03-.15l.69-.11.13-.69c.72-3.74,2.99-5.57,6.95-5.61h.82s.15-.81.15-.81c.73-3.82,2.93-5.63,6.91-5.69h.72s.22-.7.22-.7c.09-.29.17-.57.25-.85.15-.53.28-1,.47-1.41.83-1.8,2.47-3.05,4.5-3.42,2.12-.4,4.3.26,5.83,1.76,1.38,1.34,2.72,2.78,4.01,4.17.59.63,1.18,1.26,1.77,1.87l.6.63.7-.5c.36-.26.72-.52,1.06-.79.76-.57,1.48-1.11,2.25-1.52,1.44-.78,1.63-1.9,1.62-2.9-.02-6.86-.02-13.73-.02-20.6Zm-2.56,21.74c-.89.48-1.71,1.09-2.49,1.69-.11.08-.21.16-.32.23-.38-.4-.76-.81-1.14-1.22-1.31-1.4-2.67-2.85-4.09-4.23-1.99-1.95-4.83-2.81-7.59-2.3-2.68.5-4.84,2.16-5.95,4.55-.25.56-.42,1.14-.58,1.71,0,.04-.02.08-.03.12-4.25.29-6.91,2.47-7.93,6.5-4.21.28-6.94,2.51-7.94,6.5-.1.02-.19.03-.29.04-.71.09-1.45.19-2.16.41-2.61.83-4.58,2.82-5.29,5.35-.7,2.52-.05,5.25,1.75,7.3.91,1.03,1.87,2.03,2.8,3.01.04.04.07.08.11.12-1.58.12-2.98-.63-3.59-2.07-1.33-3.12-3.49-5.24-6.62-6.48-1.3-.51-2.22-1.47-2.89-3.01-1.19-2.71-3.19-4.62-5.94-5.65-1.66-.62-2.73-1.65-3.38-3.22-.29-.71-.69-1.32-1.08-1.92-.02-.03-.03-.06-.05-.08l4.34-4.56c3.96-4.16,7.91-8.31,11.87-12.47,1.56-1.65,2.52-1.76,4.67-.59.53.29,1.07.59,1.6.89,2.09,1.16,4.26,2.37,6.54,3.25,7.97,3.05,15.73,1.12,22.44-5.57.75-.75,1.11-1.55,1.05-2.38-.06-.93-.64-1.8-1.75-2.64-3.74-2.84-7.49-5.66-11.23-8.49l-9.64-7.29c.23-.18.47-.36.7-.54,1.32-1.03,2.58-2.01,3.89-2.92.6-.42,1.37-.72,2.54.24,1.18.97,2.41,1.91,3.6,2.81,1.72,1.31,3.49,2.65,5.11,4.09,3.38,3.02,7.43,3.82,12.02,2.4,2.07-.65,4.11-1.46,6.09-2.24.47-.19.94-.38,1.41-.56v7.48c0,6.87,0,13.74.02,20.61,0,.72-.11.87-.58,1.13Zm-2.09,9.36c-.21-.34-.4-.66-.57-.95-.37-.64-.69-1.19-1.15-1.68-1.96-2.14-4.09-4.4-6.52-6.89-.47-.47-1.22-1.12-2.15-1.5-1.84-.76-4.04-.13-5.12,1.46-1.08,1.58-.82,3.43.7,5.06.97,1.04,1.94,2.06,2.92,3.08l1.12,1.19c1.01,1.06,2.04,2.16,3.11,3.21.91.9,2.04,1.37,3.15,1.37.74,0,1.46-.2,2.11-.63.7-.45,1.21-1.11,1.69-1.75.2-.26.4-.52.63-.78l.49-.56-.41-.63Zm-2.3.76c-.41.55-.77,1.02-1.19,1.29-.82.53-1.93.33-2.77-.49-1.04-1.03-2.06-2.11-3.05-3.16l-1.13-1.2c-.97-1.01-1.94-2.03-2.9-3.06-1.18-1.26-.86-2.07-.52-2.57.4-.58,1.11-.91,1.84-.91.29,0,.59.05.86.16.49.21,1.02.58,1.48,1.06,2.42,2.47,4.54,4.71,6.49,6.84.31.34.57.78.89,1.34.08.13.16.26.24.4-.08.1-.16.2-.24.3Zm-7.33,3.11l-1.18-1.26c-1.76-1.89-3.59-3.85-5.47-5.7-.62-.61-1.36-1-2.07-1.39-.29-.15-.57-.3-.85-.47l-.33-.21-.39.08c-1.38.29-3.06.85-3.86,2.68-.64,1.49-.3,3.03.95,4.31.48.5.96,1,1.43,1.51.33.35.66.7.99,1.05.46.48.92.97,1.38,1.46,1.14,1.21,2.31,2.47,3.54,3.64.83.81,1.93,1.25,3.09,1.25h.1c1.16-.03,2.28-.51,3.07-1.33,1.54-1.6,1.39-3.7-.4-5.62Zm-1.04,4.24c-.43.44-1.03.69-1.67.71-.64.02-1.29-.23-1.76-.69-1.19-1.14-2.35-2.37-3.47-3.57-.46-.49-.93-.98-1.4-1.47-.32-.35-.65-.69-.97-1.04-.48-.52-.97-1.03-1.46-1.53-.9-.93-.74-1.66-.54-2.13.31-.72.9-1.14,2.06-1.42.19.1.39.21.59.32.61.33,1.2.64,1.61,1.04,1.85,1.83,3.66,3.77,5.41,5.65l1.18,1.26c1.57,1.67.73,2.54.42,2.87Zm-6.48-33.19c-1.3-.98-2.55-1.93-3.81-2.88-7.32-5.54-14.65-11.07-21.97-16.61-2.87-2.16-4.49-2.25-7.53-.41-2.37,1.44-4.74,2.87-7.12,4.31l-3.87,2.33c-1.65,1.01-3.26,1.28-4.9.84-1.21-.33-2.42-.69-3.62-1.05-1.06-.32-2.11-.65-3.18-.98l-2.76-.86v36.31h2.94s1.89,0,1.89,0c.85,0,1.7,0,2.55,0,2.16,0,3.54-1.17,4.49-2.19,2.92-3.12,5.87-6.22,8.82-9.31,2.15-2.26,4.3-4.51,6.44-6.78,1.76-1.86,3.68-2.48,5.91-1.9,1.04.27,2.05.75,3.12,1.26l.71.34c.91.42,1.8.88,2.69,1.34,1.77.92,3.61,1.87,5.56,2.5,5.26,1.72,10.35.51,15.15-3.58l.95-.81-2.46-1.87Zm-13.02,4.36c-1.79-.59-3.48-1.46-5.26-2.38-.92-.47-1.84-.95-2.77-1.38l-.69-.32c-1.1-.53-2.25-1.08-3.48-1.4-2.95-.77-5.59.06-7.86,2.47-2.14,2.26-4.29,4.51-6.44,6.77-2.95,3.1-5.91,6.2-8.83,9.32-1.02,1.09-1.93,1.56-3.04,1.56-1.47,0-2.94,0-4.43,0h-.94V14.01l.17.06c1.07.33,2.13.66,3.19.98,1.23.37,2.45.74,3.68,1.07,2.17.58,4.34.23,6.46-1.05l3.87-2.34c2.37-1.44,4.75-2.87,7.12-4.31,2.33-1.41,3.07-1.37,5.28.3,7.33,5.53,14.65,11.07,21.97,16.6,1.26.95,2.51,1.9,3.81,2.89l.45.34c-3.97,3.02-7.99,3.81-12.26,2.42Zm12.6,31.11l-1.09-1.18c-1.79-1.92-3.64-3.91-5.55-5.79-.62-.61-1.36-1.01-2.08-1.39-.29-.15-.58-.3-.85-.47l-.34-.2-.39.08c-1.45.3-3.04.86-3.84,2.66-.46,1.04-.67,2.63.94,4.31.49.51.97,1.02,1.45,1.54.39.41.77.82,1.16,1.23.44.46.87.92,1.31,1.39,1.09,1.17,2.23,2.38,3.41,3.52.87.83,2,1.25,3.11,1.25s2.3-.44,3.15-1.32c1.54-1.58,1.39-3.74-.39-5.63Zm-1.04,4.23c-.91.93-2.48.95-3.44.03-1.15-1.1-2.26-2.3-3.34-3.45-.44-.47-.88-.94-1.32-1.4-.38-.41-.77-.81-1.15-1.22-.48-.52-.97-1.04-1.47-1.56-.9-.94-.77-1.62-.55-2.11.32-.73.89-1.14,2.06-1.43.19.11.39.21.59.32.62.33,1.2.64,1.61,1.04,1.88,1.85,3.72,3.83,5.5,5.74l1.09,1.17c.72.77,1.37,1.89.42,2.87Zm-6.94,2.22l-1.23-1.31c-1.71-1.84-3.49-3.75-5.32-5.56-.61-.61-1.34-1.01-2.05-1.4-.29-.16-.57-.31-.85-.49l-.33-.2-.39.07c-1.36.26-3.03.79-3.89,2.58-.7,1.46-.39,3.01.87,4.34l3.87,4.1c.33.34.65.69.98,1.04.79.85,1.6,1.74,2.48,2.56.9.85,2.04,1.27,3.16,1.27s2.23-.42,3.08-1.25c1.58-1.56,1.43-3.81-.38-5.75Zm-1.02,4.32c-.94.92-2.46.9-3.47-.05-.82-.77-1.62-1.63-2.39-2.46-.33-.36-.65-.71-.99-1.06l-3.87-4.1c-.9-.94-.74-1.62-.51-2.1.34-.72.94-1.13,2.1-1.4.19.11.38.22.58.33.62.34,1.2.66,1.62,1.07,1.79,1.78,3.56,3.68,5.26,5.51l1.22,1.31c.76.8,1.45,1.97.45,2.95ZM16.38,4.23H7.9c-2.78,0-3.87,1.07-3.87,3.81v25.99c0,5.04,0,10.08,0,15.12,0,2.55,1.14,3.69,3.71,3.71,1.46,0,2.92,0,4.37,0s2.84,0,4.26,0c2.56-.02,3.76-1.2,3.76-3.71.01-13.75.01-27.5,0-41.25,0-2.53-1.16-3.66-3.76-3.67Zm1.76,44.92c0,1.41-.3,1.7-1.77,1.71-2.87.02-5.74.02-8.61,0-1.48-.01-1.72-.25-1.72-1.71,0-5.04,0-10.08,0-15.12V8.05c0-1.65.18-1.82,1.87-1.82h8.47c1.51.01,1.77.26,1.77,1.68.01,13.74.01,27.49,0,41.24Zm-1.76-44.92H7.9c-2.78,0-3.87,1.07-3.87,3.81v25.99c0,5.04,0,10.08,0,15.12,0,2.55,1.14,3.69,3.71,3.71,1.46,0,2.92,0,4.37,0s2.84,0,4.26,0c2.56-.02,3.76-1.2,3.76-3.71.01-13.75.01-27.5,0-41.25,0-2.53-1.16-3.66-3.76-3.67Zm1.76,44.92c0,1.41-.3,1.7-1.77,1.71-2.87.02-5.74.02-8.61,0-1.48-.01-1.72-.25-1.72-1.71,0-5.04,0-10.08,0-15.12V8.05c0-1.65.18-1.82,1.87-1.82h8.47c1.51.01,1.77.26,1.77,1.68.01,13.74.01,27.49,0,41.24Zm54.44,19.38l-1.23-1.31c-1.71-1.84-3.49-3.75-5.32-5.56-.61-.61-1.34-1.01-2.05-1.4-.29-.16-.57-.31-.85-.49l-.33-.2-.39.07c-1.36.26-3.03.79-3.89,2.58-.7,1.46-.39,3.01.87,4.34l3.87,4.1c.33.34.65.69.98,1.04.79.85,1.6,1.74,2.48,2.56.9.85,2.04,1.27,3.16,1.27s2.23-.42,3.08-1.25c1.58-1.56,1.43-3.81-.38-5.75Zm-1.02,4.32c-.94.92-2.46.9-3.47-.05-.82-.77-1.62-1.63-2.39-2.46-.33-.36-.65-.71-.99-1.06l-3.87-4.1c-.9-.94-.74-1.62-.51-2.1.34-.72.94-1.13,2.1-1.4.19.11.38.22.58.33.62.34,1.2.66,1.62,1.07,1.79,1.78,3.56,3.68,5.26,5.51l1.22,1.31c.76.8,1.45,1.97.45,2.95Zm9-10.77l-1.09-1.18c-1.79-1.92-3.64-3.91-5.55-5.79-.62-.61-1.36-1.01-2.08-1.39-.29-.15-.58-.3-.85-.47l-.34-.2-.39.08c-1.45.3-3.04.86-3.84,2.66-.46,1.04-.67,2.63.94,4.31.49.51.97,1.02,1.45,1.54.39.41.77.82,1.16,1.23.44.46.87.92,1.31,1.39,1.09,1.17,2.23,2.38,3.41,3.52.87.83,2,1.25,3.11,1.25s2.3-.44,3.15-1.32c1.54-1.58,1.39-3.74-.39-5.63Zm-1.04,4.23c-.91.93-2.48.95-3.44.03-1.15-1.1-2.26-2.3-3.34-3.45-.44-.47-.88-.94-1.32-1.4-.38-.41-.77-.81-1.15-1.22-.48-.52-.97-1.04-1.47-1.56-.9-.94-.77-1.62-.55-2.11.32-.73.89-1.14,2.06-1.43.19.11.39.21.59.32.62.33,1.2.64,1.61,1.04,1.88,1.85,3.72,3.83,5.5,5.74l1.09,1.17c.72.77,1.37,1.89.42,2.87Zm1.46-39.7c-1.3-.98-2.55-1.93-3.81-2.88-7.32-5.54-14.65-11.07-21.97-16.61-2.87-2.16-4.49-2.25-7.53-.41-2.37,1.44-4.74,2.87-7.12,4.31l-3.87,2.33c-1.65,1.01-3.26,1.28-4.9.84-1.21-.33-2.42-.69-3.62-1.05-1.06-.32-2.11-.65-3.18-.98l-2.76-.86v36.31h2.94s1.89,0,1.89,0c.85,0,1.7,0,2.55,0,2.16,0,3.54-1.17,4.49-2.19,2.92-3.12,5.87-6.22,8.82-9.31,2.15-2.26,4.3-4.51,6.44-6.78,1.76-1.86,3.68-2.48,5.91-1.9,1.04.27,2.05.75,3.12,1.26l.71.34c.91.42,1.8.88,2.69,1.34,1.77.92,3.61,1.87,5.56,2.5,5.26,1.72,10.35.51,15.15-3.58l.95-.81-2.46-1.87Zm-13.02,4.36c-1.79-.59-3.48-1.46-5.26-2.38-.92-.47-1.84-.95-2.77-1.38l-.69-.32c-1.1-.53-2.25-1.08-3.48-1.4-2.95-.77-5.59.06-7.86,2.47-2.14,2.26-4.29,4.51-6.44,6.77-2.95,3.1-5.91,6.2-8.83,9.32-1.02,1.09-1.93,1.56-3.04,1.56-1.47,0-2.94,0-4.43,0h-.94V14.01l.17.06c1.07.33,2.13.66,3.19.98,1.23.37,2.45.74,3.68,1.07,2.17.58,4.34.23,6.46-1.05l3.87-2.34c2.37-1.44,4.75-2.87,7.12-4.31,2.33-1.41,3.07-1.37,5.28.3,7.33,5.53,14.65,11.07,21.97,16.6,1.26.95,2.51,1.9,3.81,2.89l.45.34c-3.97,3.02-7.99,3.81-12.26,2.42Zm20.54,24.59l-1.18-1.26c-1.76-1.89-3.59-3.85-5.47-5.7-.62-.61-1.36-1-2.07-1.39-.29-.15-.57-.3-.85-.47l-.33-.21-.39.08c-1.38.29-3.06.85-3.86,2.68-.64,1.49-.3,3.03.95,4.31.48.5.96,1,1.43,1.51.33.35.66.7.99,1.05.46.48.92.97,1.38,1.46,1.14,1.21,2.31,2.47,3.54,3.64.83.81,1.93,1.25,3.09,1.25h.1c1.16-.03,2.28-.51,3.07-1.33,1.54-1.6,1.39-3.7-.4-5.62Zm-1.04,4.24c-.43.44-1.03.69-1.67.71-.64.02-1.29-.23-1.76-.69-1.19-1.14-2.35-2.37-3.47-3.57-.46-.49-.93-.98-1.4-1.47-.32-.35-.65-.69-.97-1.04-.48-.52-.97-1.03-1.46-1.53-.9-.93-.74-1.66-.54-2.13.31-.72.9-1.14,2.06-1.42.19.1.39.21.59.32.61.33,1.2.64,1.61,1.04,1.85,1.83,3.66,3.77,5.41,5.65l1.18,1.26c1.57,1.67.73,2.54.42,2.87Zm10.67-8.11c-.21-.34-.4-.66-.57-.95-.37-.64-.69-1.19-1.15-1.68-1.96-2.14-4.09-4.4-6.52-6.89-.47-.47-1.22-1.12-2.15-1.5-1.84-.76-4.04-.13-5.12,1.46-1.08,1.58-.82,3.43.7,5.06.97,1.04,1.94,2.06,2.92,3.08l1.12,1.19c1.01,1.06,2.04,2.16,3.11,3.21.91.9,2.04,1.37,3.15,1.37.74,0,1.46-.2,2.11-.63.7-.45,1.21-1.11,1.69-1.75.2-.26.4-.52.63-.78l.49-.56-.41-.63Zm-2.3.76c-.41.55-.77,1.02-1.19,1.29-.82.53-1.93.33-2.77-.49-1.04-1.03-2.06-2.11-3.05-3.16l-1.13-1.2c-.97-1.01-1.94-2.03-2.9-3.06-1.18-1.26-.86-2.07-.52-2.57.4-.58,1.11-.91,1.84-.91.29,0,.59.05.86.16.49.21,1.02.58,1.48,1.06,2.42,2.47,4.54,4.71,6.49,6.84.31.34.57.78.89,1.34.08.13.16.26.24.4-.08.1-.16.2-.24.3Zm6.95-31.86v-7.67c0-.33-.02-.67-.03-.97l-.09-1.7-1.28.49c-.93.35-1.84.71-2.74,1.07-2.04.8-3.96,1.57-5.95,2.19-3.93,1.22-7.24.57-10.1-1.98-1.67-1.49-3.48-2.86-5.23-4.19-1.17-.9-2.39-1.82-3.55-2.77-2.06-1.69-3.82-1.11-4.94-.33-1.36.94-2.63,1.93-3.98,2.98-.57.44-1.14.88-1.72,1.33l-1.05.79,11.74,8.88,11.22,8.49c.81.61.95,1.01.96,1.19.02.27-.24.6-.46.82-4.27,4.25-11.25,8.59-20.31,5.12-2.15-.83-4.25-2-6.28-3.13-.54-.3-1.08-.6-1.62-.9-2.96-1.61-4.88-1.35-7.08.97-3.95,4.16-7.91,8.31-11.87,12.47l-5.4,5.67.39.66c.15.26.32.52.49.78.36.54.69,1.06.91,1.59.87,2.09,2.35,3.51,4.53,4.33,2.22.84,3.84,2.38,4.8,4.58.89,2.03,2.19,3.36,4,4.07,2.64,1.05,4.39,2.76,5.51,5.4.9,2.1,2.88,3.3,5.11,3.3.85,0,1.74-.17,2.61-.54l1.33-.55-.99-1.05c-.43-.46-.87-.92-1.3-1.37-.95-1.01-1.86-1.95-2.73-2.95-1.38-1.57-1.86-3.55-1.33-5.45.53-1.89,1.97-3.34,3.96-3.97.55-.17,1.16-.25,1.81-.33.34-.05.69-.09,1.03-.15l.69-.11.13-.69c.72-3.74,2.99-5.57,6.95-5.61h.82s.15-.81.15-.81c.73-3.82,2.93-5.63,6.91-5.69h.72s.22-.7.22-.7c.09-.29.17-.57.25-.85.15-.53.28-1,.47-1.41.83-1.8,2.47-3.05,4.5-3.42,2.12-.4,4.3.26,5.83,1.76,1.38,1.34,2.72,2.78,4.01,4.17.59.63,1.18,1.26,1.77,1.87l.6.63.7-.5c.36-.26.72-.52,1.06-.79.76-.57,1.48-1.11,2.25-1.52,1.44-.78,1.63-1.9,1.62-2.9-.02-6.86-.02-13.73-.02-20.6Zm-2.56,21.74c-.89.48-1.71,1.09-2.49,1.69-.11.08-.21.16-.32.23-.38-.4-.76-.81-1.14-1.22-1.31-1.4-2.67-2.85-4.09-4.23-1.99-1.95-4.83-2.81-7.59-2.3-2.68.5-4.84,2.16-5.95,4.55-.25.56-.42,1.14-.58,1.71,0,.04-.02.08-.03.12-4.25.29-6.91,2.47-7.93,6.5-4.21.28-6.94,2.51-7.94,6.5-.1.02-.19.03-.29.04-.71.09-1.45.19-2.16.41-2.61.83-4.58,2.82-5.29,5.35-.7,2.52-.05,5.25,1.75,7.3.91,1.03,1.87,2.03,2.8,3.01.04.04.07.08.11.12-1.58.12-2.98-.63-3.59-2.07-1.33-3.12-3.49-5.24-6.62-6.48-1.3-.51-2.22-1.47-2.89-3.01-1.19-2.71-3.19-4.62-5.94-5.65-1.66-.62-2.73-1.65-3.38-3.22-.29-.71-.69-1.32-1.08-1.92-.02-.03-.03-.06-.05-.08l4.34-4.56c3.96-4.16,7.91-8.31,11.87-12.47,1.56-1.65,2.52-1.76,4.67-.59.53.29,1.07.59,1.6.89,2.09,1.16,4.26,2.37,6.54,3.25,7.97,3.05,15.73,1.12,22.44-5.57.75-.75,1.11-1.55,1.05-2.38-.06-.93-.64-1.8-1.75-2.64-3.74-2.84-7.49-5.66-11.23-8.49l-9.64-7.29c.23-.18.47-.36.7-.54,1.32-1.03,2.58-2.01,3.89-2.92.6-.42,1.37-.72,2.54.24,1.18.97,2.41,1.91,3.6,2.81,1.72,1.31,3.49,2.65,5.11,4.09,3.38,3.02,7.43,3.82,12.02,2.4,2.07-.65,4.11-1.46,6.09-2.24.47-.19.94-.38,1.41-.56v7.48c0,6.87,0,13.74.02,20.61,0,.72-.11.87-.58,1.13ZM117.19,4.23c-2.93-.01-5.85-.01-8.77,0-2.49.01-3.65,1.17-3.65,3.65,0,13.75,0,27.51,0,41.26,0,2.52,1.2,3.7,3.75,3.72,1.23,0,2.46,0,3.69,0h4.66c2.97,0,4.03-1.05,4.03-3.97v-26.08c0-4.97,0-9.94,0-14.91,0-2.57-1.11-3.67-3.71-3.68Zm1.71,18.59v26.07c0,1.81-.17,1.97-2.04,1.98h-1.28c-2.35,0-4.7.01-7.04,0-1.47-.01-1.77-.3-1.77-1.72,0-13.75,0-27.51,0-41.26,0-1.37.28-1.64,1.66-1.65,1.39,0,2.77-.01,4.16-.01,1.53,0,3.06.01,4.59.01s1.72.21,1.72,1.69c0,4.96,0,9.93,0,14.9Zm-1.71-18.59c-2.93-.01-5.85-.01-8.77,0-2.49.01-3.65,1.17-3.65,3.65,0,13.75,0,27.51,0,41.26,0,2.52,1.2,3.7,3.75,3.72,1.23,0,2.46,0,3.69,0h4.66c2.97,0,4.03-1.05,4.03-3.97v-26.08c0-4.97,0-9.94,0-14.91,0-2.57-1.11-3.67-3.71-3.68Zm1.71,18.59v26.07c0,1.81-.17,1.97-2.04,1.98h-1.28c-2.35,0-4.7.01-7.04,0-1.47-.01-1.77-.3-1.77-1.72,0-13.75,0-27.51,0-41.26,0-1.37.28-1.64,1.66-1.65,1.39,0,2.77-.01,4.16-.01,1.53,0,3.06.01,4.59.01s1.72.21,1.72,1.69c0,4.96,0,9.93,0,14.9Zm-16.12-9.9c0-.33-.02-.67-.03-.97l-.09-1.7-1.28.49c-.93.35-1.84.71-2.74,1.07-2.04.8-3.96,1.57-5.95,2.19-3.93,1.22-7.24.57-10.1-1.98-1.67-1.49-3.48-2.86-5.23-4.19-1.17-.9-2.39-1.82-3.55-2.77-2.06-1.69-3.82-1.11-4.94-.33-1.36.94-2.63,1.93-3.98,2.98-.57.44-1.14.88-1.72,1.33l-1.05.79,11.74,8.88,11.22,8.49c.81.61.95,1.01.96,1.19.02.27-.24.6-.46.82-4.27,4.25-11.25,8.59-20.31,5.12-2.15-.83-4.25-2-6.28-3.13-.54-.3-1.08-.6-1.62-.9-2.96-1.61-4.88-1.35-7.08.97-3.95,4.16-7.91,8.31-11.87,12.47l-5.4,5.67.39.66c.15.26.32.52.49.78.36.54.69,1.06.91,1.59.87,2.09,2.35,3.51,4.53,4.33,2.22.84,3.84,2.38,4.8,4.58.89,2.03,2.19,3.36,4,4.07,2.64,1.05,4.39,2.76,5.51,5.4.9,2.1,2.88,3.3,5.11,3.3.85,0,1.74-.17,2.61-.54l1.33-.55-.99-1.05c-.43-.46-.87-.92-1.3-1.37-.95-1.01-1.86-1.95-2.73-2.95-1.38-1.57-1.86-3.55-1.33-5.45.53-1.89,1.97-3.34,3.96-3.97.55-.17,1.16-.25,1.81-.33.34-.05.69-.09,1.03-.15l.69-.11.13-.69c.72-3.74,2.99-5.57,6.95-5.61h.82s.15-.81.15-.81c.73-3.82,2.93-5.63,6.91-5.69h.72s.22-.7.22-.7c.09-.29.17-.57.25-.85.15-.53.28-1,.47-1.41.83-1.8,2.47-3.05,4.5-3.42,2.12-.4,4.3.26,5.83,1.76,1.38,1.34,2.72,2.78,4.01,4.17.59.63,1.18,1.26,1.77,1.87l.6.63.7-.5c.36-.26.72-.52,1.06-.79.76-.57,1.48-1.11,2.25-1.52,1.44-.78,1.63-1.9,1.62-2.9-.02-6.86-.02-13.73-.02-20.6v-7.67Zm-2.56,29.41c-.89.48-1.71,1.09-2.49,1.69-.11.08-.21.16-.32.23-.38-.4-.76-.81-1.14-1.22-1.31-1.4-2.67-2.85-4.09-4.23-1.99-1.95-4.83-2.81-7.59-2.3-2.68.5-4.84,2.16-5.95,4.55-.25.56-.42,1.14-.58,1.71,0,.04-.02.08-.03.12-4.25.29-6.91,2.47-7.93,6.5-4.21.28-6.94,2.51-7.94,6.5-.1.02-.19.03-.29.04-.71.09-1.45.19-2.16.41-2.61.83-4.58,2.82-5.29,5.35-.7,2.52-.05,5.25,1.75,7.3.91,1.03,1.87,2.03,2.8,3.01.04.04.07.08.11.12-1.58.12-2.98-.63-3.59-2.07-1.33-3.12-3.49-5.24-6.62-6.48-1.3-.51-2.22-1.47-2.89-3.01-1.19-2.71-3.19-4.62-5.94-5.65-1.66-.62-2.73-1.65-3.38-3.22-.29-.71-.69-1.32-1.08-1.92-.02-.03-.03-.06-.05-.08l4.34-4.56c3.96-4.16,7.91-8.31,11.87-12.47,1.56-1.65,2.52-1.76,4.67-.59.53.29,1.07.59,1.6.89,2.09,1.16,4.26,2.37,6.54,3.25,7.97,3.05,15.73,1.12,22.44-5.57.75-.75,1.11-1.55,1.05-2.38-.06-.93-.64-1.8-1.75-2.64-3.74-2.84-7.49-5.66-11.23-8.49l-9.64-7.29c.23-.18.47-.36.7-.54,1.32-1.03,2.58-2.01,3.89-2.92.6-.42,1.37-.72,2.54.24,1.18.97,2.41,1.91,3.6,2.81,1.72,1.31,3.49,2.65,5.11,4.09,3.38,3.02,7.43,3.82,12.02,2.4,2.07-.65,4.11-1.46,6.09-2.24.47-.19.94-.38,1.41-.56v7.48c0,6.87,0,13.74.02,20.61,0,.72-.11.87-.58,1.13Zm-2.66,8.41c-.37-.64-.69-1.19-1.15-1.68-1.96-2.14-4.09-4.4-6.52-6.89-.47-.47-1.22-1.12-2.15-1.5-1.84-.76-4.04-.13-5.12,1.46-1.08,1.58-.82,3.43.7,5.06.97,1.04,1.94,2.06,2.92,3.08l1.12,1.19c1.01,1.06,2.04,2.16,3.11,3.21.91.9,2.04,1.37,3.15,1.37.74,0,1.46-.2,2.11-.63.7-.45,1.21-1.11,1.69-1.75.2-.26.4-.52.63-.78l.49-.56-.41-.63c-.21-.34-.4-.66-.57-.95Zm-1.73,1.71c-.41.55-.77,1.02-1.19,1.29-.82.53-1.93.33-2.77-.49-1.04-1.03-2.06-2.11-3.05-3.16l-1.13-1.2c-.97-1.01-1.94-2.03-2.9-3.06-1.18-1.26-.86-2.07-.52-2.57.4-.58,1.11-.91,1.84-.91.29,0,.59.05.86.16.49.21,1.02.58,1.48,1.06,2.42,2.47,4.54,4.71,6.49,6.84.31.34.57.78.89,1.34.08.13.16.26.24.4-.08.1-.16.2-.24.3Zm-8.51,1.85c-1.76-1.89-3.59-3.85-5.47-5.7-.62-.61-1.36-1-2.07-1.39-.29-.15-.57-.3-.85-.47l-.33-.21-.39.08c-1.38.29-3.06.85-3.86,2.68-.64,1.49-.3,3.03.95,4.31.48.5.96,1,1.43,1.51.33.35.66.7.99,1.05.46.48.92.97,1.38,1.46,1.14,1.21,2.31,2.47,3.54,3.64.83.81,1.93,1.25,3.09,1.25h.1c1.16-.03,2.28-.51,3.07-1.33,1.54-1.6,1.39-3.7-.4-5.62l-1.18-1.26Zm.14,5.5c-.43.44-1.03.69-1.67.71-.64.02-1.29-.23-1.76-.69-1.19-1.14-2.35-2.37-3.47-3.57-.46-.49-.93-.98-1.4-1.47-.32-.35-.65-.69-.97-1.04-.48-.52-.97-1.03-1.46-1.53-.9-.93-.74-1.66-.54-2.13.31-.72.9-1.14,2.06-1.42.19.1.39.21.59.32.61.33,1.2.64,1.61,1.04,1.85,1.83,3.66,3.77,5.41,5.65l1.18,1.26c1.57,1.67.73,2.54.42,2.87Zm-53.37-14.38c2.92-3.12,5.87-6.22,8.82-9.31,2.15-2.26,4.3-4.51,6.44-6.78,1.76-1.86,3.68-2.48,5.91-1.9,1.04.27,2.05.75,3.12,1.26l.71.34c.91.42,1.8.88,2.69,1.34,1.77.92,3.61,1.87,5.56,2.5,5.26,1.72,10.35.51,15.15-3.58l.95-.81-2.46-1.87c-1.3-.98-2.55-1.93-3.81-2.88-7.32-5.54-14.65-11.07-21.97-16.61-2.87-2.16-4.49-2.25-7.53-.41-2.37,1.44-4.74,2.87-7.12,4.31l-3.87,2.33c-1.65,1.01-3.26,1.28-4.9.84-1.21-.33-2.42-.69-3.62-1.05-1.06-.32-2.11-.65-3.18-.98l-2.76-.86v36.31h2.94s1.89,0,1.89,0c.85,0,1.7,0,2.55,0,2.16,0,3.54-1.17,4.49-2.19Zm-4.5.19c-1.47,0-2.94,0-4.43,0h-.94V14.01l.17.06c1.07.33,2.13.66,3.19.98,1.23.37,2.45.74,3.68,1.07,2.17.58,4.34.23,6.46-1.05l3.87-2.34c2.37-1.44,4.75-2.87,7.12-4.31,2.33-1.41,3.07-1.37,5.28.3,7.33,5.53,14.65,11.07,21.97,16.6,1.26.95,2.51,1.9,3.81,2.89l.45.34c-3.97,3.02-7.99,3.81-12.26,2.42-1.79-.59-3.48-1.46-5.26-2.38-.92-.47-1.84-.95-2.77-1.38l-.69-.32c-1.1-.53-2.25-1.08-3.48-1.4-2.95-.77-5.59.06-7.86,2.47-2.14,2.26-4.29,4.51-6.44,6.77-2.95,3.1-5.91,6.2-8.83,9.32-1.02,1.09-1.93,1.56-3.04,1.56Zm49.88,15.29c-1.79-1.92-3.64-3.91-5.55-5.79-.62-.61-1.36-1.01-2.08-1.39-.29-.15-.58-.3-.85-.47l-.34-.2-.39.08c-1.45.3-3.04.86-3.84,2.66-.46,1.04-.67,2.63.94,4.31.49.51.97,1.02,1.45,1.54.39.41.77.82,1.16,1.23.44.46.87.92,1.31,1.39,1.09,1.17,2.23,2.38,3.41,3.52.87.83,2,1.25,3.11,1.25s2.3-.44,3.15-1.32c1.54-1.58,1.39-3.74-.39-5.63l-1.09-1.18Zm.05,5.41c-.91.93-2.48.95-3.44.03-1.15-1.1-2.26-2.3-3.34-3.45-.44-.47-.88-.94-1.32-1.4-.38-.41-.77-.81-1.15-1.22-.48-.52-.97-1.04-1.47-1.56-.9-.94-.77-1.62-.55-2.11.32-.73.89-1.14,2.06-1.43.19.11.39.21.59.32.62.33,1.2.64,1.61,1.04,1.88,1.85,3.72,3.83,5.5,5.74l1.09,1.17c.72.77,1.37,1.89.42,2.87Zm-8.17.91c-1.71-1.84-3.49-3.75-5.32-5.56-.61-.61-1.34-1.01-2.05-1.4-.29-.16-.57-.31-.85-.49l-.33-.2-.39.07c-1.36.26-3.03.79-3.89,2.58-.7,1.46-.39,3.01.87,4.34l3.87,4.1c.33.34.65.69.98,1.04.79.85,1.6,1.74,2.48,2.56.9.85,2.04,1.27,3.16,1.27s2.23-.42,3.08-1.25c1.58-1.56,1.43-3.81-.38-5.75l-1.23-1.31Zm.21,5.63c-.94.92-2.46.9-3.47-.05-.82-.77-1.62-1.63-2.39-2.46-.33-.36-.65-.71-.99-1.06l-3.87-4.1c-.9-.94-.74-1.62-.51-2.1.34-.72.94-1.13,2.1-1.4.19.11.38.22.58.33.62.34,1.2.66,1.62,1.07,1.79,1.78,3.56,3.68,5.26,5.51l1.22,1.31c.76.8,1.45,1.97.45,2.95ZM16.38,4.23H7.9c-2.78,0-3.87,1.07-3.87,3.81v25.99c0,5.04,0,10.08,0,15.12,0,2.55,1.14,3.69,3.71,3.71,1.46,0,2.92,0,4.37,0s2.84,0,4.26,0c2.56-.02,3.76-1.2,3.76-3.71.01-13.75.01-27.5,0-41.25,0-2.53-1.16-3.66-3.76-3.67Zm1.76,44.92c0,1.41-.3,1.7-1.77,1.71-2.87.02-5.74.02-8.61,0-1.48-.01-1.72-.25-1.72-1.71,0-5.04,0-10.08,0-15.12V8.05c0-1.65.18-1.82,1.87-1.82h8.47c1.51.01,1.77.26,1.77,1.68.01,13.74.01,27.49,0,41.24ZM124.88,7.27c-.01-4.03-3.01-6.98-7.12-7-3.26-.03-6.51-.02-9.77,0-3.47.02-6.03,2-7.01,5.44-.08.29-.22.53-.22.55l-1.56.68c-2.74,1.18-5.56,2.4-8.4,3.38-1.9.65-3.69.28-5.33-1.13-1.39-1.18-2.85-2.3-4.27-3.38-1.49-1.14-3.04-2.32-4.46-3.56-3.46-3-7.62-3-11.4,0-.51.41-1.03.82-1.55,1.22-1.03.8-2.09,1.64-3.12,2.5-.11.09-.17.13-.18.15-.04-.02-.11-.06-.23-.16-1.07-.88-2.35-1.89-3.71-2.77-3.5-2.28-6.98-2.38-10.34-.28-1.78,1.11-3.57,2.18-5.37,3.26-1.88,1.13-3.83,2.29-5.73,3.48-1.13.71-2.16.83-3.45.4-2.42-.81-4.79-1.59-7.16-2.27-.25-.06-.32-.12-.32-.12,0-.01-.05-.1-.06-.41-.12-4.08-3.05-6.95-7.13-6.99-2.55-.01-5.1-.01-7.65,0h-1.69C2.88.27.02,3.13,0,7.92c0,10.29,0,20.57,0,30.86v10.28c0,.4,0,.81.05,1.21.3,3.75,3.22,6.51,6.93,6.56,3.47.05,6.91.05,10.21,0,2.97-.05,5.2-1.44,5.96-3.72.49-1.47,1.06-1.54,2.73-1.37.54.06.97.06,1.37.01,1.87-.26,3.11.54,4.02,2.58,1.32,2.95,3.48,5,6.44,6.1,1.33.49,2.23,1.3,2.68,2.39,1.28,3.09,3.59,5.32,6.87,6.64,1.12.45,1.9,1.24,2.46,2.49,2.49,5.52,8.1,7.67,13.63,5.21.38-.17.41-.18.77.14,1.62,1.44,3.68,2.2,5.77,2.2.98,0,1.97-.17,2.93-.51,2.75-.99,4.66-3.23,5.16-6.01,4.38-.4,6.35-2.02,7.91-6.48,4.22-.3,6.95-2.55,7.97-6.54.19,0,.39,0,.58-.02,2.56-.2,4.82-1.51,6.2-3.62.59-.91.98-1.91,1.15-2.94,1.23,2.19,3.53,3.45,6.59,3.46,3.07,0,6.13.02,9.2,0,4.29-.04,7.3-2.97,7.31-7.15.04-14.32.04-28.59,0-42.42Zm-16.49,47.57c-3.55-.01-5.59-2.06-5.6-5.62v-3.37l-1.42.64c-1.91.86-2.44,2.04-1.79,3.95.56,1.6.33,3.34-.62,4.79-1.03,1.58-2.74,2.57-4.67,2.72-.26.02-.51.01-.77,0h-1.3l-.15.82c-.71,3.85-2.92,5.68-6.93,5.76l-.71.02-.22.68c-1.42,4.4-2.8,5.55-7.04,5.81l-.66.04-.27.72c-.07.17-.16.39-.21.67-.32,2.14-1.78,3.87-3.89,4.64-2.29.83-4.86.33-6.69-1.3-.58-.51-1.13-.76-1.73-.76-.37,0-.75.09-1.18.28-4.54,2.02-8.95.32-10.99-4.21-.78-1.72-1.94-2.87-3.55-3.52-2.8-1.12-4.68-2.94-5.76-5.54-.67-1.63-1.96-2.81-3.84-3.51-2.46-.91-4.2-2.56-5.3-5.03-1.6-3.58-4.21-4.02-6.12-3.76-.23.04-.52.03-.89-.01-1.51-.15-3.8-.39-4.84,2.73-.71,2.13-3.31,2.33-4.09,2.35-3.29.05-6.7.05-10.15,0-2.66-.04-4.75-2.02-4.97-4.72-.03-.35-.04-.7-.04-1.05v-10.28c0-10.29,0-20.57,0-30.86,0-3.7,1.96-5.65,5.64-5.66h1.69c2.55-.01,5.09-.01,7.63,0,3,.03,5.07,2.06,5.15,5.05.04,1.33.59,2.04,1.83,2.4,2.33.66,4.68,1.44,7.08,2.23,1.84.62,3.52.42,5.14-.59,1.88-1.18,3.82-2.34,5.7-3.47,1.81-1.08,3.61-2.16,5.4-3.27,2.72-1.7,5.32-1.62,8.19.25,1.28.83,2.5,1.81,3.53,2.65,1.01.82,1.98.82,2.97-.01,1-.84,2.05-1.66,3.06-2.45.53-.41,1.05-.82,1.57-1.23,2.11-1.69,5.37-3.07,8.84-.06,1.47,1.29,3.04,2.48,4.56,3.64,1.39,1.07,2.83,2.17,4.18,3.31,2.18,1.87,4.7,2.39,7.29,1.5,2.9-1,5.76-2.24,8.53-3.44l1.56-.67c.85-.37,1.23-1.41,1.35-1.84.74-2.6,2.51-3.98,5.1-3.99,3.25-.02,6.5-.03,9.74,0,3.06.02,5.13,2.03,5.14,5.01.05,13.82.05,28.08,0,42.41,0,3.1-2.1,5.12-5.33,5.15-3.06.02-6.12,0-9.17,0Zm8.8-50.61c-2.93-.01-5.85-.01-8.77,0-2.49.01-3.65,1.17-3.65,3.65,0,13.75,0,27.51,0,41.26,0,2.52,1.2,3.7,3.75,3.72,1.23,0,2.46,0,3.69,0h4.66c2.97,0,4.03-1.05,4.03-3.97v-26.08c0-4.97,0-9.94,0-14.91,0-2.57-1.11-3.67-3.71-3.68Zm1.71,18.59v26.07c0,1.81-.17,1.97-2.04,1.98h-1.28c-2.35,0-4.7.01-7.04,0-1.47-.01-1.77-.3-1.77-1.72,0-13.75,0-27.51,0-41.26,0-1.37.28-1.64,1.66-1.65,1.39,0,2.77-.01,4.16-.01,1.53,0,3.06.01,4.59.01s1.72.21,1.72,1.69c0,4.96,0,9.93,0,14.9Zm-16.12-9.9c0-.33-.02-.67-.03-.97l-.09-1.7-1.28.49c-.93.35-1.84.71-2.74,1.07-2.04.8-3.96,1.57-5.95,2.19-3.93,1.22-7.24.57-10.1-1.98-1.67-1.49-3.48-2.86-5.23-4.19-1.17-.9-2.39-1.82-3.55-2.77-2.06-1.69-3.82-1.11-4.94-.33-1.36.94-2.63,1.93-3.98,2.98-.57.44-1.14.88-1.72,1.33l-1.05.79,11.74,8.88,11.22,8.49c.81.61.95,1.01.96,1.19.02.27-.24.6-.46.82-4.27,4.25-11.25,8.59-20.31,5.12-2.15-.83-4.25-2-6.28-3.13-.54-.3-1.08-.6-1.62-.9-2.96-1.61-4.88-1.35-7.08.97-3.95,4.16-7.91,8.31-11.87,12.47l-5.4,5.67.39.66c.15.26.32.52.49.78.36.54.69,1.06.91,1.59.87,2.09,2.35,3.51,4.53,4.33,2.22.84,3.84,2.38,4.8,4.58.89,2.03,2.19,3.36,4,4.07,2.64,1.05,4.39,2.76,5.51,5.4.9,2.1,2.88,3.3,5.11,3.3.85,0,1.74-.17,2.61-.54l1.33-.55-.99-1.05c-.43-.46-.87-.92-1.3-1.37-.95-1.01-1.86-1.95-2.73-2.95-1.38-1.57-1.86-3.55-1.33-5.45.53-1.89,1.97-3.34,3.96-3.97.55-.17,1.16-.25,1.81-.33.34-.05.69-.09,1.03-.15l.69-.11.13-.69c.72-3.74,2.99-5.57,6.95-5.61h.82s.15-.81.15-.81c.73-3.82,2.93-5.63,6.91-5.69h.72s.22-.7.22-.7c.09-.29.17-.57.25-.85.15-.53.28-1,.47-1.41.83-1.8,2.47-3.05,4.5-3.42,2.12-.4,4.3.26,5.83,1.76,1.38,1.34,2.72,2.78,4.01,4.17.59.63,1.18,1.26,1.77,1.87l.6.63.7-.5c.36-.26.72-.52,1.06-.79.76-.57,1.48-1.11,2.25-1.52,1.44-.78,1.63-1.9,1.62-2.9-.02-6.86-.02-13.73-.02-20.6v-7.67Zm-2.56,29.41c-.89.48-1.71,1.09-2.49,1.69-.11.08-.21.16-.32.23-.38-.4-.76-.81-1.14-1.22-1.31-1.4-2.67-2.85-4.09-4.23-1.99-1.95-4.83-2.81-7.59-2.3-2.68.5-4.84,2.16-5.95,4.55-.25.56-.42,1.14-.58,1.71,0,.04-.02.08-.03.12-4.25.29-6.91,2.47-7.93,6.5-4.21.28-6.94,2.51-7.94,6.5-.1.02-.19.03-.29.04-.71.09-1.45.19-2.16.41-2.61.83-4.58,2.82-5.29,5.35-.7,2.52-.05,5.25,1.75,7.3.91,1.03,1.87,2.03,2.8,3.01.04.04.07.08.11.12-1.58.12-2.98-.63-3.59-2.07-1.33-3.12-3.49-5.24-6.62-6.48-1.3-.51-2.22-1.47-2.89-3.01-1.19-2.71-3.19-4.62-5.94-5.65-1.66-.62-2.73-1.65-3.38-3.22-.29-.71-.69-1.32-1.08-1.92-.02-.03-.03-.06-.05-.08l4.34-4.56c3.96-4.16,7.91-8.31,11.87-12.47,1.56-1.65,2.52-1.76,4.67-.59.53.29,1.07.59,1.6.89,2.09,1.16,4.26,2.37,6.54,3.25,7.97,3.05,15.73,1.12,22.44-5.57.75-.75,1.11-1.55,1.05-2.38-.06-.93-.64-1.8-1.75-2.64-3.74-2.84-7.49-5.66-11.23-8.49l-9.64-7.29c.23-.18.47-.36.7-.54,1.32-1.03,2.58-2.01,3.89-2.92.6-.42,1.37-.72,2.54.24,1.18.97,2.41,1.91,3.6,2.81,1.72,1.31,3.49,2.65,5.11,4.09,3.38,3.02,7.43,3.82,12.02,2.4,2.07-.65,4.11-1.46,6.09-2.24.47-.19.94-.38,1.41-.56v7.48c0,6.87,0,13.74.02,20.61,0,.72-.11.87-.58,1.13Zm-2.66,8.41c-.37-.64-.69-1.19-1.15-1.68-1.96-2.14-4.09-4.4-6.52-6.89-.47-.47-1.22-1.12-2.15-1.5-1.84-.76-4.04-.13-5.12,1.46-1.08,1.58-.82,3.43.7,5.06.97,1.04,1.94,2.06,2.92,3.08l1.12,1.19c1.01,1.06,2.04,2.16,3.11,3.21.91.9,2.04,1.37,3.15,1.37.74,0,1.46-.2,2.11-.63.7-.45,1.21-1.11,1.69-1.75.2-.26.4-.52.63-.78l.49-.56-.41-.63c-.21-.34-.4-.66-.57-.95Zm-1.73,1.71c-.41.55-.77,1.02-1.19,1.29-.82.53-1.93.33-2.77-.49-1.04-1.03-2.06-2.11-3.05-3.16l-1.13-1.2c-.97-1.01-1.94-2.03-2.9-3.06-1.18-1.26-.86-2.07-.52-2.57.4-.58,1.11-.91,1.84-.91.29,0,.59.05.86.16.49.21,1.02.58,1.48,1.06,2.42,2.47,4.54,4.71,6.49,6.84.31.34.57.78.89,1.34.08.13.16.26.24.4-.08.1-.16.2-.24.3Zm-8.51,1.85c-1.76-1.89-3.59-3.85-5.47-5.7-.62-.61-1.36-1-2.07-1.39-.29-.15-.57-.3-.85-.47l-.33-.21-.39.08c-1.38.29-3.06.85-3.86,2.68-.64,1.49-.3,3.03.95,4.31.48.5.96,1,1.43,1.51.33.35.66.7.99,1.05.46.48.92.97,1.38,1.46,1.14,1.21,2.31,2.47,3.54,3.64.83.81,1.93,1.25,3.09,1.25h.1c1.16-.03,2.28-.51,3.07-1.33,1.54-1.6,1.39-3.7-.4-5.62l-1.18-1.26Zm.14,5.5c-.43.44-1.03.69-1.67.71-.64.02-1.29-.23-1.76-.69-1.19-1.14-2.35-2.37-3.47-3.57-.46-.49-.93-.98-1.4-1.47-.32-.35-.65-.69-.97-1.04-.48-.52-.97-1.03-1.46-1.53-.9-.93-.74-1.66-.54-2.13.31-.72.9-1.14,2.06-1.42.19.1.39.21.59.32.61.33,1.2.64,1.61,1.04,1.85,1.83,3.66,3.77,5.41,5.65l1.18,1.26c1.57,1.67.73,2.54.42,2.87Zm-53.37-14.38c2.92-3.12,5.87-6.22,8.82-9.31,2.15-2.26,4.3-4.51,6.44-6.78,1.76-1.86,3.68-2.48,5.91-1.9,1.04.27,2.05.75,3.12,1.26l.71.34c.91.42,1.8.88,2.69,1.34,1.77.92,3.61,1.87,5.56,2.5,5.26,1.72,10.35.51,15.15-3.58l.95-.81-2.46-1.87c-1.3-.98-2.55-1.93-3.81-2.88-7.32-5.54-14.65-11.07-21.97-16.61-2.87-2.16-4.49-2.25-7.53-.41-2.37,1.44-4.74,2.87-7.12,4.31l-3.87,2.33c-1.65,1.01-3.26,1.28-4.9.84-1.21-.33-2.42-.69-3.62-1.05-1.06-.32-2.11-.65-3.18-.98l-2.76-.86v36.31h2.94s1.89,0,1.89,0c.85,0,1.7,0,2.55,0,2.16,0,3.54-1.17,4.49-2.19Zm-4.5.19c-1.47,0-2.94,0-4.43,0h-.94V14.01l.17.06c1.07.33,2.13.66,3.19.98,1.23.37,2.45.74,3.68,1.07,2.17.58,4.34.23,6.46-1.05l3.87-2.34c2.37-1.44,4.75-2.87,7.12-4.31,2.33-1.41,3.07-1.37,5.28.3,7.33,5.53,14.65,11.07,21.97,16.6,1.26.95,2.51,1.9,3.81,2.89l.45.34c-3.97,3.02-7.99,3.81-12.26,2.42-1.79-.59-3.48-1.46-5.26-2.38-.92-.47-1.84-.95-2.77-1.38l-.69-.32c-1.1-.53-2.25-1.08-3.48-1.4-2.95-.77-5.59.06-7.86,2.47-2.14,2.26-4.29,4.51-6.44,6.77-2.95,3.1-5.91,6.2-8.83,9.32-1.02,1.09-1.93,1.56-3.04,1.56Zm49.88,15.29c-1.79-1.92-3.64-3.91-5.55-5.79-.62-.61-1.36-1.01-2.08-1.39-.29-.15-.58-.3-.85-.47l-.34-.2-.39.08c-1.45.3-3.04.86-3.84,2.66-.46,1.04-.67,2.63.94,4.31.49.51.97,1.02,1.45,1.54.39.41.77.82,1.16,1.23.44.46.87.92,1.31,1.39,1.09,1.17,2.23,2.38,3.41,3.52.87.83,2,1.25,3.11,1.25s2.3-.44,3.15-1.32c1.54-1.58,1.39-3.74-.39-5.63l-1.09-1.18Zm.05,5.41c-.91.93-2.48.95-3.44.03-1.15-1.1-2.26-2.3-3.34-3.45-.44-.47-.88-.94-1.32-1.4-.38-.41-.77-.81-1.15-1.22-.48-.52-.97-1.04-1.47-1.56-.9-.94-.77-1.62-.55-2.11.32-.73.89-1.14,2.06-1.43.19.11.39.21.59.32.62.33,1.2.64,1.61,1.04,1.88,1.85,3.72,3.83,5.5,5.74l1.09,1.17c.72.77,1.37,1.89.42,2.87Zm-8.17.91c-1.71-1.84-3.49-3.75-5.32-5.56-.61-.61-1.34-1.01-2.05-1.4-.29-.16-.57-.31-.85-.49l-.33-.2-.39.07c-1.36.26-3.03.79-3.89,2.58-.7,1.46-.39,3.01.87,4.34l3.87,4.1c.33.34.65.69.98,1.04.79.85,1.6,1.74,2.48,2.56.9.85,2.04,1.27,3.16,1.27s2.23-.42,3.08-1.25c1.58-1.56,1.43-3.81-.38-5.75l-1.23-1.31Zm.21,5.63c-.94.92-2.46.9-3.47-.05-.82-.77-1.62-1.63-2.39-2.46-.33-.36-.65-.71-.99-1.06l-3.87-4.1c-.9-.94-.74-1.62-.51-2.1.34-.72.94-1.13,2.1-1.4.19.11.38.22.58.33.62.34,1.2.66,1.62,1.07,1.79,1.78,3.56,3.68,5.26,5.51l1.22,1.31c.76.8,1.45,1.97.45,2.95ZM16.38,4.23H7.9c-2.78,0-3.87,1.07-3.87,3.81v25.99c0,5.04,0,10.08,0,15.12,0,2.55,1.14,3.69,3.71,3.71,1.46,0,2.92,0,4.37,0s2.84,0,4.26,0c2.56-.02,3.76-1.2,3.76-3.71.01-13.75.01-27.5,0-41.25,0-2.53-1.16-3.66-3.76-3.67Zm1.76,44.92c0,1.41-.3,1.7-1.77,1.71-2.87.02-5.74.02-8.61,0-1.48-.01-1.72-.25-1.72-1.71,0-5.04,0-10.08,0-15.12V8.05c0-1.65.18-1.82,1.87-1.82h8.47c1.51.01,1.77.26,1.77,1.68.01,13.74.01,27.49,0,41.24Zm-1.76-44.92H7.9c-2.78,0-3.87,1.07-3.87,3.81v25.99c0,5.04,0,10.08,0,15.12,0,2.55,1.14,3.69,3.71,3.71,1.46,0,2.92,0,4.37,0s2.84,0,4.26,0c2.56-.02,3.76-1.2,3.76-3.71.01-13.75.01-27.5,0-41.25,0-2.53-1.16-3.66-3.76-3.67Zm1.76,44.92c0,1.41-.3,1.7-1.77,1.71-2.87.02-5.74.02-8.61,0-1.48-.01-1.72-.25-1.72-1.71,0-5.04,0-10.08,0-15.12V8.05c0-1.65.18-1.82,1.87-1.82h8.47c1.51.01,1.77.26,1.77,1.68.01,13.74.01,27.49,0,41.24Zm54.44,19.38l-1.23-1.31c-1.71-1.84-3.49-3.75-5.32-5.56-.61-.61-1.34-1.01-2.05-1.4-.29-.16-.57-.31-.85-.49l-.33-.2-.39.07c-1.36.26-3.03.79-3.89,2.58-.7,1.46-.39,3.01.87,4.34l3.87,4.1c.33.34.65.69.98,1.04.79.85,1.6,1.74,2.48,2.56.9.85,2.04,1.27,3.16,1.27s2.23-.42,3.08-1.25c1.58-1.56,1.43-3.81-.38-5.75Zm-1.02,4.32c-.94.92-2.46.9-3.47-.05-.82-.77-1.62-1.63-2.39-2.46-.33-.36-.65-.71-.99-1.06l-3.87-4.1c-.9-.94-.74-1.62-.51-2.1.34-.72.94-1.13,2.1-1.4.19.11.38.22.58.33.62.34,1.2.66,1.62,1.07,1.79,1.78,3.56,3.68,5.26,5.51l1.22,1.31c.76.8,1.45,1.97.45,2.95Zm9-10.77l-1.09-1.18c-1.79-1.92-3.64-3.91-5.55-5.79-.62-.61-1.36-1.01-2.08-1.39-.29-.15-.58-.3-.85-.47l-.34-.2-.39.08c-1.45.3-3.04.86-3.84,2.66-.46,1.04-.67,2.63.94,4.31.49.51.97,1.02,1.45,1.54.39.41.77.82,1.16,1.23.44.46.87.92,1.31,1.39,1.09,1.17,2.23,2.38,3.41,3.52.87.83,2,1.25,3.11,1.25s2.3-.44,3.15-1.32c1.54-1.58,1.39-3.74-.39-5.63Zm-1.04,4.23c-.91.93-2.48.95-3.44.03-1.15-1.1-2.26-2.3-3.34-3.45-.44-.47-.88-.94-1.32-1.4-.38-.41-.77-.81-1.15-1.22-.48-.52-.97-1.04-1.47-1.56-.9-.94-.77-1.62-.55-2.11.32-.73.89-1.14,2.06-1.43.19.11.39.21.59.32.62.33,1.2.64,1.61,1.04,1.88,1.85,3.72,3.83,5.5,5.74l1.09,1.17c.72.77,1.37,1.89.42,2.87Zm1.46-39.7c-1.3-.98-2.55-1.93-3.81-2.88-7.32-5.54-14.65-11.07-21.97-16.61-2.87-2.16-4.49-2.25-7.53-.41-2.37,1.44-4.74,2.87-7.12,4.31l-3.87,2.33c-1.65,1.01-3.26,1.28-4.9.84-1.21-.33-2.42-.69-3.62-1.05-1.06-.32-2.11-.65-3.18-.98l-2.76-.86v36.31h2.94s1.89,0,1.89,0c.85,0,1.7,0,2.55,0,2.16,0,3.54-1.17,4.49-2.19,2.92-3.12,5.87-6.22,8.82-9.31,2.15-2.26,4.3-4.51,6.44-6.78,1.76-1.86,3.68-2.48,5.91-1.9,1.04.27,2.05.75,3.12,1.26l.71.34c.91.42,1.8.88,2.69,1.34,1.77.92,3.61,1.87,5.56,2.5,5.26,1.72,10.35.51,15.15-3.58l.95-.81-2.46-1.87Zm-13.02,4.36c-1.79-.59-3.48-1.46-5.26-2.38-.92-.47-1.84-.95-2.77-1.38l-.69-.32c-1.1-.53-2.25-1.08-3.48-1.4-2.95-.77-5.59.06-7.86,2.47-2.14,2.26-4.29,4.51-6.44,6.77-2.95,3.1-5.91,6.2-8.83,9.32-1.02,1.09-1.93,1.56-3.04,1.56-1.47,0-2.94,0-4.43,0h-.94V14.01l.17.06c1.07.33,2.13.66,3.19.98,1.23.37,2.45.74,3.68,1.07,2.17.58,4.34.23,6.46-1.05l3.87-2.34c2.37-1.44,4.75-2.87,7.12-4.31,2.33-1.41,3.07-1.37,5.28.3,7.33,5.53,14.65,11.07,21.97,16.6,1.26.95,2.51,1.9,3.81,2.89l.45.34c-3.97,3.02-7.99,3.81-12.26,2.42Zm20.54,24.59l-1.18-1.26c-1.76-1.89-3.59-3.85-5.47-5.7-.62-.61-1.36-1-2.07-1.39-.29-.15-.57-.3-.85-.47l-.33-.21-.39.08c-1.38.29-3.06.85-3.86,2.68-.64,1.49-.3,3.03.95,4.31.48.5.96,1,1.43,1.51.33.35.66.7.99,1.05.46.48.92.97,1.38,1.46,1.14,1.21,2.31,2.47,3.54,3.64.83.81,1.93,1.25,3.09,1.25h.1c1.16-.03,2.28-.51,3.07-1.33,1.54-1.6,1.39-3.7-.4-5.62Zm-1.04,4.24c-.43.44-1.03.69-1.67.71-.64.02-1.29-.23-1.76-.69-1.19-1.14-2.35-2.37-3.47-3.57-.46-.49-.93-.98-1.4-1.47-.32-.35-.65-.69-.97-1.04-.48-.52-.97-1.03-1.46-1.53-.9-.93-.74-1.66-.54-2.13.31-.72.9-1.14,2.06-1.42.19.1.39.21.59.32.61.33,1.2.64,1.61,1.04,1.85,1.83,3.66,3.77,5.41,5.65l1.18,1.26c1.57,1.67.73,2.54.42,2.87Zm10.67-8.11c-.21-.34-.4-.66-.57-.95-.37-.64-.69-1.19-1.15-1.68-1.96-2.14-4.09-4.4-6.52-6.89-.47-.47-1.22-1.12-2.15-1.5-1.84-.76-4.04-.13-5.12,1.46-1.08,1.58-.82,3.43.7,5.06.97,1.04,1.94,2.06,2.92,3.08l1.12,1.19c1.01,1.06,2.04,2.16,3.11,3.21.91.9,2.04,1.37,3.15,1.37.74,0,1.46-.2,2.11-.63.7-.45,1.21-1.11,1.69-1.75.2-.26.4-.52.63-.78l.49-.56-.41-.63Zm-2.3.76c-.41.55-.77,1.02-1.19,1.29-.82.53-1.93.33-2.77-.49-1.04-1.03-2.06-2.11-3.05-3.16l-1.13-1.2c-.97-1.01-1.94-2.03-2.9-3.06-1.18-1.26-.86-2.07-.52-2.57.4-.58,1.11-.91,1.84-.91.29,0,.59.05.86.16.49.21,1.02.58,1.48,1.06,2.42,2.47,4.54,4.71,6.49,6.84.31.34.57.78.89,1.34.08.13.16.26.24.4-.08.1-.16.2-.24.3Zm6.95-31.86v-7.67c0-.33-.02-.67-.03-.97l-.09-1.7-1.28.49c-.93.35-1.84.71-2.74,1.07-2.04.8-3.96,1.57-5.95,2.19-3.93,1.22-7.24.57-10.1-1.98-1.67-1.49-3.48-2.86-5.23-4.19-1.17-.9-2.39-1.82-3.55-2.77-2.06-1.69-3.82-1.11-4.94-.33-1.36.94-2.63,1.93-3.98,2.98-.57.44-1.14.88-1.72,1.33l-1.05.79,11.74,8.88,11.22,8.49c.81.61.95,1.01.96,1.19.02.27-.24.6-.46.82-4.27,4.25-11.25,8.59-20.31,5.12-2.15-.83-4.25-2-6.28-3.13-.54-.3-1.08-.6-1.62-.9-2.96-1.61-4.88-1.35-7.08.97-3.95,4.16-7.91,8.31-11.87,12.47l-5.4,5.67.39.66c.15.26.32.52.49.78.36.54.69,1.06.91,1.59.87,2.09,2.35,3.51,4.53,4.33,2.22.84,3.84,2.38,4.8,4.58.89,2.03,2.19,3.36,4,4.07,2.64,1.05,4.39,2.76,5.51,5.4.9,2.1,2.88,3.3,5.11,3.3.85,0,1.74-.17,2.61-.54l1.33-.55-.99-1.05c-.43-.46-.87-.92-1.3-1.37-.95-1.01-1.86-1.95-2.73-2.95-1.38-1.57-1.86-3.55-1.33-5.45.53-1.89,1.97-3.34,3.96-3.97.55-.17,1.16-.25,1.81-.33.34-.05.69-.09,1.03-.15l.69-.11.13-.69c.72-3.74,2.99-5.57,6.95-5.61h.82s.15-.81.15-.81c.73-3.82,2.93-5.63,6.91-5.69h.72s.22-.7.22-.7c.09-.29.17-.57.25-.85.15-.53.28-1,.47-1.41.83-1.8,2.47-3.05,4.5-3.42,2.12-.4,4.3.26,5.83,1.76,1.38,1.34,2.72,2.78,4.01,4.17.59.63,1.18,1.26,1.77,1.87l.6.63.7-.5c.36-.26.72-.52,1.06-.79.76-.57,1.48-1.11,2.25-1.52,1.44-.78,1.63-1.9,1.62-2.9-.02-6.86-.02-13.73-.02-20.6Zm-2.56,21.74c-.89.48-1.71,1.09-2.49,1.69-.11.08-.21.16-.32.23-.38-.4-.76-.81-1.14-1.22-1.31-1.4-2.67-2.85-4.09-4.23-1.99-1.95-4.83-2.81-7.59-2.3-2.68.5-4.84,2.16-5.95,4.55-.25.56-.42,1.14-.58,1.71,0,.04-.02.08-.03.12-4.25.29-6.91,2.47-7.93,6.5-4.21.28-6.94,2.51-7.94,6.5-.1.02-.19.03-.29.04-.71.09-1.45.19-2.16.41-2.61.83-4.58,2.82-5.29,5.35-.7,2.52-.05,5.25,1.75,7.3.91,1.03,1.87,2.03,2.8,3.01.04.04.07.08.11.12-1.58.12-2.98-.63-3.59-2.07-1.33-3.12-3.49-5.24-6.62-6.48-1.3-.51-2.22-1.47-2.89-3.01-1.19-2.71-3.19-4.62-5.94-5.65-1.66-.62-2.73-1.65-3.38-3.22-.29-.71-.69-1.32-1.08-1.92-.02-.03-.03-.06-.05-.08l4.34-4.56c3.96-4.16,7.91-8.31,11.87-12.47,1.56-1.65,2.52-1.76,4.67-.59.53.29,1.07.59,1.6.89,2.09,1.16,4.26,2.37,6.54,3.25,7.97,3.05,15.73,1.12,22.44-5.57.75-.75,1.11-1.55,1.05-2.38-.06-.93-.64-1.8-1.75-2.64-3.74-2.84-7.49-5.66-11.23-8.49l-9.64-7.29c.23-.18.47-.36.7-.54,1.32-1.03,2.58-2.01,3.89-2.92.6-.42,1.37-.72,2.54.24,1.18.97,2.41,1.91,3.6,2.81,1.72,1.31,3.49,2.65,5.11,4.09,3.38,3.02,7.43,3.82,12.02,2.4,2.07-.65,4.11-1.46,6.09-2.24.47-.19.94-.38,1.41-.56v7.48c0,6.87,0,13.74.02,20.61,0,.72-.11.87-.58,1.13ZM117.19,4.23c-2.93-.01-5.85-.01-8.77,0-2.49.01-3.65,1.17-3.65,3.65,0,13.75,0,27.51,0,41.26,0,2.52,1.2,3.7,3.75,3.72,1.23,0,2.46,0,3.69,0h4.66c2.97,0,4.03-1.05,4.03-3.97v-26.08c0-4.97,0-9.94,0-14.91,0-2.57-1.11-3.67-3.71-3.68Zm1.71,18.59v26.07c0,1.81-.17,1.97-2.04,1.98h-1.28c-2.35,0-4.7.01-7.04,0-1.47-.01-1.77-.3-1.77-1.72,0-13.75,0-27.51,0-41.26,0-1.37.28-1.64,1.66-1.65,1.39,0,2.77-.01,4.16-.01,1.53,0,3.06.01,4.59.01s1.72.21,1.72,1.69c0,4.96,0,9.93,0,14.9Zm-1.71-18.59c-2.93-.01-5.85-.01-8.77,0-2.49.01-3.65,1.17-3.65,3.65,0,13.75,0,27.51,0,41.26,0,2.52,1.2,3.7,3.75,3.72,1.23,0,2.46,0,3.69,0h4.66c2.97,0,4.03-1.05,4.03-3.97v-26.08c0-4.97,0-9.94,0-14.91,0-2.57-1.11-3.67-3.71-3.68Zm1.71,18.59v26.07c0,1.81-.17,1.97-2.04,1.98h-1.28c-2.35,0-4.7.01-7.04,0-1.47-.01-1.77-.3-1.77-1.72,0-13.75,0-27.51,0-41.26,0-1.37.28-1.64,1.66-1.65,1.39,0,2.77-.01,4.16-.01,1.53,0,3.06.01,4.59.01s1.72.21,1.72,1.69c0,4.96,0,9.93,0,14.9Zm-16.12-2.23v-7.67c0-.33-.02-.67-.03-.97l-.09-1.7-1.28.49c-.93.35-1.84.71-2.74,1.07-2.04.8-3.96,1.57-5.95,2.19-3.93,1.22-7.24.57-10.1-1.98-1.67-1.49-3.48-2.86-5.23-4.19-1.17-.9-2.39-1.82-3.55-2.77-2.06-1.69-3.82-1.11-4.94-.33-1.36.94-2.63,1.93-3.98,2.98-.57.44-1.14.88-1.72,1.33l-1.05.79,11.74,8.88,11.22,8.49c.81.61.95,1.01.96,1.19.02.27-.24.6-.46.82-4.27,4.25-11.25,8.59-20.31,5.12-2.15-.83-4.25-2-6.28-3.13-.54-.3-1.08-.6-1.62-.9-2.96-1.61-4.88-1.35-7.08.97-3.95,4.16-7.91,8.31-11.87,12.47l-5.4,5.67.39.66c.15.26.32.52.49.78.36.54.69,1.06.91,1.59.87,2.09,2.35,3.51,4.53,4.33,2.22.84,3.84,2.38,4.8,4.58.89,2.03,2.19,3.36,4,4.07,2.64,1.05,4.39,2.76,5.51,5.4.9,2.1,2.88,3.3,5.11,3.3.85,0,1.74-.17,2.61-.54l1.33-.55-.99-1.05c-.43-.46-.87-.92-1.3-1.37-.95-1.01-1.86-1.95-2.73-2.95-1.38-1.57-1.86-3.55-1.33-5.45.53-1.89,1.97-3.34,3.96-3.97.55-.17,1.16-.25,1.81-.33.34-.05.69-.09,1.03-.15l.69-.11.13-.69c.72-3.74,2.99-5.57,6.95-5.61h.82s.15-.81.15-.81c.73-3.82,2.93-5.63,6.91-5.69h.72s.22-.7.22-.7c.09-.29.17-.57.25-.85.15-.53.28-1,.47-1.41.83-1.8,2.47-3.05,4.5-3.42,2.12-.4,4.3.26,5.83,1.76,1.38,1.34,2.72,2.78,4.01,4.17.59.63,1.18,1.26,1.77,1.87l.6.63.7-.5c.36-.26.72-.52,1.06-.79.76-.57,1.48-1.11,2.25-1.52,1.44-.78,1.63-1.9,1.62-2.9-.02-6.86-.02-13.73-.02-20.6Zm-2.56,21.74c-.89.48-1.71,1.09-2.49,1.69-.11.08-.21.16-.32.23-.38-.4-.76-.81-1.14-1.22-1.31-1.4-2.67-2.85-4.09-4.23-1.99-1.95-4.83-2.81-7.59-2.3-2.68.5-4.84,2.16-5.95,4.55-.25.56-.42,1.14-.58,1.71,0,.04-.02.08-.03.12-4.25.29-6.91,2.47-7.93,6.5-4.21.28-6.94,2.51-7.94,6.5-.1.02-.19.03-.29.04-.71.09-1.45.19-2.16.41-2.61.83-4.58,2.82-5.29,5.35-.7,2.52-.05,5.25,1.75,7.3.91,1.03,1.87,2.03,2.8,3.01.04.04.07.08.11.12-1.58.12-2.98-.63-3.59-2.07-1.33-3.12-3.49-5.24-6.62-6.48-1.3-.51-2.22-1.47-2.89-3.01-1.19-2.71-3.19-4.62-5.94-5.65-1.66-.62-2.73-1.65-3.38-3.22-.29-.71-.69-1.32-1.08-1.92-.02-.03-.03-.06-.05-.08l4.34-4.56c3.96-4.16,7.91-8.31,11.87-12.47,1.56-1.65,2.52-1.76,4.67-.59.53.29,1.07.59,1.6.89,2.09,1.16,4.26,2.37,6.54,3.25,7.97,3.05,15.73,1.12,22.44-5.57.75-.75,1.11-1.55,1.05-2.38-.06-.93-.64-1.8-1.75-2.64-3.74-2.84-7.49-5.66-11.23-8.49l-9.64-7.29c.23-.18.47-.36.7-.54,1.32-1.03,2.58-2.01,3.89-2.92.6-.42,1.37-.72,2.54.24,1.18.97,2.41,1.91,3.6,2.81,1.72,1.31,3.49,2.65,5.11,4.09,3.38,3.02,7.43,3.82,12.02,2.4,2.07-.65,4.11-1.46,6.09-2.24.47-.19.94-.38,1.41-.56v7.48c0,6.87,0,13.74.02,20.61,0,.72-.11.87-.58,1.13Zm-2.09,9.36c-.21-.34-.4-.66-.57-.95-.37-.64-.69-1.19-1.15-1.68-1.96-2.14-4.09-4.4-6.52-6.89-.47-.47-1.22-1.12-2.15-1.5-1.84-.76-4.04-.13-5.12,1.46-1.08,1.58-.82,3.43.7,5.06.97,1.04,1.94,2.06,2.92,3.08l1.12,1.19c1.01,1.06,2.04,2.16,3.11,3.21.91.9,2.04,1.37,3.15,1.37.74,0,1.46-.2,2.11-.63.7-.45,1.21-1.11,1.69-1.75.2-.26.4-.52.63-.78l.49-.56-.41-.63Zm-2.3.76c-.41.55-.77,1.02-1.19,1.29-.82.53-1.93.33-2.77-.49-1.04-1.03-2.06-2.11-3.05-3.16l-1.13-1.2c-.97-1.01-1.94-2.03-2.9-3.06-1.18-1.26-.86-2.07-.52-2.57.4-.58,1.11-.91,1.84-.91.29,0,.59.05.86.16.49.21,1.02.58,1.48,1.06,2.42,2.47,4.54,4.71,6.49,6.84.31.34.57.78.89,1.34.08.13.16.26.24.4-.08.1-.16.2-.24.3Zm-7.33,3.11l-1.18-1.26c-1.76-1.89-3.59-3.85-5.47-5.7-.62-.61-1.36-1-2.07-1.39-.29-.15-.57-.3-.85-.47l-.33-.21-.39.08c-1.38.29-3.06.85-3.86,2.68-.64,1.49-.3,3.03.95,4.31.48.5.96,1,1.43,1.51.33.35.66.7.99,1.05.46.48.92.97,1.38,1.46,1.14,1.21,2.31,2.47,3.54,3.64.83.81,1.93,1.25,3.09,1.25h.1c1.16-.03,2.28-.51,3.07-1.33,1.54-1.6,1.39-3.7-.4-5.62Zm-1.04,4.24c-.43.44-1.03.69-1.67.71-.64.02-1.29-.23-1.76-.69-1.19-1.14-2.35-2.37-3.47-3.57-.46-.49-.93-.98-1.4-1.47-.32-.35-.65-.69-.97-1.04-.48-.52-.97-1.03-1.46-1.53-.9-.93-.74-1.66-.54-2.13.31-.72.9-1.14,2.06-1.42.19.1.39.21.59.32.61.33,1.2.64,1.61,1.04,1.85,1.83,3.66,3.77,5.41,5.65l1.18,1.26c1.57,1.67.73,2.54.42,2.87Zm-6.48-33.19c-1.3-.98-2.55-1.93-3.81-2.88-7.32-5.54-14.65-11.07-21.97-16.61-2.87-2.16-4.49-2.25-7.53-.41-2.37,1.44-4.74,2.87-7.12,4.31l-3.87,2.33c-1.65,1.01-3.26,1.28-4.9.84-1.21-.33-2.42-.69-3.62-1.05-1.06-.32-2.11-.65-3.18-.98l-2.76-.86v36.31h2.94s1.89,0,1.89,0c.85,0,1.7,0,2.55,0,2.16,0,3.54-1.17,4.49-2.19,2.92-3.12,5.87-6.22,8.82-9.31,2.15-2.26,4.3-4.51,6.44-6.78,1.76-1.86,3.68-2.48,5.91-1.9,1.04.27,2.05.75,3.12,1.26l.71.34c.91.42,1.8.88,2.69,1.34,1.77.92,3.61,1.87,5.56,2.5,5.26,1.72,10.35.51,15.15-3.58l.95-.81-2.46-1.87Zm-13.02,4.36c-1.79-.59-3.48-1.46-5.26-2.38-.92-.47-1.84-.95-2.77-1.38l-.69-.32c-1.1-.53-2.25-1.08-3.48-1.4-2.95-.77-5.59.06-7.86,2.47-2.14,2.26-4.29,4.51-6.44,6.77-2.95,3.1-5.91,6.2-8.83,9.32-1.02,1.09-1.93,1.56-3.04,1.56-1.47,0-2.94,0-4.43,0h-.94V14.01l.17.06c1.07.33,2.13.66,3.19.98,1.23.37,2.45.74,3.68,1.07,2.17.58,4.34.23,6.46-1.05l3.87-2.34c2.37-1.44,4.75-2.87,7.12-4.31,2.33-1.41,3.07-1.37,5.28.3,7.33,5.53,14.65,11.07,21.97,16.6,1.26.95,2.51,1.9,3.81,2.89l.45.34c-3.97,3.02-7.99,3.81-12.26,2.42Zm12.6,31.11l-1.09-1.18c-1.79-1.92-3.64-3.91-5.55-5.79-.62-.61-1.36-1.01-2.08-1.39-.29-.15-.58-.3-.85-.47l-.34-.2-.39.08c-1.45.3-3.04.86-3.84,2.66-.46,1.04-.67,2.63.94,4.31.49.51.97,1.02,1.45,1.54.39.41.77.82,1.16,1.23.44.46.87.92,1.31,1.39,1.09,1.17,2.23,2.38,3.41,3.52.87.83,2,1.25,3.11,1.25s2.3-.44,3.15-1.32c1.54-1.58,1.39-3.74-.39-5.63Zm-1.04,4.23c-.91.93-2.48.95-3.44.03-1.15-1.1-2.26-2.3-3.34-3.45-.44-.47-.88-.94-1.32-1.4-.38-.41-.77-.81-1.15-1.22-.48-.52-.97-1.04-1.47-1.56-.9-.94-.77-1.62-.55-2.11.32-.73.89-1.14,2.06-1.43.19.11.39.21.59.32.62.33,1.2.64,1.61,1.04,1.88,1.85,3.72,3.83,5.5,5.74l1.09,1.17c.72.77,1.37,1.89.42,2.87Zm-6.94,2.22l-1.23-1.31c-1.71-1.84-3.49-3.75-5.32-5.56-.61-.61-1.34-1.01-2.05-1.4-.29-.16-.57-.31-.85-.49l-.33-.2-.39.07c-1.36.26-3.03.79-3.89,2.58-.7,1.46-.39,3.01.87,4.34l3.87,4.1c.33.34.65.69.98,1.04.79.85,1.6,1.74,2.48,2.56.9.85,2.04,1.27,3.16,1.27s2.23-.42,3.08-1.25c1.58-1.56,1.43-3.81-.38-5.75Zm-1.02,4.32c-.94.92-2.46.9-3.47-.05-.82-.77-1.62-1.63-2.39-2.46-.33-.36-.65-.71-.99-1.06l-3.87-4.1c-.9-.94-.74-1.62-.51-2.1.34-.72.94-1.13,2.1-1.4.19.11.38.22.58.33.62.34,1.2.66,1.62,1.07,1.79,1.78,3.56,3.68,5.26,5.51l1.22,1.31c.76.8,1.45,1.97.45,2.95ZM16.38,4.23H7.9c-2.78,0-3.87,1.07-3.87,3.81v25.99c0,5.04,0,10.08,0,15.12,0,2.55,1.14,3.69,3.71,3.71,1.46,0,2.92,0,4.37,0s2.84,0,4.26,0c2.56-.02,3.76-1.2,3.76-3.71.01-13.75.01-27.5,0-41.25,0-2.53-1.16-3.66-3.76-3.67Zm1.76,44.92c0,1.41-.3,1.7-1.77,1.71-2.87.02-5.74.02-8.61,0-1.48-.01-1.72-.25-1.72-1.71,0-5.04,0-10.08,0-15.12V8.05c0-1.65.18-1.82,1.87-1.82h8.47c1.51.01,1.77.26,1.77,1.68.01,13.74.01,27.49,0,41.24Z"/>
</svg>