<?xml version="1.0" encoding="UTF-8"?>
<svg id="Capa_1" data-name="Capa 1" xmlns="http://www.w3.org/2000/svg" viewBox="0 0 97.58 97.39">
  <defs>
    <style>
      .cls-1 {
        fill: #17774f;
      }
    </style>
  </defs>
  <path class="cls-1" d="m94.05,3.89c-5.42-5.51-14.09-5.11-19.3.85-.52.6-1.29,1.24-2.02,1.36-9.08,1.47-17.04,5.55-24.61,10.51-1.67,1.09-2.77,1.23-4.52.06-7.24-4.82-14.91-8.77-23.62-10.19C5.77,4.15-2.11,12.18.49,26.29c1.58,8.59,5.6,16.12,10.34,23.29.99,1.49,1.12,2.51.08,4.09-2.06,3.08-3.92,6.31-5.61,9.62C2.32,69.1.16,75.18.06,80.14c-.07,12.09,6.62,18.06,17.26,17.05,9.85-.93,18.34-5.31,26.42-10.62,1.5-.98,2.5-1.02,4.11-.07,4.52,2.67,9.13,5.26,13.89,7.48,4.88,2.27,10.09,3.62,15.57,3.39,8.37-.36,13.87-5.83,14.16-14.18.07-1.8-.04-3.64-.32-5.42-1.37-8.82-5.41-16.53-10.23-23.87-1.1-1.67-1.24-2.76-.08-4.52,5-7.54,9.05-15.52,10.54-24.59.12-.74.74-1.52,1.34-2.04,5.91-5.21,6.52-13.58,1.33-18.86ZM7.73,22.59c-.67-6.31,2.42-9.69,8.68-9.17,8.5.72,15.62,4.95,21.41,8.43-7.26,7.27-14.55,14.58-21.75,21.8-3.5-5.71-7.46-12.75-8.34-21.06Zm7.9,67.17c-5.74.19-8.96-3.04-7.94-8.78.87-4.93,2.78-9.72,4.6-14.43,1.11-2.85,2.94-5.42,3.81-6.98,7.21,7.28,14.47,14.6,21.69,21.89-5.98,3.68-13.29,8.02-22.16,8.3Zm31.75-15.01c-1.17.95-1.95.94-3.11,0-7.88-6.38-15.03-13.49-21.4-21.39-.96-1.19-1.14-2.02-.08-3.32,6.44-7.95,13.59-15.18,21.65-21.49.58-.45,2.04-.55,2.57-.14,8.28,6.45,15.64,13.84,22.14,22.08.27.33.47.71.76,1.14-.34.53-.62,1.06-.99,1.52-6.37,8.01-13.58,15.17-21.54,21.6Zm36.52,5.79c.74,6.77-2.75,10.14-9.51,9.3-6.15-.76-16.17-5.04-20.6-8.44,7.19-7.13,14.51-14.39,21.84-21.66,3.43,5.63,7.37,12.59,8.27,20.8Zm-8.33-36.79c-7.23-7.29-14.5-14.63-21.7-21.89,4.64-3.04,10.82-6.31,18-7.9,1.34,6.34,4.96,10.28,11.65,11.6-1.55,7.25-4.9,13.39-7.95,18.19Zm9.62-25.74c-3.15-.01-5.7-2.34-5.66-5.17.04-3.08,2.37-5.28,5.54-5.22,2.98.05,4.99,2.18,4.89,5.15-.1,2.7-2.41,5.24-4.77,5.24Z"/>
  <path class="cls-1" d="m45.89,38.85c-7.05-.04-12.92,5.83-12.87,12.86.05,7.01,5.72,12.67,12.73,12.71,7.11.04,12.91-5.73,12.88-12.83-.04-6.95-5.78-12.7-12.74-12.74Zm-.13,18.03c-2.91-.03-5.01-2.15-5.08-5.1-.07-3.08,2.04-5.28,5.08-5.31,3.07-.02,5.21,2.1,5.21,5.19s-2.21,5.26-5.21,5.22Z"/>
</svg>