<?xml version="1.0" encoding="UTF-8"?>
<svg id="Capa_1" data-name="Capa 1" xmlns="http://www.w3.org/2000/svg" viewBox="0 0 93.21 91.99">
  <defs>
    <style>
      .cls-1 {
        fill: #17774f;
      }
    </style>
  </defs>
  <g>
    <g>
      <path class="cls-1" d="m3.95,41.39v1.07c0,.16-.06.32-.08.48-.15-.15-.3-.3-.45-.45-.71-.72-1.44-1.45-2.15-2.17-.03-.22-.1-.43-.12-.64v-1.06l.93.9.7.7,1.16,1.17Z"/>
      <path class="cls-1" d="m4.97,42.42l-1.02-1.03-1.16-1.17-.7-.7-.93-.9-.47-.45-.54,1.9c-.03.06-.04.13-.06.21.01.03.01.07.02.1l.11.51.95.95,1.01,1.04.13.12.44.45.29.28h0s.01.02.01.02l.92.85.63.6.02.02v-.03s.01,0,.01-.01l.19-1.03.04-.27.15-.83v-.02c.04-.15.08-.34.08-.57v-.04h-.13Z"/>
    </g>
    <g>
      <path class="cls-1" d="m41.57,3.84c-.25.03-.49.1-.74.1h-.8l-1.16-1.15-.47-.47-1.17-1.16h1.1c.22,0,.44.08.66.11.86.86,1.72,1.71,2.59,2.56Z"/>
      <path class="cls-1" d="m43.32,3.95h0s-.11-.11-.11-.11l-1.06-1.06-.49-.47-1.15-1.14h-.01s-.95-.95-.95-.95l-.51-.1s-.05-.02-.09-.03c-.08.03-.16.06-.24.08l-1.95.51.48.48,1.17,1.16.47.47,1.16,1.15.99.98.53.09,1.73-.25.73-.11-.69-.7Z"/>
    </g>
    <g>
      <path class="cls-1" d="m41.57,3.84c-.86-.85-1.72-1.71-2.59-2.56.16-.04.31-.12.47-.12,2.66,0,5.32-.02,7.98,0,2.14.02-1.87.08.27.12.14,0,.27.08.4.12-.87.86.87,1.72,0,2.57-.2.03.2.08,0,.09-.95,0,1.03,0,0,0,0,.94.01,1.82,0,2.71,0,.31-.09.61-.13.92-.42.42-.84.83-1.26,1.25-.5-.46-1-.92-1.5-1.38-.03-.92-.06-1.85-.09-2.77,0-.27-.03-.54-.05-.84-1,0-1.92,0-2.85,0-.22,0-.44-.07-.66-.1Z"/>
      <path class="cls-1" d="m45.58,9.11l-.05-.49v-.06s0-.01,0-.01l.33-.39.16-.16c.22-.22.44-.44.66-.65l-.33-.31-.03-.93v-.02l-.04-1.34c0-.21-.03-.41-.04-.63l-.04-.83h0s-.04-.48-.04-.48h-2.84c-.37,0-.71,0-1.08-.02-.03,0-.07,0-.1-.01l1.06,1.06.11.1h0s.69.71.69.71l-.73.11v.35h.7l.08,2.35v.21s.02.41.02.41l.09.08h.01s.69.65.69.65h.01s.01,0,.01,0l.18.17.1.09.44.41-.02-.24v-.13s.59-.06.59-.06l-.6.05Zm.77-2.07l-.03-.93v-.02l-.04-1.34c0-.21-.03-.41-.04-.63l-.04-.83h0s-.04-.48-.04-.48h-2.84c-.37,0-.71,0-1.08-.02-.03,0-.07,0-.1-.01l1.06,1.06.11.1c.18.01.35.01.53.01.18.01.36.01.54.01h.7c0,.13,0,.26.02.38.19.02.37.03.56.04h-.56c.02.14.03.28.03.42.01.19.01.39.01.57,0,.2.02.38.02.58h0c.01.41.02.81.04,1.23,0,.12.01.25.01.38h0s.08.08.11.11h.01c.17.16.35.32.52.48,0,0,0,0,0,.01l.16-.16c.22-.22.44-.44.66-.65l-.33-.31Zm0,0l-.03-.93v-.02l-.04-1.34c0-.21-.03-.41-.04-.63l-.04-.83h0s-.04-.48-.04-.48h-2.84c-.37,0-.71,0-1.08-.02-.03,0-.07,0-.1-.01l1.06,1.06.11.1c.18.01.35.01.53.01h1.24c0,.14,0,.27.02.39.19.02.37.03.56.04h-.56c.02.14.03.28.03.42.01.19.01.39.01.57,0,.2.02.38.02.58h0c.01.41.02.81.04,1.23,0,.12.01.25.01.38h0s.08.08.11.11h.01c.17.16.35.32.52.48,0,0,0,0,0,.01l.16-.16c.22-.22.44-.44.66-.65l-.33-.31Zm0,0l-.03-.93v-.02l-.04-1.34c0-.21-.03-.41-.04-.63l-.04-.83h0s-.04-.48-.04-.48h-2.84c-.37,0-.71,0-1.08-.02-.03,0-.07,0-.1-.01l1.06,1.06.11.1c.18.01.35.01.53.01h1.24c0,.14,0,.27.02.39.19.02.37.03.56.04h-.56c.02.14.03.28.03.42.01.19.01.39.01.57,0,.2.02.38.02.58h0c.01.41.02.81.04,1.23,0,.12.01.25.01.38.04.03.07.07.11.11h.01c.17.16.35.32.52.48,0,0,0,0,0,.01l.16-.16c.22-.22.44-.44.66-.65l-.33-.31Zm3.08-4.12c-.01-.06-.04-.13-.05-.18-.08-.23-.18-.43-.25-.57-.01-.03-.04-.08-.06-.12l.4-.46h.01s.57-.66.57-.66l-.98-.38s-.06-.08-.09-.11c-.35-.42-1.05-.42-1.54-.43C45.22,0,43,0,40.78,0h-1.33c-.19,0-.36.04-.51.08-.08.03-.16.06-.24.08l-1.95.51.48.48,1.17,1.16.47.47,1.16,1.15.99.98.53.09c.22.05.44.08.67.08.35.02.71.02,1.07.02h.69l.08,2.35v.21s.02.41.02.41l.09.08h.01s.69.65.69.65h.01s.01,0,.01,0l.18.17.1.09.44.41.25.24h0l.04.04.83.76.06-.06.56-.55.25-.25h0s.28-.29.28-.29l.2-.19h0s.18-.2.18-.2l.2-.19h.01l.55-.56.09-.62s.02-.09.02-.13v-.02c.05-.22.08-.45.08-.66.02-.45.02-.89.02-1.34v-.25h.31v-1.15c0-.13-.03-.27-.07-.42.02-.26-.01-.51-.07-.73Zm-6.18-.62h1.35c.69,0,1.37,0,2.05.01.03,0,.06.03.1.03.02.14.07.27.11.4.04.08.06.15.1.22v.36c-.23.26-.27.58-.27.76,0,.31.08.53.21.7l.06.11v.6c0,.42,0,.85-.02,1.26,0,.13-.02.25-.04.38l-.22.22-.33-.31-.03-.93v-.02l-.04-1.34c0-.21-.03-.41-.04-.63l-.04-.83h0s-.04-.48-.04-.48h-2.84c-.37,0-.71,0-1.08-.02-.03,0-.07,0-.1-.01l-.49-.47c.53-.01,1.07-.01,1.6-.01Zm3.1,4.74l-.03-.93v-.02l-.04-1.34c0-.21-.03-.41-.04-.63l-.04-.83h0s-.04-.48-.04-.48h-2.84c-.37,0-.71,0-1.08-.02-.03,0-.07,0-.1-.01l1.06,1.06.11.1c.18.01.35.01.53.01h1.24c0,.14,0,.27.02.39.19.02.37.03.56.04h-.56c.02.14.03.28.03.42.01.19.01.39.01.57,0,.2.02.38.02.58h0c.01.41.02.81.04,1.23,0,.12.01.25.01.38h0s.08.08.11.11h.01c.17.16.35.32.52.48,0,0,0,0,0,.01l.16-.16c.22-.22.44-.44.66-.65l-.33-.31Zm0,0l-.03-.93v-.02l-.04-1.34c0-.21-.03-.41-.04-.63l-.04-.83h0s-.04-.48-.04-.48h-2.84c-.37,0-.71,0-1.08-.02-.03,0-.07,0-.1-.01l1.06,1.06.11.1c.18.01.35.01.53.01.18.01.36.01.54.01h.7c0,.13,0,.26.02.38.19.02.37.03.56.04h-.56c.02.14.03.28.03.42.01.19.01.39.01.57,0,.2.02.38.02.58h0c.01.41.02.81.04,1.23,0,.12.01.25.01.38h0s.08.08.11.11h.01c.17.16.35.32.52.48,0,0,0,0,0,.01l.16-.16c.22-.22.44-.44.66-.65l-.33-.31Zm0,0l-.03-.93v-.02l-.04-1.34c0-.21-.03-.41-.04-.63l-.04-.83h0s-.04-.48-.04-.48h-2.84c-.37,0-.71,0-1.08-.02-.03,0-.07,0-.1-.01l1.06,1.06.11.1c.18.01.35.01.53.01.18.01.36.01.54.01h.7c0,.13,0,.26.02.38.19.02.37.03.56.04h-.56c.02.14.03.28.03.42.01.19.01.39.01.57,0,.2.02.38.02.58h0c.01.41.02.81.04,1.23,0,.12.01.25.01.38h0s.08.08.11.11h.01c.17.16.35.32.52.48,0,0,0,0,0,.01l.16-.16c.22-.22.44-.44.66-.65l-.33-.31Z"/>
    </g>
    <g>
      <path class="cls-1" d="m3.87,47.99c-.86.86-1.71-.54-2.57.32-.05-.15-.14-.3-.14-.45,0-4.46,0-2.66,0-7.12,0-.14.07-.28.11-.42.86.87,1.73,1.74,2.59,2.61.05.74.09,1.48.15,2.35h2.28c.7.72,1.39,1.45,2.09,2.17,0,.09,0,.18,0,.28-.24.08-.49.23-.73.24-.65.04-1.29.02-1.94.02-.57,0-1.14,0-1.76,0,0,1.01,0-2.06,0-1.14,0,.38-.05.76-.08,1.14Z"/>
      <path class="cls-1" d="m6.19,46.82h0l.03.03-.02-.03Zm3.18,0l-.13-.13-.03-.03-.21-.22-.55-.58h0s-.02-.03-.02-.03h-.01s-.54-.56-.54-.56l-.23-.24-.85-.89h-1.69l-.02-.26-.06-.83v-.02l-.03-.59-.02-.02-1.02-1.03-1.16-1.17-.7-.7-.93-.9-.47-.45-.54,1.9c-.03.06-.04.13-.06.21-.03.12-.07.29-.07.47v1.62q-.01,1.87,0,3.48v2.02c0,.08,0,.16.02.23.03.21.11.4.17.56l.58,1.8.4-.41.87-.86s.12.04.18.06c.03.01.07.02.1.03.14.05.3.09.5.12.11.03.25.04.38.04.19,0,.4-.02.62-.09h.15l.9-.02h.21v-.19h1.13c.51.01,1,.01,1.5-.01.2-.01.4-.06.56-.11h0s.09-.04.13-.06c.07-.02.1-.05.15-.06h.02s0-.01,0-.01c.05-.02.1-.05.15-.06l.78-.26v-1.57l-.17-.18Zm-6.44-.61c-.05.1-.08.23-.09.37-.02.08-.04.17-.04.26v.18c-.12-.05-.28-.08-.46-.12h-.02v-1.05c0-.88,0-1.28,0-1.78v-1.07l.44.45.02.41h0s.08,1.22.08,1.22l.06.74.02.39Zm2.17.63v-.1h-.02c0-.1-.01-.21-.03-.3h.77l.26.29.09.09h.01l.03.03h-.5s-.61-.01-.61-.01Zm1.09-.02h0l.03.03-.02-.03Z"/>
    </g>
    <path class="cls-1" d="m41.55,5.01c-.24.05-.48.08-.71.08H12.78c-.16,0-.33-.02-.49-.05h-.03c-.18.02-.38.05-.57.05h-1.4c-.76.01-1.53.01-2.29.02-.61.01-1.16.22-1.67.62-.1.08-.2.14-.29.18h-.01c-.05.09-.1.2-.18.29-.52.59-.75,1.29-.74,2.17.02,1.02.01,2.04,0,3.06v.32c0,.17-.02.36-.06.53h0c.03.15.06.3.06.46v29.66h-.14l-1.01-1.02-1.16-1.17-.7-.7-.93-.9-.47-.45-.54,1.9c-.02.06-.03.13-.06.21-.03-.17-.07-.37-.08-.6C0,31.67,0,23.66.02,15.66c0-.22.03-.45.07-.67H.09c-.03-.16-.07-.32-.07-.51v-1.51C0,11.31,0,9.65.02,7.98c.03-2.05.79-3.86,2.27-5.43l.21-.23.11-.05C3.61,1.21,4.91.53,6.6.17c.49-.1,1.02-.16,1.58-.16C10.28,0,12.37,0,14.47,0c.2,0,.36.03.48.08.18-.05.4-.08.64-.08C23.18,0,30.75,0,38.33,0c.23,0,.45.03.61.08-.08.02-.16.06-.24.08l-1.95.51.48.48,1.17,1.16.47.47,1.16,1.15.99.98.53.09Z"/>
    <g>
      <path class="cls-1" d="m45.25,10.39s-.12-.05-.11-.08c.02-.92.05-1.83.07-2.75.5.46,1,.92,1.5,1.38,0,.02,0,.05,0,.07-.49.46-.98.92-1.46,1.38Z"/>
      <path class="cls-1" d="m45.38,11.85l-.72-.47-.63-.32-.05-.8c.01-.69.03-1.4.05-2.11l.09-3.14,3.64,3.34.15,1.11-2.53,2.38Z"/>
    </g>
    <g>
      <path class="cls-1" d="m46.72,9.01s0-.05,0-.07c.42-.42.84-.83,1.26-1.25.05.08.13.16.13.23.01.69.01,1.37,0,2.06,0,.09-.1.19-.16.28-.41-.42-.81-.84-1.22-1.26Z"/>
      <path class="cls-1" d="m48.16,12.16l-2.55-2.64-.04-.41,1.15-.1-1.15.09-.06-.55.38-.44,2.31-2.29.75,1.28c.06.08.28.37.29.8.01.7.01,1.4,0,2.1-.01.43-.23.73-.32.85l-.77,1.3Z"/>
    </g>
    <g>
      <path class="cls-1" d="m19.09,46.9c-.4.74-1.02,1.1-1.89,1.09-2.13-.01-4.27,0-6.39,0-.01,0-.03,0-.05-.01-.12.01-.24.01-.36,0-.14.01-.26.01-.4,0h-.68c-.07,0-.14-.01-.21-.02t-.02,0c-.24-.06-.47-.16-.71-.22v-.28c.2-.2.4-.39.6-.59.02-.02.03-.05.06-.07.06-.05.1-.1.16-.15.09-.09.17-.17.26-.26.12-.11.22-.22.33-.32l.06-.07c.21-.2.41-.4.62-.61.05-.01.09-.02.14-.03h.01s.01-.01.01-.01c.01,0,.02,0,.05-.01.14-.03.29-.08.44-.08.39-.01.78-.01,1.17-.01,1-.01,2.01,0,3.01,0h.62c-.02-.07-.05-.15-.07-.22-.11-.39-.24-.77-.36-1.15-.13-.39-.23-.78-.31-1.18-.02-.11-.05-.24-.05-.36-.06-.53-.01-1.07-.03-1.6.02-.02.03-.03.05-.05h0c.37-.38.74-.74,1.09-1.1l.55-.55c-.03.52-.02,1.05.07,1.55l1.01-1.02s-.01.08-.02.11c-.03.18-.06.37-.08.55-.02.22-.03.45-.03.67,0,1.3.4,2.56,1.23,3.82.07.09.12.18.16.29.06.1.09.2.13.3.02.07.03.14.05.21.1.46.03.93-.22,1.39Z"/>
      <path class="cls-1" d="m17.89,39.57l.05-.05v-.15c-.03.07-.04.13-.05.2Zm1.38-1.4c-.12.43-.17.85-.17,1.29.11-.44.28-.9.5-1.36.06-.1.09-.21.11-.32h0c.03-.15.05-.28.07-.41l.11-.7c-.29.47-.49.97-.63,1.5Zm-1.04-.58l.42-.42c.15-.12.31-.24.45-.39.32-.32.62-.7.95-1.01l.21-1.26c-.97.81-1.67,1.89-2.03,3.08Zm2.26,8.07c-.08.25-.2.5-.35.76-.62,1.02-1.63,1.58-2.86,1.58h-6.26c-.06,0-.13,0-.2-.01,2.12,0,4.26-.01,6.39,0,.86.01,1.48-.35,1.89-1.09.25-.46.32-.93.21-1.39-.01-.07-.02-.14-.04-.21-.04-.1-.07-.19-.13-.3-.04-.1-.09-.19-.16-.28-.83-1.26-1.23-2.52-1.23-3.82,0-.22,0-.45.04-.67.02-.18.04-.37.08-.55.01-.03.01-.08.02-.11l-1.01,1.02c-.09-.51-.11-1.04-.07-1.55.03-.69.17-1.37.39-2.03l-.24.23-.08.08-.5.51-1.23,1.23-.04.06-1.13,1.13-.02.03v.49s0,.57,0,.57c0,.42,0,.9.07,1.39,0,.05.02.12.03.18,0,.02.01.04.01.06.03.12.05.25.08.37.05.18.1.36.14.54.02.08.05.15.07.22-.83,0-1.64,0-2.46.01h-.79c-.19,0-.36.02-.5.05h-.03c-.1.03-.16.05-.23.07l-.32.08-.14.04-.07.07-.04.05-.81.8h-.01l-.55.56-.22.21-.05.04-.55.55h-.01s-.14.14-.14.14h0s-.2.21-.2.21v1.63l.85.23s.04.02.05.03h.02c.06.01.09.03.16.05.04.02.07.03.11.04.02.01.04.02.07.02h0c.23.08.5.15.81.15,1.43.01,2.84.01,4.27.01h3.63c1.27,0,2.29-.6,2.89-1.69.31-.57.44-1.18.38-1.79Zm-2.46-.31s.02.03.02.04c.21.33.21.63.03.96-.19.37-.42.49-.86.49h-6.56l.42-.42s.04-.01.04-.01h.58c.89-.02,1.77-.02,2.66-.02h3.12l-.21-.69-.2-.67-.03-.12c-.09-.27-.17-.54-.27-.81-.17-.57-.34-1.11-.44-1.63-.07-.32-.06-.7-.06-1.11v-.15l.12-.13.21-.2c0,1.54.47,3.03,1.43,4.47Z"/>
    </g>
    <g>
      <path class="cls-1" d="m10.48,45.39c-.69.69-1.39,1.38-2.08,2.07-.7-.72-1.39-1.45-2.09-2.17,1.31-.01,2.62-.03,3.93-.03.08,0,.16.09.25.14Z"/>
      <path class="cls-1" d="m8.37,49.1l-4.75-4.94,3.51-.03c1.03-.01,2.07-.02,3.1-.02.44,0,.73.22.86.31l1.28.76-4,3.92Z"/>
    </g>
    <g>
      <path class="cls-1" d="m16.96,37.24l.24-.23c-.22.66-.36,1.33-.39,2.02l-.55.55c-.36.37-.72.72-1.09,1.09h0s-.02.03-.05.06c-.02-.37-.1-.75-.06-1.1.01-.07.02-.14.03-.21v-.03c.02-.11.05-.22.06-.33l1.23-1.23.49-.51.08-.08Z"/>
      <path class="cls-1" d="m20.26,34.5l-.21,1.26c-.33.31-.63.69-.95,1.01-.14.15-.3.26-.45.39l-.41.41c.36-1.18,1.06-2.27,2.02-3.08Z"/>
      <path class="cls-1" d="m46.82,46.53v.07c-.14.14-.29.26-.43.4-.09.09-.18.17-.28.25-.03.05-.07.08-.1.1-.2.2-.39.38-.59.56-.05.05-.09.08-.14.13h-.01s-.01.02-.02.03h-.01s-.09-.01-.14-.01c-.26-.02-.52-.07-.78-.07h-.37c-4.01-.01-8.05-.01-12.07-.01h-.05c-.09,0-.17,0-.26-.01-.03,0-.06,0-.08-.01l-.21-.03c-.52-.11-.94-.41-1.25-.91-.39-.62-.44-1.25-.18-1.86.06.4.26.77.6,1.12.37.38.84.54,1.36.56-.44-.02-.64-.18-.79-.44-.24-.37-.23-.67.03-1.06.02-.02.03-.06.06-.08-.21-.32-.18-.67.06-1.07.64-1.07,1.05-2.02,1.25-3,0-.02.01-.03.01-.06.24-1.18.15-2.46-.21-3.67.57,1.28.81,2.6.69,3.98.83-3.41-.14-6.2-2.89-8.46.93.66,1.76,1.49,2.43,2.52,1.28,1.94,1.79,3.99,1.6,6.11.01.01,0,.01,0,.02-.06.74-.22,1.47-.46,2.22-.03.15-.08.31-.14.46-.08.22-.18.43-.31.67-.02.07-.07.15-.1.23.24.01.41.03.57.03,3.28,0,6.55,0,9.82-.01h1.09s.05,0,.07-.01c.12,0,.23-.05.34-.08.06-.02.1-.05.16-.06h.01s.03-.02.05-.02h.01s.01-.01.02-.01c.02.02.06.05.08.08.22.2.44.39.66.59l.08.08s.02.01.03.02c.24.23.48.45.74.67.01.02.03.03.05.05Z"/>
      <path class="cls-1" d="m36.75,46.84h-4.87c.05.01.09.01.14.01h11.87c-2.39-.01-4.75-.01-7.14-.01Zm-4.34-5.64c-.21.97-.61,1.93-1.25,3-.24.4-.27.75-.06,1.07.68-1.06,1.08-2.18,1.26-3.41.04-.24.06-.48.06-.72,0,.02-.01.03-.01.06Zm15.49,4.76l-.25-.23h-.02s-.09-.09-.09-.09l-.72-.66-.04-.02-.09-.09-.41-.38-.04-.03h0s-.23-.23-.23-.23l-.03-.02-.04-.03h-.01s-.15-.14-.15-.14l-.3-.28-.34.11-.13.03-.15.05c-.07.02-.16.05-.23.08-.02.01-.03.01-.06.02-.03.01-.06.02-.06.03h-1.03c-2.92.02-5.83.02-8.75.02.03-.07.05-.15.06-.22.11-.39.21-.77.26-1.15.06-.29.11-.59.12-.89,0,0,.01-.01.01-.02.25-2.44-.34-4.77-1.77-6.95-.69-1.05-1.55-1.95-2.52-2.66,3.05,2.58,3.99,5.8,3.16,9.4.2-2.11-.32-4.16-1.59-6.1-.67-1.03-1.5-1.87-2.43-2.52,2.75,2.26,3.71,5.05,2.89,8.46-.07.81-.26,1.63-.56,2.47-.04.16-.12.31-.2.47l-.25.52-.33.74-.27.6,1.87.12c.16.01.3.02.44.02h.73c3.08,0,6.18,0,9.27-.01h.92c.14,0,.25-.01.37-.03l.24.22.02.02-.24.23-.07.07c-.17-.02-.34-.04-.53-.04h-.43c-2.39-.01-4.75-.01-7.14-.01h-4.87s-.06.01-.08,0c-.06,0-.11-.01-.15-.01-.05-.01-.1-.02-.14-.03-.06,0-.13,0-.19-.03-.22-.05-.43-.14-.62-.27-.09-.06-.18-.13-.26-.22-.33-.35-.54-.71-.59-1.12-.26.61-.21,1.25.18,1.87.31.49.74.79,1.25.91-.66-.11-1.21-.4-1.66-.86-.58-.59-.9-1.29-.95-2.04-.26.86-.13,1.76.38,2.6.62.99,1.6,1.5,2.83,1.5,4.03,0,8.06,0,12.07.01h.37c.18,0,.34.03.51.05l.27.02h0l.16.03h0l.39.03.41-.4.17-.15h0s.16-.16.16-.16h.01s.46-.45.46-.45l.02-.03h.01s.01-.01.01-.01h0s.3-.3.3-.3h.01s.5-.48.5-.48l.19-.18v-.08l.02-.14v-.34s0-.08,0-.08l-.07-.52Zm-15.49-4.76c-.21.97-.61,1.93-1.25,3-.24.4-.27.75-.06,1.07.68-1.06,1.08-2.18,1.26-3.41.04-.24.06-.48.06-.72,0,.02-.01.03-.01.06Zm-2.23,2.4c-.32.53-.44,1.06-.33,1.56.05-.16.13-.31.23-.46.61-.9.99-1.9,1.15-3,.02-.23.04-.46.05-.69-.2.95-.62,1.77-1.1,2.59Zm-13.37-4.56c.03-.69.17-1.37.39-2.03l-.24.23-.08.08-.5.51-1.23,1.23-.04.06-1.13,1.13c-.02-.32-.03-.63-.03-.93-.02.05-.02.11-.03.15-.04.38-.01.75.03,1.04.01.09.02.17.02.26v.04l.1,1.92v.24s.04.42.04.42l.05-.05.99-1,.24-.25.88-.88.12-.13.21-.2.28-.29c-.09-.51-.11-1.04-.07-1.55Zm1.08.53l.05-.05v-.15c-.03.07-.04.13-.05.2Zm1.38-1.4l.11-.11.13-.1c.07-.06.14-.11.2-.18h0c.03-.15.05-.28.07-.41l.11-.7c-.29.47-.49.97-.63,1.5Zm-1.04-.58l.42-.42c.15-.12.31-.24.45-.39.32-.32.62-.7.95-1.01l.21-1.26c-.97.81-1.67,1.89-2.03,3.08Z"/>
      <path class="cls-1" d="m31.48,31.22c-3.34-2.76-7.36-3.3-11.03-1.5-4.29,2.12-6.48,5.38-6.5,9.6,0,.3.01.61.03.93l1.13-1.13.04-.06,1.23-1.23.5-.51.08-.08.24-.23c-.22.66-.36,1.34-.39,2.03-.04.51-.02,1.04.07,1.55l1.01-1.02c0-.07.02-.13.05-.2v.15l-.05.05s-.01.08-.02.11c-.04.18-.06.37-.08.55-.03.22-.04.45-.04.67,0,1.3.4,2.56,1.23,3.82.07.09.12.18.16.28.06.11.09.2.13.3.02.07.03.14.04.21.11.46.04.93-.21,1.39-.41.74-1.03,1.1-1.89,1.09-2.13-.01-4.27,0-6.39,0,.07.01.14.01.2.01h6.26c1.23,0,2.24-.56,2.86-1.58.15-.26.27-.51.35-.76.35-.99.24-2-.35-2.97-.27-.43-.5-.86-.66-1.26-.27-.63-.4-1.3-.38-1.97,0-.44.05-.86.17-1.29.14-.53.34-1.03.63-1.5l-.11.7c-.02.13-.04.26-.07.41.07-.07.14-.12.2-.19.15-.15.3-.32.45-.49.22-.25.43-.48.65-.65,1.88-1.5,4.34-1.65,6.44-.41,1.64.96,2.67,2.87,2.67,4.78t0,.02c0,.23-.01.47-.04.7-.14.92-.45,1.75-.97,2.53-.2.32-.35.65-.45.97.05.75.37,1.45.95,2.04.45.46,1,.75,1.66.86-.51-.12-.94-.42-1.25-.91-.39-.62-.44-1.26-.18-1.87-.11-.5,0-1.03.33-1.56.48-.82.9-1.64,1.1-2.59,0,.23-.03.46-.05.69-.16,1.1-.54,2.1-1.15,3-.1.15-.18.3-.23.46.05.41.26.77.59,1.12.08.09.17.16.26.22.19.13.4.22.62.27.06.02.13.03.19.03-.02,0-.04,0-.06-.02-.02,0-.03,0-.05-.02-.04-.01-.07-.02-.1-.05-.03-.01-.06-.03-.09-.06-.04-.03-.07-.06-.09-.09-.04-.04-.08-.09-.11-.15-.24-.37-.23-.67.03-1.06.03-.02.04-.06.06-.08-.21-.32-.18-.67.06-1.07.64-1.07,1.04-2.03,1.25-3,0-.03.01-.04.01-.06.24-1.18.15-2.46-.2-3.67.57,1.28.8,2.6.69,3.98.82-3.41-.14-6.2-2.89-8.46.93.65,1.76,1.49,2.43,2.52,1.27,1.94,1.79,3.99,1.59,6.1.83-3.6-.11-6.82-3.16-9.4.97.71,1.83,1.61,2.52,2.66,1.43,2.18,2.02,4.51,1.77,6.95.94-4.19-.31-7.81-3.69-10.6Zm-11.43,4.55c-.33.31-.63.69-.95,1.01-.14.15-.3.27-.45.39l-.42.42c.36-1.19,1.06-2.27,2.03-3.08l-.21,1.26Z"/>
    </g>
    <g>
      <path class="cls-1" d="m46.81,46.53c-.54-.49-1.09-.99-1.63-1.48-.02-.17-.06-.35-.06-.52,0-4.18,0-8.36,0-12.55,0-.6.13-1.14.58-1.58.75-.73,1.72-.85,2.68-.26.83.5,1.68.91,2.64,1.11,2.4.51,5.3-.62,6.7-2.65,1.55-2.25,1.76-4.62.58-7.09-1.42-2.99-5.14-4.42-8.19-3.14-.5.21-.98.47-1.43.75-.85.53-1.69.5-2.52,0-.7-.42-1.04-1.06-1.03-1.88,0-2.08,0-4.16,0-6.25,0-.2.08-.4.12-.61.49-.46.98-.92,1.46-1.38.41.42.81.84,1.22,1.26.06.23.16.46.16.69.02,1.43,0,2.87,0,4.3,0,.19,0,.38,0,.57,5.8-1.86,10.39-.45,13.12,5.09,1.67,3.4,1.04,6.91-1.34,9.79-3.13,3.79-7.18,4.43-11.74,2.59-.01.23-.03.45-.03.67,0,3.52,0,7.03,0,10.55,0,.28-.04.55-.07.83-.41.39-.81.79-1.22,1.18Z"/>
      <path class="cls-1" d="m62.26,20.41c-2.65-5.38-7.13-7.47-13-6.09v-.05c0-1.1,0-2.21,0-3.32-.01-.21-.04-.39-.08-.55-.02-.09-.05-.17-.07-.24l-.12-.46-.48-.5-.21-.21-.18-.19-.33-.33-.29-.3h0s-.15-.16-.15-.16l-.47-.48-.05-.05-.07-.08h-.01s-.7.67-.7.67l-.14.13-.37.35h0s-.32.31-.32.31l-.02.02-.11.11-.34.31-.37.35-.16.15-.04.17-.06.31c-.03.1-.06.2-.09.33v.02c-.02.11-.03.23-.03.36v6.25c0,1.23.56,2.25,1.59,2.86.86.53,1.75.68,2.63.46.37-.09.73-.24,1.09-.46s.72-.42,1.05-.57c.08-.04.15-.07.22-.1,1.12-.47,2.37-.48,3.5-.12.68.21,1.32.55,1.87,1,.55.46,1.01,1.03,1.33,1.7.99,2.08.83,4.02-.49,5.94-.34.5-.8.93-1.34,1.28-.03.02-.05.04-.08.06-1.2.77-2.75,1.13-4.08.84-.73-.16-1.44-.46-2.28-.97-1.33-.81-2.82-.69-3.94.29-.05.04-.1.08-.15.13-.62.61-.92,1.39-.92,2.4v12.55c0,.16.02.34.04.5v.02l.02.18.05.38.1.09.16.14.02.03h.01l.52.48.24.22.02.02.04.03.02.02.79.72.07.06.18.16.16.15.42.38.05-.04h0s.05-.06.05-.06l.27-.26.51-.49.22-.22.09-.09h.01s0-.01,0-.02l.06-.05.18-.18.57-.55.16-.15.12-.12.03-.28v-.05l.03-.33s.01-.05.01-.08c.02-.2.04-.42.04-.62v-9.19s0-.42,0-.42c1.91.56,3.71.67,5.38.36,2.32-.44,4.39-1.72,6.13-3.82,2.76-3.34,3.3-7.36,1.49-11.04Zm-13.69,11.82l-1.49-.6-.02.4-.08,1.42c-.01.17-.02.35-.02.52v9.3s-.01,1.31-.01,1.31c0,.08,0,.15,0,.23l-.15.14-.1-.09-.41-.37v-12.51c0-.36.07-.55.15-.67.03-.03.05-.06.08-.08.39-.38.78-.41,1.28-.11,1.07.65,2.02,1.05,2.99,1.26,1.99.43,4.25-.1,5.99-1.28.75-.5,1.4-1.13,1.9-1.85,1.03-1.5,1.54-3.04,1.54-4.62v-.1c-.02-1.15-.31-2.32-.87-3.51-.84-1.77-2.33-3.07-4.06-3.74-.68-.27-1.41-.44-2.14-.5h-.01c-.53-.05-1.06-.04-1.59.04-.63.07-1.26.24-1.87.49-.03,0-.05.02-.08.04-.49.21-1,.48-1.51.8-.23.14-.44.21-.65.21h-.01c-.22,0-.42-.07-.67-.22-.15-.09-.26-.19-.32-.31-.11-.16-.16-.35-.16-.59v-2.18c0-1.16,0-2.31,0-3.44v-.62l.4-.38h0s.23.24.23.24h0c.02.06.03.09.04.12,0,.44.01.88,0,1.32.01.65.01,1.31.01,1.97v3.14l1.5-.48c.91-.29,1.77-.49,2.58-.61.52-.08,1.03-.12,1.51-.12.63,0,1.24.06,1.81.17,2.49.52,4.42,2.21,5.83,5.06,1.42,2.87.99,5.91-1.19,8.55-1.43,1.74-3.07,2.76-4.94,3.07-1.64.28-3.47,0-5.49-.82Z"/>
    </g>
  </g>
  <g>
    <g>
      <path class="cls-1" d="m91.93,51.66c.04.22.11.44.11.65,0,8,0,16.01,0,24.01,0,.26-.07.51-.11.77-.87.86-1.73,1.72-2.6,2.58-.03-.14-.08-.29-.08-.43,0-9.9,0-19.81,0-29.71,0-.16.06-.32.09-.49.86.87,1.73,1.74,2.59,2.61Z"/>
      <path class="cls-1" d="m93.12,51.71s0-.07-.02-.1l-.1-.51-.95-.96-.17-.17-.98-.99-.74-.74-.93-.87-.15-.14-.48-.45h0s-.06.33-.06.33l-.14.72-.13.7-.08.4s0,.01,0,.02c-.02.15-.07.35-.07.58v.46c0,9.75,0,19.5,0,29.25,0,.17.02.32.06.47.01.07.03.13.04.19l.43,2.09.62-.61,1.15-1.14h0s.5-.5.5-.5l1.14-1.14.97-.96.09-.58s0-.03,0-.05c.04-.23.07-.46.07-.69,0-8,0-16,0-24.01,0-.23-.04-.43-.08-.6Zm-2.71,25.28c0-8.39,0-16.78.01-25.22l.46.46s.02.06.02.09v24c0,.07-.02.14-.03.21l-.46.46Z"/>
    </g>
    <g>
      <path class="cls-1" d="m78.32,90.72c-.24.04-.47.11-.71.11-7.58,0-15.15,0-22.73,0-.22,0-.44-.08-.66-.12-.86-.85-1.72-1.71-2.59-2.56.25-.04.49-.1.74-.1,9.35,0,18.7,0,28.05,0,.15,0,.3.04.45.07-.85.87-1.7,1.74-2.55,2.61Z"/>
      <path class="cls-1" d="m80.96,86.96s-.05-.01-.07-.01c-.15-.04-.3-.06-.46-.06h-28.05c-.24,0-.47.04-.71.09h-.01l-2.28.33-.18.03.18.18.53.52,1.17,1.16.48.48,1.15,1.14.96.95.5.1.12.03c.17.04.37.07.59.07,4.66.01,9.32.01,13.98.01h8.75c.25,0,.47-.04.65-.08.02,0,.05-.01.07-.01l.55-.1.94-.96,1.13-1.15.47-.48.28-.29.8-.88.67-.73-2.21-.34Zm-2.76,2.25l-.45.45c-.05.01-.11.02-.14.02-7.57,0-15.15,0-22.72-.01-.03,0-.06,0-.08-.01l-.48-.47c7.94,0,15.87,0,23.86.02h0Z"/>
    </g>
    <g>
      <path class="cls-1" d="m51.64,88.14c.86.85,1.72,1.71,2.59,2.56-.16.04-.31.12-.47.12-2.66,0-5.32.02-7.98,0-2.14-.02,1.87-.08-.27-.12-.14,0-.27-.08-.4-.12.87-.86-.87-1.72,0-2.57.2-.03-.2-.08,0-.09.95,0-1.03,0,0,0,0-.94-.01-1.82,0-2.71,0-.31.09-.61.13-.92.42-.42.84-.83,1.26-1.25.5.46,1,.92,1.5,1.38.03.92.06,1.85.09,2.77,0,.27.03.54.05.84,1,0,1.92,0,2.85,0,.22,0,.44.07.66.1Z"/>
      <path class="cls-1" d="m49.38,88.15c.01-.06.01-.09.01-.11h0s-.01-.52-.01-.52l-.18-.18.18-.03v-.42h-.15s-.05-.01-.05-.01v-1.14s0-.32,0-.32l-.04-.98v-.29c0-.1-.03-.19-.05-.28l-.12-.11-.04-.03-.79-.73-.11-.1-.05-.05-.39-.36-.06-.06h-.46c-.13.12-.26.24-.38.36.27.27.54.53.8.8h.09l-.24.24-.62.62-.19.19.33.31.03.81h0s.04,1.47.04,1.47c0,.2.02.39.03.59v.21s.08,1.15.08,1.15h0s2.38.01,2.38.01c.06-.31.07-.67-.05-1.04Zm0,0c.01-.06.01-.09.01-.11h0s-.01-.52-.01-.52l-.18-.18.18-.03v-.42h-.15s-.05-.01-.05-.01v-1.14s0-.32,0-.32l-.04-.98v-.29c0-.1-.03-.19-.05-.28l-.12-.11-.04-.03-.79-.73-.11-.1-.05-.05-.39-.36-.06-.06h-.46c-.13.12-.26.24-.38.36.27.27.54.53.8.8h.09l-.24.24-.62.62-.19.19.33.31.03.81h0s.04,1.47.04,1.47c0,.2.02.39.03.59v.21s.08,1.15.08,1.15h0s2.38.01,2.38.01c.06-.31.07-.67-.05-1.04Zm6.6,2.67l-1.17-1.16-.48-.47-1.16-1.15-.98-.97-.52-.09h-.01c-.23-.05-.44-.08-.66-.09-.54,0-1.08-.01-1.63,0h-.14s-.04-1.47-.04-1.47l-.04-.98v-.53s-.05-.04-.05-.04l-.12-.11-.04-.03-.79-.73-.11-.1-.05-.05-.39-.36-.06-.06-.24-.21-.82-.76-.55.54-.2.2-.42.41h0s-.2.2-.2.2l-.19.19-.75.74v.03s-.01,0-.01.02l-.09.58c0,.05-.02.09-.02.14-.05.22-.08.45-.09.68-.01.52-.01,1.04-.01,1.58h-.3v1.15c0,.05,0,.09.02.15,0,.08.02.18.05.27-.02.22,0,.43.04.62.02.09.04.17.06.25.06.18.13.34.19.46.02.05.05.1.07.14.02.04.04.08.06.13l-.77.88-.2.23.97.38c.32.53,1.09.54,1.64.54h.12c1,.01,2.01.02,3.02.02,1.17,0,2.34-.01,3.52-.01h1.33c.19-.01.36-.04.52-.08.08-.03.15-.05.23-.08l1.95-.51-.49-.49Zm-6.67-1.13h-1.2c-.51,0-1.03,0-1.54-.01,0,0-.03-.01-.04-.01-.02-.01-.04-.01-.07-.02-.05-.22-.12-.42-.18-.58,0-.02-.02-.03-.02-.04v-.37c.23-.25.27-.57.26-.75,0-.31-.08-.54-.21-.7l-.06-.08v-.74c0-.39,0-.77,0-1.15.01-.13.03-.26.06-.38l.21-.22h.01l.33.31.03.81h0s.04,1.47.04,1.47c0,.2.02.39.03.59v.21s.08,1.15.08,1.15h0s2.38.01,2.38.01c.52,0,1.04-.01,1.54,0,.04,0,.07.01.11.01l.48.48c-.76.01-1.5.01-2.25.01Zm.07-1.54c.01-.06.01-.09.01-.11h0s-.01-.52-.01-.52l-.18-.18.18-.03v-.42h-.15s-.05-.01-.05-.01v-1.14s0-.32,0-.32l-.04-.98v-.29c0-.1-.03-.19-.05-.28l-.12-.11-.04-.03-.79-.73-.11-.1-.05-.05-.39-.36-.06-.06h-.46c-.13.12-.26.24-.38.36.27.27.54.53.8.8h.09l-.24.24-.62.62-.19.19.33.31.03.81h0s.04,1.47.04,1.47c0,.2.02.39.03.59v.21s.08,1.15.08,1.15h0s2.38.01,2.38.01c.06-.31.07-.67-.05-1.04Z"/>
    </g>
    <g>
      <path class="cls-1" d="m89.34,43.99c.86-.86,1.71.54,2.57-.32.05.15.14.3.14.45,0,4.46,0,2.66,0,7.12,0,.14-.07.28-.11.42-.86-.87-1.73-1.74-2.59-2.61-.05-.74-.09-1.48-.15-2.35h-2.28c-.7-.72-1.39-1.45-2.09-2.17,0-.09,0-.18,0-.28.24-.08.49-.23.73-.24.65-.04,1.29-.02,1.94-.02.57,0,1.14,0,1.76,0,0-1.01,0,2.06,0,1.14,0-.38.05-.76.08-1.14Z"/>
      <path class="cls-1" d="m93.19,44.13c0-.33-.1-.59-.19-.81l-.39-1.2-.19-.59-.96.96-.3.31c-.06-.02-.13-.05-.19-.06-.16-.06-.39-.13-.66-.16-.15-.03-.31-.04-.47-.02h0c-.15,0-.3.03-.46.08h-.11l-.58.02h-.57v.18h-1.13c-.5,0-1-.01-1.5.02-.21.01-.39.06-.55.12h-.01c-.05.01-.1.03-.14.05-.05.02-.09.04-.13.05h0s-.03.01-.04.02l-.93.33v1.56l.21.22.12.13.27.27.41.43.12.12.53.56.15.15.48.5.46.48h1.7l.04.68.02.42.04.6.43.43.61.62,1.16,1.17.46.46.24.24.93.89.49.47.52-1.92c.02-.05.04-.12.06-.2.04-.13.07-.29.07-.47v-2.08q0-1.57,0-3.52v-1.51Zm-5.09,1.01v.11s.02.01.02.01c.01.09.02.19.04.27v.02h-.77l-.37-.38-.03-.03h1.11Zm2.3-.17c.14.04.3.09.49.12v3.89l-.44-.44v-.23s-.15-2.15-.15-2.15l-.02-.38s.02-.06.03-.09c.05-.15.08-.33.09-.54v-.18Z"/>
    </g>
    <g>
      <path class="cls-1" d="m89.34,79.67c.87-.86,1.73-1.72,2.6-2.58.04.14.11.28.11.41,0,2.16.03,4.33,0,6.49-.03,1.8-.72,3.35-1.95,4.66-.03.03-.09.04-.14.06-.63-.61-1.25-1.21-1.88-1.82.06-.12.09-.27.17-.36.73-.85,1.03-1.84,1.01-2.95-.02-1.12,0-2.24,0-3.35,0-.19.06-.37.08-.56Z"/>
      <path class="cls-1" d="m93.2,78.98v-1.49c0-.18-.04-.34-.08-.48-.02-.08-.05-.16-.07-.23l-.53-1.89-.48.48-1.17,1.16-.46.46-1.15,1.14-1,.99-.08.51s-.01.05-.01.08c-.04.17-.06.35-.06.51v.34c0,1.01-.02,2.03,0,3.05.02.89-.21,1.58-.73,2.18-.08.09-.14.18-.18.27-.07.13-.12.25-.16.36l-.34.74.37.36h0l.85.83.36.35.83.8.04.04.48.55.96-.37.13-.05.21-.23c1.46-1.56,2.22-3.39,2.26-5.43.03-1.67.02-3.35,0-5.03Zm-2.31,4.99c-.02,1.14-.35,2.16-.99,3.09l-.36-.34c.6-.91.88-1.96.86-3.15,0-1,0-2,0-2.99v-.34s0,0,0-.01l.5-.49c0,1.41,0,2.82-.02,4.23Z"/>
    </g>
    <g>
      <path class="cls-1" d="m88.08,86.9c.63.61,1.25,1.21,1.88,1.82-.94,1.11-2.19,1.69-3.58,1.98-.44.09-.9.13-1.35.14-2.09.01-4.19,0-6.28,0-.14,0-.28-.07-.42-.11.85-.87,1.7-1.74,2.55-2.61.22-.02.45-.07.67-.07,1.23-.01,2.47,0,3.7-.02.87-.02,1.66-.32,2.35-.86.14-.11.31-.17.47-.26Z"/>
      <path class="cls-1" d="m90.73,87.86l-.83-.8-.36-.34-.84-.82-.43-.41-.85.45c-.07.03-.15.07-.23.12-.1.05-.2.11-.3.19-.51.4-1.05.61-1.66.62-.75.01-1.5.02-2.26.02h-1.43c-.2,0-.4.03-.6.05h-.05s-.54.07-.54.07l-1.01,1.03-1.15,1.17-.44.45-.25.25-.84.92-.46.5,1.88.52s.11.04.18.05c.13.05.29.08.48.08,1.16,0,2.32.01,3.48.01.94,0,1.88-.01,2.82-.01.55-.01,1.08-.06,1.57-.16,1.68-.35,2.99-1.04,3.98-2.1.08-.08.16-.17.24-.26l.7-.83-.8-.77Zm-9.78,1.82l.47-.48s.09-.01.14-.01h1.42c.76-.01,1.53-.01,2.29-.02.96-.02,1.85-.3,2.65-.82l.36.35c-.57.4-1.27.68-2.14.87-.34.07-.72.1-1.12.11-1.36.01-2.71.01-4.07,0Z"/>
    </g>
    <g>
      <path class="cls-1" d="m47.96,81.6s.12.05.11.08c-.02.92-.05,1.83-.07,2.75-.5-.46-1-.92-1.5-1.38,0-.02,0-.05,0-.07.49-.46.98-.92,1.46-1.38Z"/>
      <path class="cls-1" d="m49.08,86.97l-3.63-3.33-.15-1.11,2.52-2.37.72.46.6.31.08.76c-.02.94-.05,1.85-.07,2.77l-.07,2.52Z"/>
    </g>
    <g>
      <path class="cls-1" d="m46.49,82.97s0,.05,0,.07c-.42.42-.84.83-1.26,1.25-.05-.08-.13-.16-.13-.23-.01-.69-.01-1.37,0-2.06,0-.09.1-.19.16-.28.41.42.81.84,1.22,1.26Z"/>
      <path class="cls-1" d="m47.74,83.38l-.1-.53-.04-.36v-.02l-.04-.04-.23-.24-.8-.83-.23-.23s0-.01,0-.02l-1-1.05-.18-.18-.03-.04-.03-.03-.76,1.32s-.06.08-.1.14c-.05.08-.1.17-.15.28h0c-.04.13-.07.27-.07.42-.02.71,0,1.41,0,2.11,0,.16.03.31.08.43.03.09.07.17.12.23.03.07.07.11.09.14l.09.15.66,1.13.1-.1.22-.22.99-.98.21-.22h.01l.19-.19.62-.62.4-.4v-.05Z"/>
    </g>
    <g>
      <path class="cls-1" d="m82.73,46.59c-.21.05-.43.14-.64.14-1.4.01-2.8,0-4.19,0-.2,0-.41,0-.61,0,.26.89.57,1.7.74,2.55.12.63.06,1.3.08,1.96-1.18,1.19-2.35,2.38-3.53,3.57.02-.15.02-.31.08-.44,1.18-2.45,1.1-4.81-.42-7.11-.46-.69-.51-1.45-.11-2.19.4-.73,1.02-1.1,1.88-1.1,2.62.01,5.25,0,7.87.01.31,0,.63.16.94.25,0,.09,0,.18,0,.27-.69.69-1.39,1.38-2.08,2.07Z"/>
      <path class="cls-1" d="m80.78,45.81l.14-.22c-.69.01-1.38.01-2.07.01h-3.11l.33,1.1h4.87l.35-.34-.51-.55Zm0,0l.14-.22c-.69.01-1.38.01-2.07.01h-3.11l.33,1.1h4.87l.35-.34-.51-.55Zm4.34-2.67s-.04-.01-.06-.02c-.05-.01-.11-.03-.16-.05-.04,0-.08-.03-.12-.04-.02,0-.04-.02-.06-.02-.24-.08-.52-.15-.84-.16-1.44-.01-2.88,0-4.32,0-1.19,0-2.37,0-3.55-.01h-.02c-1.26,0-2.29.6-2.88,1.7-.2.37-.33.75-.38,1.14-.09.67.04,1.35.4,1.98.04.09.09.17.14.25.58.88.92,1.77,1,2.68h0c.11,1.07-.11,2.16-.66,3.29-.06.12-.09.23-.12.34-.03.15-.05.28-.06.4l-.29,1.61h0s-.2,1.15-.2,1.15l-.09.5-.06.36,1.32-1.33.06-.06,1.2-1.21.89-.9h0s.07-.08.07-.08l1.22-1.22.5-.51.64-.65.57-.57v-.4s0-.1,0-.1c-.01-.18-.01-.37-.01-.56.01-.3.01-.64-.02-.97,0-.2-.03-.4-.07-.6,0-.04-.02-.09-.03-.13-.02-.1-.04-.2-.07-.3,0-.04-.02-.08-.03-.12-.05-.22-.11-.42-.17-.63.77-.01,1.55,0,2.32-.01h.93c.19-.01.35-.03.5-.07.02,0,.04,0,.06,0,.02-.01.04-.01.06-.02.05-.01.1-.03.14-.04l.16-.04.29-.07.44-.44.48-.48.29-.28.05-.05.23-.23.81-.81.36-.35v-1.62l-.85-.24Zm-9.49,4.24c-.12-.22-.25-.45-.39-.67-.02-.02-.03-.05-.05-.07-.23-.35-.25-.66-.06-1,.01-.03.03-.05.04-.08.19-.3.42-.42.82-.42h.01c1.19.01,2.37.01,3.56.01h3l-.43.42s-.04.01-.05.02h-.19c-.32,0-.65.01-.97,0-.69.01-1.38.01-2.07.01h-3.11l.33,1.1.11.37c.03.11.06.21.1.31.05.17.1.34.16.51.18.57.35,1.1.45,1.62.06.32.06.71.05,1.12v.15l-.33.34c0-1.28-.32-2.53-.98-3.74Zm5.15-1.57l.14-.22c-.69.01-1.38.01-2.07.01h-3.11l.33,1.1h4.87l.35-.34-.51-.55Z"/>
    </g>
    <g>
      <path class="cls-1" d="m82.73,46.59c.69-.69,1.39-1.38,2.08-2.07.7.72,1.39,1.45,2.09,2.17-1.31.01-2.62.03-3.93.03-.08,0-.16-.09-.25-.14Z"/>
      <path class="cls-1" d="m82.98,47.88c-.44,0-.74-.22-.86-.31l-1.28-.76,4-3.92,4.76,4.94-3.51.03c-1.03.01-2.06.02-3.1.02Z"/>
    </g>
    <g>
      <path class="cls-1" d="m46.39,45.39c.52-.5,1.04-.99,1.56-1.49.31.03.62.09.93.09,4.15,0,8.29.01,12.44,0,.8,0,1.43.3,1.85.98.48.77.45,1.56-.05,2.31-.61.92-.99,1.91-1.14,3.01-.36,2.6.92,5.32,3.18,6.66,2.49,1.48,5.47,1.3,7.74-.5.45-.35.8-.83,1.2-1.24.14-.14.3-.26.45-.39,1.18-1.19,2.35-2.38,3.53-3.57.02.37.1.75.05,1.11-.53,3.66-2.5,6.28-5.89,7.67-4.11,1.68-8.94.31-11.48-3.55-1.82-2.76-2.08-5.71-1-8.8.1-.29.25-.56.4-.9-.24-.02-.41-.04-.57-.04-3.64,0-7.27,0-10.91,0-.22,0-.44.12-.66.19-.54-.49-1.09-.99-1.63-1.48,0-.02,0-.05,0-.07Z"/>
      <path class="cls-1" d="m71.82,58.96c-1.58.64-3.26.77-4.84.44-.13-.03-.26-.06-.39-.09-.12-.02-.25-.06-.37-.1-.14-.04-.28-.09-.42-.14-.13-.05-.27-.11-.41-.16-.15-.06-.3-.14-.46-.22-1.27-.64-2.38-1.6-3.2-2.84-1.02-1.55-1.5-3.16-1.44-4.86-.02.07-.03.15-.05.22-.61,2.85.74,6.24,3.13,7.88.37.26.75.48,1.13.68.3.15.6.28.9.39.11.04.23.08.34.11.19.06.38.11.56.16,1.72.42,3.5.2,5.3-.67,1.21-.57,2.2-1.45,2.92-2.5-.75.7-1.65,1.27-2.7,1.7Zm-10.21-13.24l-1.56-.1c-.17-.01-.31-.02-.45-.02h-.73c-1.35,0-2.7-.01-4.05-.01-1.88,0-3.76.01-5.65.01h-.53c-.12,0-.22.02-.33.04l.43.39-.61.67h12.51c.43,0,.62.1.73.21l.49-1.06.05-.11-.3-.02Zm10.21,13.24c-1.58.64-3.26.77-4.84.44-.13-.03-.26-.06-.39-.09-.12-.02-.25-.06-.37-.1-.14-.04-.28-.09-.42-.14-.13-.05-.27-.11-.41-.16-.15-.06-.3-.14-.46-.22-1.27-.64-2.38-1.6-3.2-2.84-1.02-1.55-1.5-3.16-1.44-4.86-.02.07-.03.15-.05.22-.61,2.85.74,6.24,3.13,7.88.37.26.75.48,1.13.68.3.15.6.28.9.39.11.04.23.08.34.11.19.06.38.11.56.16,1.72.42,3.5.2,5.3-.67,1.21-.57,2.2-1.45,2.92-2.5-.75.7-1.65,1.27-2.7,1.7Zm-10.45-12.05l.49-1.06.05-.11-.3-.02-1.56-.1c-.17-.01-.31-.02-.45-.02h-.73c-1.35,0-2.7-.01-4.05-.01-1.88,0-3.76.01-5.65.01h-.53c-.12,0-.22.02-.33.04l.43.39-.61.67h12.51c.43,0,.62.1.73.21Zm17.9,4.57c-.01-.06-.01-.12-.02-.17,0-.04-.01-.08-.01-.12l-.08-1.51-.04-.73-.02-.35-.05.05-.98.99-.78.79-.35.35-.33.34-.31.31-.5.51-.47.47-.62.63-.89.9-.12.1c-.07.06-.14.12-.21.18-.05.04-.09.07-.13.12-.03.02-.05.04-.07.06-.15.15-.3.32-.45.48-.22.25-.43.49-.64.66-1.89,1.49-4.36,1.65-6.45.41-1.84-1.09-2.92-3.35-2.62-5.51.03-.23.08-.45.13-.67.14-.56.37-1.09.68-1.6.04-.08.09-.17.15-.25.76-1.15.78-2.41.06-3.56-.62-.99-1.59-1.52-2.82-1.52-4.03.01-8.05.01-12.08,0h-.36c-.12,0-.24-.01-.35-.03-.05-.01-.1-.01-.15-.02l-.29-.03-.55-.06-.16.16-.44.41-.33.31-.34.33-.04.04-.16.15-.11.11-.18.16-.02.02-.37.36-.11.1v.08s-.02.2-.02.2l-.03.36.08.54.17.15.08.08h.01l.76.7.05.04.03.03h.01s.47.43.47.43h0s.04.04.04.04l.25.23.02.02.03.03.5.45.3-.09.05-.02.27-.08c.09-.02.19-.06.29-.1.04-.01.09-.03.04-.04h.55c3.09-.01,6.16-.01,9.25-.01-.06.21-.12.43-.17.64-.47,1.88-.46,3.7.04,5.43v.02c.29,1.08.78,2.11,1.45,3.13,2,3.05,5.38,4.77,8.87,4.77,1.35,0,2.7-.26,4.01-.79.05-.02.09-.04.13-.06.01.01.01,0,.01,0,2.58-1.09,4.46-2.89,5.54-5.28.45-.98.75-2.06.92-3.23.05-.39,0-.75-.02-1.04Zm-8.06,7.19c.57-.19,1.11-.45,1.64-.79.27-.16.53-.34.78-.54.17-.14.33-.28.48-.43l.06-.06c.14-.15.27-.3.39-.44s.24-.27.37-.4c.06-.06.14-.12.21-.17l.24-.24.88-.87.06-.06c-.02.06-.04.11-.08.16,0,.01,0,.02,0,.03-.41.93-.99,1.73-1.71,2.4-.75.7-1.65,1.27-2.7,1.7-1.58.64-3.26.77-4.84.44-.13-.03-.26-.06-.39-.09-.12-.02-.25-.06-.37-.1-.14-.04-.28-.09-.42-.14-.13-.05-.27-.11-.41-.16-.15-.06-.3-.14-.46-.22-1.27-.64-2.38-1.6-3.2-2.84-1.02-1.55-1.5-3.16-1.44-4.86.02-.94.21-1.92.57-2.93.05-.16.13-.3.2-.47l.31-.68.49-1.06.05-.11-.3-.02-1.56-.1c-.17-.01-.31-.02-.45-.02h-.73c-1.35,0-2.7-.01-4.05-.01-1.88,0-3.76.01-5.65.01h-.53c-.12,0-.22.02-.33.04l-.1-.09-.16-.15.21-.2.1-.1c.09.01.18.02.26.03h.01c.09.01.17.01.26.01h12.44c.5,0,.71.17.87.44.16.25.21.46.14.7-.02.12-.08.24-.17.37-.18.27-.34.54-.48.82h0c-.24.46-.42.92-.57,1.4-.12.41-.21.83-.27,1.26-.21,1.51.04,3.03.66,4.38.01.01.01.02.01.03.66,1.39,1.71,2.59,3.06,3.39,2.1,1.25,4.47,1.48,6.62.74h.01Zm-9.6-12.95l-1.56-.1c-.17-.01-.31-.02-.45-.02h-.73c-1.35,0-2.7-.01-4.05-.01-1.88,0-3.76.01-5.65.01h-.53c-.12,0-.22.02-.33.04l.43.39-.61.67h12.51c.43,0,.62.1.73.21l.49-1.06.05-.11-.3-.02Zm10.21,13.24c-1.58.64-3.26.77-4.84.44-.13-.03-.26-.06-.39-.09-.12-.02-.25-.06-.37-.1-.14-.04-.28-.09-.42-.14-.13-.05-.27-.11-.41-.16-.15-.06-.3-.14-.46-.22-1.27-.64-2.38-1.6-3.2-2.84-1.02-1.55-1.5-3.16-1.44-4.86-.02.07-.03.15-.05.22-.61,2.85.74,6.24,3.13,7.88.37.26.75.48,1.13.68.3.15.6.28.9.39.11.04.23.08.34.11.19.06.38.11.56.16,1.72.42,3.5.2,5.3-.67,1.21-.57,2.2-1.45,2.92-2.5-.75.7-1.65,1.27-2.7,1.7Z"/>
    </g>
    <g>
      <path class="cls-1" d="m46.4,45.46c.54.49,1.09.99,1.63,1.48.02.17.06.35.06.52,0,4.18,0,8.36,0,12.55,0,.6-.13,1.14-.58,1.58-.75.73-1.72.85-2.68.26-.83-.5-1.68-.91-2.64-1.11-2.4-.51-5.3.62-6.7,2.65-1.55,2.25-1.76,4.62-.58,7.09,1.42,2.99,5.14,4.42,8.19,3.14.5-.21.98-.47,1.43-.75.85-.53,1.69-.5,2.52,0,.7.42,1.04,1.06,1.03,1.88,0,2.08,0,4.16,0,6.25,0,.2-.08.4-.12.61-.49.46-.98.92-1.46,1.38-.41-.42-.81-.84-1.22-1.26-.06-.23-.16-.46-.16-.69-.02-1.43,0-2.87,0-4.3,0-.19,0-.38,0-.57-5.8,1.86-10.39.45-13.12-5.09-1.67-3.4-1.04-6.91,1.34-9.79,3.13-3.79,7.18-4.43,11.74-2.59.01-.23.03-.45.03-.67,0-3.52,0-7.03,0-10.55,0-.28.04-.55.07-.83.41-.39.81-.79,1.22-1.18Z"/>
      <path class="cls-1" d="m49.23,47.2v-.03c-.02-.08-.03-.15-.04-.23l-.02-.19v-.05s-.05-.32-.05-.32l-.26-.23-.12-.12-.43-.39-.1-.09-.16-.15-.04-.03-.04-.03-.58-.53-.19-.18-.14-.13-.11-.09-.42-.39-.16-.14-.09.09-.04.04-.08.07-.16.15-.17.18-.06.05-.49.47-.1.11h0s-.02.02-.02.02h0l-.31.3-.02.03h-.02s-.27.27-.27.27l-.04.04-.14.14-.28.27v.1s-.02.17-.02.17l-.04.4h0s0,.05,0,.07c-.01.08-.02.17-.03.26,0,.12,0,.24,0,.36v9.61c-4.57-1.34-8.53-.16-11.52,3.46-2.75,3.34-3.3,7.36-1.49,11.04.08.17.17.34.26.5,0,.02.02.04.03.06,1.11,2.04,2.5,3.57,4.16,4.56,0,0,0,.01.02.01.99.59,2.07,1,3.24,1.2.14.03.27.05.4.07.39.05.78.08,1.19.09h.03c.49.02,1,.01,1.52-.05h.05c.28-.02.56-.06.85-.11.21-.03.43-.06.65-.11.19-.03.38-.08.57-.12.02,0,.03-.01.04-.01v.08c0,1.1-.01,2.19,0,3.29,0,.19.03.36.07.51h0c.02.11.05.2.07.28l.04.16v.02l.08.28.69.71.19.2.2.21.12.12h0l.22.23.06.07.46.48.02.02.05.05.21.21s0,0,0-.01c.07-.06.13-.13.2-.19l.64-.6.21-.2.22-.21.15-.13.14-.14.12-.11.2-.19.29-.27.37-.35.11-.48c.02-.07.04-.15.05-.24.01-.02.02-.05.02-.07.02-.12.04-.25.04-.4,0-1.43,0-2.85,0-4.28v-1.97c0-1.23-.57-2.25-1.59-2.87-1.23-.74-2.52-.74-3.72.01-.45.28-.87.49-1.28.66-2.47,1.04-5.54-.14-6.7-2.57-.99-2.08-.83-4.02.49-5.94.12-.17.25-.34.4-.49.05-.06.1-.11.15-.16,1.26-1.23,3.28-1.89,4.96-1.53.72.15,1.44.46,2.28.97,1.18.73,2.5.71,3.57,0,.17-.12.33-.25.49-.4l.06-.06c.08-.09.16-.19.24-.29.43-.55.64-1.23.64-2.07v-10.33s0-2.3,0-2.3c0-.06,0-.12,0-.18Zm-2.29,12.81c0,.4-.09.58-.2.7,0,.02-.02.03-.04.05-.38.38-.78.41-1.28.11-1.06-.65-2.01-1.05-2.99-1.26-1.5-.32-3.16-.1-4.62.54-.13.06-.27.12-.4.18,0,.01-.03.02-.05.02-.43.21-.83.46-1.21.74-.25.19-.49.38-.71.6-.12.11-.22.22-.33.33-.11.11-.22.23-.3.35-.05.06-.1.12-.14.18-.05.06-.09.12-.13.19-1.8,2.61-2.02,5.38-.67,8.23.12.25.25.48.39.71,1.06,1.71,2.76,2.88,4.64,3.33.61.16,1.23.24,1.86.23.94-.01,1.88-.19,2.78-.56.52-.22,1.04-.49,1.6-.84.46-.29.83-.28,1.32.01.34.21.48.47.48.9v1.97c0,1.42,0,2.85,0,4.24v.03l-.05.04h0s-.14.13-.14.13h0s0,.02,0,.02l-.2.18-.23-.23s0-.01,0-.02c-.01-.04-.02-.07-.03-.09v-.35c0-.97,0-1.95,0-2.91v-3.18l-1.5.48c-.45.14-.89.27-1.32.37-.57.13-1.11.23-1.63.29-.18.02-.35.03-.51.04-.59.04-1.14.03-1.67-.03-.8-.08-1.53-.27-2.22-.57-.42-.18-.83-.41-1.21-.68,0,.01-.02,0-.03-.02-1.15-.8-2.12-1.96-2.93-3.48-.08-.14-.15-.28-.22-.42-1.42-2.87-.99-5.91,1.19-8.55,2.7-3.27,6.11-4,10.43-2.26l1.49.61.1-1.82c0-.17.02-.34.03-.52v-10.6c0-.07.01-.14.02-.21v-.03l.1-.1.04-.05h.01s.47.43.47.43h0s.04.04.04.04v12.51Z"/>
    </g>
  </g>
  <g>
    <g>
      <path class="cls-1" d="m40.36,90.7c-.22.04-.44.11-.65.11-8,0-16.01,0-24.01,0-.26,0-.51-.07-.77-.11-.86-.87-1.72-1.73-2.58-2.6.14-.03.29-.08.43-.08,9.9,0,19.81,0,29.71,0,.16,0,.32.06.49.09-.87.86-1.74,1.73-2.61,2.59Z"/>
      <path class="cls-1" d="m45.25,87.35l-.14-.03-.92-.16-.54-.1-.56-.1h-.02c-.15-.03-.34-.08-.57-.08-9.91-.01-19.81,0-29.71,0-.17,0-.31.02-.46.06-.07.01-.14.03-.21.05l-2.09.42.61.61,1.15,1.16,1.64,1.64.96.97.58.09s.03.01.05.01c.22.05.46.08.68.08h24.01c.22,0,.42-.04.59-.08.04,0,.08-.01.12-.02l.5-.1.96-.95,1.16-1.15.44-.44h0l.27-.27.03-.03.86-.93.46-.49.15-.16h0Zm-5.46,2.31s-.05.01-.08.01c-8,.01-16,0-24.01,0-.07,0-.13-.01-.2-.03l-.46-.46c8.39,0,16.77,0,25.21.02l-.46.46Z"/>
    </g>
    <g>
      <path class="cls-1" d="m1.31,77.09c-.04-.24-.11-.47-.11-.71,0-7.58,0-15.15,0-22.73,0-.22.08-.44.12-.66.85-.86,1.71-1.72,2.56-2.59.04.25.1.49.1.74,0,9.35,0,18.7,0,28.05,0,.15-.04.3-.07.45-.87-.85-1.74-1.7-2.61-2.55Z"/>
      <path class="cls-1" d="m5.05,50.44l-.16-1.11-.19-1.33h0v-.04l-.03.03h0s-.66.68-.66.68h0s-.76.77-.76.77l-.4.4-.48.49-1.14,1.15-.95.96-.1.51s0,.05,0,.07v.02c-.04.17-.09.38-.09.62,0,7.57,0,15.15,0,22.73,0,.24.04.46.08.64,0,.02.01.05.01.07l.09.55.97.95,1.14,1.12.49.47h0s.28.28.28.28l.88.79.73.67.35-2.19s0-.02.01-.03v-.02c.03-.16.05-.33.05-.49.01-9.35.01-18.7,0-28.05,0-.24-.03-.47-.08-.71Zm-2.68,26.09c0-.06-.02-.12-.02-.15-.01-7.57-.01-15.14,0-22.71,0-.04,0-.07.02-.09l.46-.47c0,7.94,0,15.87-.01,23.86l-.45-.44Z"/>
    </g>
    <g>
      <path class="cls-1" d="m3.88,50.41c-.85.86-1.71,1.72-2.56,2.59-.04-.16-.12-.31-.12-.47,0-2.66-.02-5.32,0-7.98.02-2.14.08,1.87.12-.27,0-.14.08-.27.12-.4.86.87,1.72-.87,2.57,0,.03.2.08-.2.09,0,0,.95,0-1.03,0,0,.94,0,1.82-.01,2.71,0,.31,0,.61.09.92.13.42.42.83.84,1.25,1.26-.46.5-.92,1-1.38,1.5-.92.03-1.85.06-2.77.09-.27,0-.54.03-.84.05,0,1,0,1.92,0,2.85,0,.22-.07.44-.1.66Z"/>
      <path class="cls-1" d="m9.05,46.81h-.13c-.4-.01-.79-.02-1.18-.04,0-.01-.02-.02-.03-.02-.01-.02-.03-.03-.05-.05h0s-.04-.04-.07-.06c-.08-.09-.15-.17-.23-.25-.02-.02-.03-.04-.05-.06l-.11-.11c-.11-.12-.22-.23-.34-.34h0s0-.01,0-.01l.21-.23h-.43s0,.01,0,.01l-1.53.05h0l-.31.02c-.2,0-.4.01-.62.03l-1.26.07h-.07v3.92s0,.07-.02.1l.4-.4.77-.77.66-.67h0s.03-.04.03-.04v.03h.82l1.73-.05h.36s.07-.01.07-.01h.07s.16-.01.16-.01h.03s.19-.01.19-.01l.09-.1.18-.2h0s.62-.69.62-.69l-.03-.04s.03-.05.06-.07Zm-1.46-.17c-.08-.09-.15-.17-.23-.25-.02-.02-.03-.04-.05-.06l-.11-.11c-.11-.12-.22-.23-.34-.34h0s0-.01,0-.01l.21-.23h-.43s0,.01,0,.01l-1.53.05h0l-.31.02c-.2,0-.4.01-.62.03l-1.26.07h-.07v3.92s0,.07-.02.1l.4-.4.76-.76h0s0-.01,0-.01l.66-.67h-.66v-1.09c.3-.02.57-.04.84-.05.21-.01.41-.01.62-.02h.03c.17-.01.34-.01.51-.02h.2c.42-.02.83-.03,1.25-.04h0s.15,0,.15,0l.06-.06s-.04-.05-.07-.07Zm0,0c-.08-.09-.15-.17-.23-.25-.02-.02-.03-.04-.05-.06l-.11-.11c-.11-.12-.22-.23-.34-.34h0s0-.01,0-.01l.21-.23h-.43s0,.01,0,.01l-1.53.05h0l-.31.02c-.2,0-.4.01-.62.03l-1.26.07h-.07v3.92s0,.07-.02.1l.4-.4.76-.76h0s0-.01,0-.01l.66-.67h-.66v-1.09c.3-.02.57-.04.84-.05.21-.01.41-.01.62-.02h.03c.17-.01.34-.01.51-.02h.2c.42-.02.83-.03,1.25-.04h0s.15,0,.15,0l.06-.06s-.04-.05-.07-.07Zm2.24-2.13l-.04-.04h-.01s-.34-.35-.34-.35v-.02s-.23-.22-.23-.22l-.93-.93-.62-.11s-.07-.01-.11-.02c0,0-.02,0-.02,0-.23-.05-.45-.08-.69-.08-.53-.01-1.05-.01-1.59-.01v-.31h-1.15s-.09.01-.15.02c-.08,0-.17.02-.26.06-.09-.01-.17-.01-.26,0h-.01c-.52.01-.97.23-1.2.35,0,.01-.03.01-.04.03-.03.01-.05.03-.09.04l-.92-.81-.21-.18-.38.98c-.51.33-.52,1.09-.52,1.63-.02,1.19-.02,2.37-.02,3.56v3.11l.02,1.34c0,.18.03.32.08.47v.02c0,.08.04.16.07.24l.49,1.97.51-.51,1.16-1.16.46-.47h0s1.14-1.16,1.14-1.16h0s.96-.99.96-.99l.1-.52s0-.01.01-.02h0c.03-.23.07-.44.08-.66v-1.76h.37s1.73-.06,1.73-.06h.36s.07-.01.07-.01h.07s.16-.01.16-.01h.03s.19-.01.19-.01l.09-.1.18-.2h0s.62-.69.62-.69l.11-.11.11-.12.26-.29h0s.3-.33.3-.33l.02-.02v-.02s.03-.03.03-.03l.58-.62h0s.11-.14.11-.14l-.73-.73Zm-7.49.83s.03-.07.04-.11c.17-.03.33-.08.47-.15.06-.01.1-.03.15-.05h.37c.22.19.47.26.65.25h0s.09.01.09.01c.2,0,.36-.03.5-.09h.02s.01-.01.01-.02c.07-.02.13-.06.18-.1l.08-.05c.64,0,1.27,0,1.89.01.13,0,.25.02.37.04l.2.2h0l.02.02h0s-.31.34-.31.34h-.43s0,.01,0,.01l-1.53.05h0l-.31.02c-.2,0-.4.01-.62.03l-1.26.07h-.07v3.92s0,.07-.02.1l-.48.49v-4.99Zm5.25,1.3c-.08-.09-.15-.17-.23-.25-.02-.02-.03-.04-.05-.06l-.11-.11c-.11-.12-.22-.23-.34-.34h0s0-.01,0-.01l.21-.23h-.43s0,.01,0,.01l-1.53.05h0l-.31.02c-.2,0-.4.01-.62.03l-1.26.07h-.07v3.92s0,.07-.02.1l.4-.4.76-.76h0s0-.01,0-.01l.66-.67h-.66v-1.09c.3-.02.57-.04.84-.05.21-.01.41-.01.62-.02h.03c.17-.01.34-.01.51-.02h.2c.42-.02.83-.03,1.25-.04h0s.15,0,.15,0l.06-.06s-.04-.05-.07-.07Zm1.46.17h-.13c-.4-.01-.79-.02-1.18-.04,0-.01-.02-.02-.03-.02-.01-.02-.03-.03-.05-.05h0s-.04-.04-.07-.06c-.08-.09-.15-.17-.23-.25-.02-.02-.03-.04-.05-.06l-.11-.11c-.11-.12-.22-.23-.34-.34h0s0-.01,0-.01l.21-.23h-.43s0,.01,0,.01l-1.53.05h0l-.31.02c-.2,0-.4.01-.62.03l-1.26.07h-.07v3.92s0,.07-.02.1l.4-.4.77-.77.66-.67h0s.03-.04.03-.04v.03h.82l1.73-.05h.36s.07-.01.07-.01h.07s.16-.01.16-.01h.03s.19-.01.19-.01l.09-.1.18-.2h0s.62-.69.62-.69l-.03-.04s.03-.05.06-.07Z"/>
    </g>
    <g>
      <path class="cls-1" d="m48.03,88.11c.86.86-.54,1.71.32,2.57-.15.05-.3.14-.45.14-4.46,0-2.66,0-7.12,0-.14,0-.28-.07-.42-.11.87-.86,1.74-1.73,2.61-2.59.74-.05,1.48-.09,2.35-.15,0-.76,0-1.52,0-2.28.72-.7,1.45-1.39,2.17-2.09.09,0,.18,0,.28,0,.08.24.23.49.24.73.04.65.02,1.29.02,1.94,0,.57,0,1.14,0,1.76,1.01,0-2.06,0-1.14,0,.38,0,.76.05,1.14.08Z"/>
      <path class="cls-1" d="m50.13,90.83l-.9-.9c.02-.06.04-.13.06-.19,0-.02,0-.03.02-.05.04-.13.09-.3.12-.5.06-.31.07-.67-.05-1.04.01-.06.01-.09.01-.11h0s-.01-.52-.01-.52v-.63s-.01-.01-.01-.01h-.19v-1.14s0-.32,0-.32c0-.39,0-.78-.03-1.16v-.07s0-.02,0-.04c0-.1-.03-.19-.05-.28-.01-.06-.03-.12-.05-.17-.02-.06-.03-.1-.05-.15-.02-.05-.05-.1-.07-.15h0s-.01-.02-.01-.03l-.28-.83-.04-.1h-1.04s-.52-.01-.52-.01l-.35.34-.2.2-.63.6-.2.19-.04.04-.3.29-.13.12-.84.82-.17.16v1.7l-.53.03-.56.04h-.02l-.59.03-1.05,1.04-1.18,1.17-.46.46-.23.23-.88.93-.46.48,1.89.53s.11.04.19.06c.13.04.29.08.48.08h7.12c.32,0,.58-.11.79-.19l1.82-.58-.38-.37Zm-3.65-3.89v-.77l.41-.39v1.1h-.11v.02c-.11.01-.21.02-.3.04Zm-3,2.29h0l.33-.02,1.21-.08h.01l1.2-.07s.02,0,.04,0c.16.07.36.1.6.11h.17c-.04.15-.08.3-.11.49h-3.9l.44-.44Z"/>
    </g>
    <g>
      <path class="cls-1" d="m12.35,88.11c.86.87,1.72,1.73,2.58,2.6-.14.04-.28.11-.41.11-2.16,0-4.33.03-6.49,0-1.8-.03-3.35-.72-4.66-1.95-.03-.03-.04-.09-.06-.14.61-.63,1.21-1.25,1.82-1.88.12.06.27.09.36.17.85.73,1.84,1.03,2.95,1.01,1.12-.02,2.24,0,3.35,0,.19,0,.37.06.56.08Z"/>
      <path class="cls-1" d="m16.66,90.82l-1.16-1.18-1.61-1.61-.99-1-.5-.08s-.05-.01-.07-.01c-.18-.04-.35-.06-.53-.06h-.32c-1.02-.01-2.04-.02-3.06,0-.88.06-1.58-.22-2.18-.73-.09-.08-.18-.14-.27-.18-.13-.08-.26-.13-.37-.17l-.74-.33-.35.37-.83.85-.35.36-.81.84-.03.04-.54.48.36.95.05.13.23.21c1.56,1.46,3.39,2.22,5.42,2.26.91.02,1.82.02,2.73.02.76,0,1.52,0,2.28-.01h1.5c.19,0,.35-.03.5-.08.08-.02.15-.05.22-.07l1.91-.51-.49-.49Zm-8.2-1.64c1-.02,2-.01,3,0h.33l.5.5c-1.41,0-2.83,0-4.24-.02-1.13-.02-2.15-.34-3.09-.99l.35-.35c.9.59,1.95.84,3.15.86Z"/>
    </g>
    <g>
      <path class="cls-1" d="m5.13,86.85c-.61.63-1.21,1.25-1.82,1.88-1.11-.94-1.69-2.19-1.98-3.58-.09-.44-.13-.9-.14-1.35-.01-2.09,0-4.19,0-6.28,0-.14.07-.28.11-.42.87.85,1.74,1.7,2.61,2.55.02.22.07.45.07.67.01,1.23,0,2.47.02,3.7.02.87.32,1.66.86,2.35.11.14.17.31.26.47Z"/>
      <path class="cls-1" d="m6.09,86.2c-.03-.07-.07-.15-.12-.23-.05-.1-.11-.2-.19-.3-.41-.52-.61-1.06-.62-1.67-.02-.74-.02-1.48-.02-2.23,0-.49,0-.97-.01-1.46,0-.2-.02-.4-.05-.6v-.02l-.06-.57-1.04-1.01-1.16-1.14-.45-.44-.26-.25-.91-.85-.51-.47-.51,1.89c-.02.05-.04.11-.05.18-.05.13-.08.29-.08.48,0,2.1,0,4.2,0,6.3,0,.55.06,1.08.16,1.57.35,1.69,1.04,2.99,2.1,3.98.08.09.17.16.26.24l.82.7.77-.79.8-.84.35-.35.81-.85.42-.43-.45-.84Zm-3.74-2.41c-.01-1.36-.01-2.72-.01-4.07l.49.47v1.59c0,.75,0,1.51.03,2.27.02.95.3,1.84.82,2.64l-.35.36c-.41-.57-.69-1.27-.87-2.14-.07-.34-.11-.72-.11-1.12Z"/>
    </g>
    <g>
      <path class="cls-1" d="m10.42,46.73s-.05.12-.08.11c-.92-.02-1.83-.05-2.75-.07.46-.5.92-1,1.38-1.5.02,0,.05,0,.07,0,.46.49.92.98,1.38,1.46Z"/>
      <path class="cls-1" d="m10.35,47.99c-.74-.02-1.46-.03-2.17-.06l-3.13-.08,3.35-3.64.6-.1.53-.02,2.36,2.51-.47.72-.3.59-.76.08Z"/>
    </g>
    <g>
      <path class="cls-1" d="m9.05,45.26s-.05,0-.07,0c-.42-.42-.83-.84-1.25-1.26.08-.05.16-.13.23-.13.69-.01,1.37-.01,2.06,0,.09,0,.19.1.28.16-.42.41-.84.81-1.26,1.22Z"/>
      <path class="cls-1" d="m8.58,46.51l-2.71-2.73,1.27-.75c.08-.07.38-.29.81-.29.7,0,1.4-.01,2.1,0,.43.01.73.23.85.32l1.3.77-2.66,2.57-.39.02-.56.1Z"/>
    </g>
    <g>
      <path class="cls-1" d="m45.43,81.5c-.05-.21-.14-.43-.14-.64-.01-1.4,0-2.8,0-4.19,0-.2,0-.41,0-.61-.89.26-1.7.57-2.55.74-.63.12-1.3.06-1.96.08-1.19-1.18-2.38-2.35-3.57-3.53.15.02.31.02.44.08,2.45,1.18,4.81,1.1,7.11-.42.69-.46,1.45-.51,2.19-.11.73.4,1.1,1.02,1.1,1.88-.01,2.62,0,5.25-.01,7.87,0,.31-.16.63-.25.94-.09,0-.18,0-.27,0-.69-.69-1.38-1.39-2.07-2.08Z"/>
      <path class="cls-1" d="m47.49,71.88c-1.1-.59-2.32-.54-3.37.16-1.9,1.25-3.85,1.37-5.98.34-.11-.05-.23-.09-.33-.11-.15-.04-.29-.05-.41-.07l-1.49-.25h0l-.1-.02-1.54-.25-.09-.02-.36-.06,3.54,3.49h0s.05.07.05.07l1.67,1.65s0,0,0,0l1.23,1.21h.41s.08,0,.08,0c.19-.01.38-.01.56-.01.14,0,.28.01.43.01h.05c.35,0,.73-.02,1.1-.1.04-.01.09-.02.13-.03.1-.02.2-.04.3-.07.19-.04.37-.09.54-.14.02,0,.03-.01.04-.01.06-.02.11-.03.17-.05,0,1.08,0,2.17.01,3.25,0,.14.02.28.05.4,0,.03,0,.07.02.1.02.1.05.18.07.26l.11.45.72.73.2.2.06.07.55.55.75.76.06.06.29.29h1.63l.23-.85s.01-.03.02-.05c0-.03.02-.07.04-.11,0-.02,0-.04.02-.06,0-.04.03-.08.04-.12,0-.02,0-.04.02-.06.08-.24.15-.51.15-.83v-1.19c.01-.08.01-.16,0-.24v-.03c.01-.94.01-1.88.01-2.82v-3.6c0-1.27-.59-2.3-1.69-2.9Zm-4.97,3.78c-.22.04-.45.06-.71.06h-.12c-.14,0-.29,0-.44-.01l-.34-.33h.02c1.53,0,3.02-.47,4.46-1.42.34-.23.65-.25,1-.06.36.2.5.43.49.87v6.56l-.15-.15-.27-.28s-.02-.03-.02-.04h0c0-1.09,0-2.16,0-3.24v-3.11l-1.48.44c-.28.08-.55.17-.82.26-.23.08-.47.15-.69.22-.32.09-.62.17-.92.23Z"/>
    </g>
    <g>
      <path class="cls-1" d="m45.43,81.5c.69.69,1.38,1.39,2.07,2.08-.72.7-1.45,1.39-2.17,2.09-.01-1.31-.03-2.62-.03-3.93,0-.08.09-.16.14-.25Z"/>
      <path class="cls-1" d="m44.2,88.35l-.03-3.02c-.01-1.19-.02-2.39-.03-3.58,0-.44.22-.73.31-.86l.76-1.29,3.92,4-4.93,4.75Z"/>
    </g>
    <g>
      <path class="cls-1" d="m46.64,45.17c.5.52.99,1.04,1.49,1.56-.03.31-.09.62-.09.93,0,4.15-.01,8.29,0,12.44,0,.8-.3,1.43-.98,1.85-.77.48-1.56.45-2.31-.05-.92-.61-1.91-.99-3.01-1.14-2.6-.36-5.32.92-6.66,3.18-1.48,2.49-1.3,5.47.5,7.74.35.45.83.8,1.24,1.2.14.14.26.3.39.45,1.19,1.18,2.38,2.35,3.57,3.53-.37.02-.75.1-1.11.05-3.66-.53-6.28-2.5-7.67-5.89-1.68-4.11-.31-8.94,3.55-11.48,2.76-1.82,5.71-2.08,8.8-1,.29.1.56.25.9.4.02-.24.04-.41.04-.57,0-3.64,0-7.27,0-10.91,0-.22-.12-.44-.19-.66.49-.54.99-1.09,1.48-1.63.02,0,.05,0,.07,0Z"/>
      <path class="cls-1" d="m49.02,46l-.19-.19-.19-.21-.05-.05-.33-.35-.19-.19-.53-.56-.07-.08-.08-.08-.24-.25h-.2s-.42-.02-.42-.02h-.05l-.2.04h-.04s-.08.02-.08.02l-.08.02-.11.02-.05.05-.15.17h-.01l-.36.41-.11.12-.12.12-.07.09h-.01l-.1.12-.15.16-.02.03h-.02s-.26.3-.26.3h-.01s-.15.18-.15.18h-.01l-.31.34-.15.17-.12.13.02.07.08.27h0l.07.26v.02c.04.1.08.2.11.29.02.05.04.09.04.04v1.69c.01,2.71.01,5.41.01,8.11-3.29-.98-6.38-.54-9.22,1.32-4.22,2.78-5.89,8.19-3.98,12.88.09.21.18.42.28.62,0,.02.02.04.03.06.95,2,2.36,3.53,4.16,4.56,0,0,0,.01.02.01.97.55,2.05.95,3.24,1.2.14.03.27.05.4.07.15.03.3.06.45.08.14.02.28.03.41.03.12,0,.22-.01.33-.02h.03c.09,0,.18-.02.27-.03.06-.01.12-.01.18-.02.03,0,.07-.01.11-.01l1.86-.1.38-.02.35-.02-.05-.05-.03-.02-.97-.96-.03-.04-1.05-1.04-.05-.05-.34-.33-.15-.14-1.15-1.14-.15-.15-1.37-1.35-.1-.13c-.05-.07-.11-.14-.18-.2-.05-.07-.11-.14-.18-.21-.16-.15-.32-.3-.49-.45-.25-.22-.49-.43-.65-.64-1.5-1.88-1.66-4.35-.42-6.44.22-.36.48-.7.77-.98.05-.06.1-.11.15-.16,1.21-1.13,2.93-1.71,4.59-1.49.92.13,1.75.44,2.53.96,1.15.76,2.41.78,3.56.07.05-.03.09-.06.13-.1.17-.12.33-.25.49-.4l.06-.06c.08-.09.16-.19.24-.29.39-.54.6-1.21.6-1.98,0-3.48,0-6.95,0-10.42,0-.38,0-.77,0-1.15v-.87c0-.09,0-.18,0-.28l.03-.18v-.03l.04-.42v-.05s.05-.38.05-.38l-.3-.32Zm-13.91,16.02c-.11.11-.22.23-.3.35-.05.06-.1.12-.14.18-.23.25-.41.53-.58.81-1.57,2.66-1.53,5.77.08,8.3.16.25.33.5.52.74.29.37.63.67.92.93.14.13.28.25.41.37.06.06.11.14.17.21l1.16,1.18c-.41-.17-.79-.37-1.15-.61,0,.01-.02,0-.03-.02-1.27-.8-2.25-1.97-2.93-3.48-.07-.13-.13-.26-.18-.39-1.5-3.67-.19-7.91,3.12-10.09,1.47-.97,3-1.45,4.61-1.45,1.02,0,2.08.19,3.18.58.15.05.3.13.46.21l1.84.84.14-1.85c.01-.17.02-.31.02-.46,0-3.05,0-6.09-.01-9.14v-1.77c0-.14-.01-.26-.04-.38l.04-.05h.01l.19-.21.3.31c-.01.11-.02.22-.02.33h0c0,.07,0,.14,0,.2v.4h0v.06c0,.49-.01.97,0,1.46-.01,3.51-.01,7.01,0,10.52,0,.28-.06.47-.15.61,0,.02-.02.03-.04.05-.07.09-.15.16-.25.22-.38.23-.68.22-1.07-.03-1.07-.72-2.21-1.15-3.48-1.33-1.4-.2-2.81,0-4.09.53-.13.06-.27.12-.4.18,0,.01-.03.02-.05.02-.42.22-.83.46-1.21.74-.25.19-.49.38-.71.6-.12.11-.22.22-.33.33Z"/>
    </g>
    <g>
      <path class="cls-1" d="m17.93,39.52l-.05.05c.01-.07.02-.13.05-.2v.15Z"/>
      <path class="cls-1" d="m19.31,45.51c-.05.1-.1.21-.16.31-.41.7-1.06,1.03-1.87,1.03-1.85,0-3.7.01-5.55,0h-.69c-.06,0-.1,0-.15-.01-.06-.01-.1-.02-.16-.03,0,0-.01,0-.02-.01-.09-.02-.18-.05-.28-.07-.2-.21-.39-.41-.59-.62-.01-.01-.02-.02-.03-.03-.25-.26-.51-.54-.76-.8.26-.25.52-.51.78-.76.01-.01.03-.02.05-.03l.16-.16c.07-.07.15-.14.22-.21l.06-.06c.23-.06.46-.16.69-.16h1.14c.72-.01,1.44-.01,2.16-.01h1.56c-.2-.61-.36-1.21-.47-1.78-.1-.48-.17-.94-.23-1.4h0c-.05-.44-.07-.86-.07-1.26v-.03c0-.09,0-.18.01-.28l.05-.06,1.23-1.23.49-.51.08-.08.24-.23c-.22.66-.36,1.33-.39,2.02-.03.52-.02,1.05.07,1.55l1.01-1.02s-.01.08-.02.11c-.03.18-.06.37-.08.55-.02.22-.03.45-.03.67,0,1.3.4,2.56,1.23,3.82.07.09.12.18.16.29.06.1.09.2.13.3.02.07.03.14.05.21Z"/>
      <path class="cls-1" d="m31.28,41.01c-.01.23-.03.46-.06.69-.16,1.09-.54,2.09-1.15,3-.09.15-.17.3-.23.46-.1-.51.01-1.03.33-1.56.48-.82.9-1.64,1.1-2.59Z"/>
      <path class="cls-1" d="m46.56,45.17c-.18.21-.38.41-.56.62-.13.13-.25.28-.37.4t-.02.02l-.03.03c-.08.09-.16.17-.24.26-.03.03-.07.08-.12.12-.01.02-.03.05-.06.07-.02.03-.06.06-.08.09-.06.01-.11.01-.16.02h-.01c-.13.02-.23.03-.34.03h-12.54s-.09,0-.14-.01c-.03.01-.06.01-.08,0-.44-.02-.64-.18-.79-.44-.24-.37-.23-.67.03-1.06.02-.02.03-.06.06-.08-.21-.32-.18-.67.06-1.07.64-1.07,1.05-2.02,1.25-3,0-.02.01-.03.01-.06.24-1.18.15-2.46-.21-3.67.57,1.28.81,2.6.69,3.98.83-3.41-.14-6.2-2.89-8.46.93.66,1.76,1.49,2.43,2.52,1.28,1.94,1.79,3.99,1.6,6.11.01.01,0,.01,0,.02-.16.72-.39,1.46-.7,2.21.08,0,.16.01.24.01.15.01.29.02.43.02h10.61c.13,0,.25.01.38.02.05.01.08.01.13.02.08.01.17.01.25.02.13.14.26.26.39.4l.02.02s.02.02.03.03c.14.14.28.29.4.43.09.09.17.17.25.26.03.02.06.06.08.08Z"/>
      <path class="cls-1" d="m45.14,46.57l-.24-.22-.52-.48.15-.17h-12.51c-.2,0-.33-.02-.45-.05-.15-.04-.24-.11-.31-.18-.07-.06-.11-.13-.16-.2-.02.02-.03.06-.06.08-.26.39-.27.69-.03,1.06.03.06.07.11.11.15.02.03.05.06.09.09.03.03.06.05.09.06.03.02.06.04.1.05.02.01.03.01.05.02.02.01.04.01.06.02.04.01.09.02.14.03.04,0,.09.01.15.01.02.01.05.01.08,0,.05.01.09.01.14.01h12.3c.19,0,.36.02.53.04l.07-.07.24-.23-.02-.02Zm-27.25-7l.05-.05v-.15c-.03.07-.04.13-.05.2Zm1.38,5.73c-.04-.1-.07-.19-.13-.3-.04-.1-.09-.19-.16-.28-.83-1.26-1.23-2.52-1.23-3.82,0-.22,0-.45.04-.67.02-.18.04-.37.08-.55.01-.03.01-.08.02-.11l-1.01,1.02c.08.58.24,1.16.47,1.72.22.52.49,1.05.84,1.6.27.46.27.83,0,1.32-.04.06-.08.12-.13.16-.18.22-.43.31-.77.31h-6.24l-.35-.36-.02-.03-.02.04h-.03s-.78.76-.78.76l-.3.28h-.07s0,.01,0,.01c-.02.02-.04.04-.05.06l-.06.06c-.05.05-.09.09-.14.14-.06.05-.11.1-.16.15-.03.02-.04.04-.06.07l.03.04.52.54.24.27.9-.89h.21s.09.01.15.01h.69c1.85.02,3.7,0,5.55,0,.82,0,1.46-.33,1.87-1.03.06-.1.12-.21.16-.31-.01-.07-.02-.14-.04-.21Zm-1.04-7.71l.42-.42c.15-.12.31-.24.45-.39.32-.32.62-.7.95-1.01l.21-1.26c-.97.81-1.67,1.89-2.03,3.08Zm29.84,7.48h0s-.59-.61-.59-.61l-.05-.05-.03-.03h-.01s-.32-.34-.32-.34l-.1-.12-.34-.34-.34-.36-.04-.03h0s-.32-.35-.32-.35h-.14s-.53-.06-.53-.06c-.03,0-.08,0-.11,0-.18-.02-.34-.04-.51-.04h-9.68c.09-.3.16-.59.22-.89,0,0,.01-.01.01-.02.25-2.44-.34-4.77-1.77-6.95-.69-1.05-1.55-1.95-2.52-2.66,3.05,2.58,3.99,5.8,3.16,9.4.2-2.11-.32-4.16-1.59-6.1-.67-1.03-1.5-1.87-2.43-2.52,2.75,2.26,3.71,5.05,2.89,8.46-.15.63-.36,1.29-.64,1.97l-.61,1.48h.24s1.24.08,1.24.08l.34.02c.18.02.36.03.53.03h10.6c.08,0,.15.01.24.02l.08.09.06.06-.15.16-.02.03v.02s-.28.28-.28.28h-.01s-12.51.01-12.51.01c-.2,0-.33-.02-.45-.05-.15-.04-.24-.11-.31-.18-.07-.06-.11-.13-.16-.2-.02.02-.03.06-.06.08-.26.39-.27.69-.03,1.06.03.06.07.11.11.15.02.03.05.06.09.09.03.03.06.05.09.06.03.02.06.04.1.05.02.01.03.01.05.02.02.01.04.01.06.02-.06,0-.13,0-.19-.03-.22-.05-.43-.14-.62-.27-.09-.06-.18-.13-.26-.22-.33-.35-.54-.71-.59-1.12-.26.61-.21,1.25.18,1.87.31.49.74.79,1.25.91l.21.03s.05.01.08.01c.09.01.17.01.27.01h.04c.05.01.09.01.14.01h12.54c.18,0,.35-.02.52-.04h.1s.09-.02.09-.02h0l.15-.02.21-.02.44-.48.08-.1h.01s.11-.11.11-.11l.1-.13.05-.04h0s.19-.22.19-.22l.2-.22.38-.41.2-.22h0s0-.02,0-.02l.22-.23.12-.14.22-.24.07-.07h0s.09-.12.09-.12l-.07-.08Zm-17.89-1.47c-.32.53-.44,1.06-.33,1.56.05-.16.13-.31.23-.46.61-.9.99-1.9,1.15-3,.02-.23.04-.46.05-.69-.2.95-.62,1.77-1.1,2.59Zm-.99-.6c-.4.66-.57,1.36-.52,2.04.1-.32.25-.65.45-.97.52-.78.83-1.61.97-2.53.03-.23.04-.47.04-.7-.16.68-.47,1.37-.94,2.16Zm-11.3-3.43l.05-.05v-.15c-.03.07-.04.13-.05.2Zm1.42,5.94c-.01-.07-.02-.14-.04-.21-.04-.1-.07-.19-.13-.3-.04-.1-.09-.19-.16-.28-.83-1.26-1.23-2.52-1.23-3.82,0-.22,0-.45.04-.67.02-.18.04-.37.08-.55.01-.03.01-.08.02-.11l-1.01,1.02c.08.58.24,1.16.47,1.72.22.52.49,1.05.84,1.6.27.46.27.83,0,1.32-.04.06-.08.12-.13.16-.18.22-.43.31-.77.31h-6.24l-.35-.36-.02-.03h-.01s.24-.24.24-.24t.02,0h.01s.06-.02.08-.02c.38,0,.75-.01,1.13,0h0c.71-.01,1.42-.01,2.12-.01h3.18l-.48-1.5c-.28-.85-.47-1.68-.58-2.45-.09-.51-.13-1.02-.13-1.49-.03-.62.02-1.21.12-1.76l-1.23,1.23-.04.06-1.13,1.13c.05.8.17,1.63.38,2.48h-.32c-1.01,0-2.04,0-3.06.01-.21,0-.39.03-.55.07-.1.03-.18.05-.24.08l-.46.11-.71.69-.19.19-.25.24-.08.08-.3.29-.56.54-.02.02h0s-.17.18-.17.18h0s.03.05.03.05l.72.76.04.04.4.43.28.3.07.07.03.04.52.54.24.27.06.06.48.1c.08.02.14.05.24.08h.05s.1.01.16.01c0,.01.04.01.05.01,2.12,0,4.26-.01,6.39,0,.86.01,1.48-.35,1.89-1.09.25-.46.32-.93.21-1.39Zm-1.08-7.92l.42-.42c.15-.12.31-.24.45-.39.32-.32.62-.7.95-1.01l.21-1.26c-.97.81-1.67,1.89-2.03,3.08Z"/>
    </g>
  </g>
  <g>
    <g>
      <path class="cls-1" d="m52.29,1.7c.22-.04.44-.11.65-.11,8,0,16.01,0,24.01,0,.26,0,.51.07.77.11.86.87,1.72,1.73,2.58,2.6-.14.03-.29.08-.43.08-9.9,0-19.81,0-29.71,0-.16,0-.32-.06-.49-.09.87-.86,1.74-1.73,2.61-2.59Z"/>
      <path class="cls-1" d="m82.02,4.39l-1.15-1.16-.5-.5-1.14-1.14-.96-.97-.58-.1h-.04c-.24-.04-.46-.08-.69-.08-8.01-.01-16.01-.01-24.01,0-.22,0-.42.03-.59.07-.04.01-.08.02-.12.03l-.5.09-.96.96-1.17,1.15-.43.43-.31.31-.55.59-.21.22-.1.11-.61.65h0l.7.13.35.07.8.14.31.06c.15.03.35.08.59.08h29.71c.17,0,.33-.03.47-.06.06-.02.13-.04.19-.05l2.1-.42-.61-.61Zm-29.62-1.18l.47-.46s.05-.01.08-.01c8-.01,16-.01,24.01,0,.06,0,.13.01.2.02l.46.47c-8.39,0-16.78,0-25.22-.02Z"/>
    </g>
    <g>
      <path class="cls-1" d="m91.35,15.31c.04.24.11.47.11.71,0,7.58,0,15.15,0,22.73,0,.22-.08.44-.12.66-.85.86-1.71,1.72-2.56,2.59-.04-.25-.1-.49-.1-.74,0-9.35,0-18.7,0-28.05,0-.15.04-.3.07-.45.87.85,1.74,1.7,2.61,2.55Z"/>
      <path class="cls-1" d="m92.53,15.38s0-.05,0-.08l-.09-.55-.97-.94-1.14-1.12-.49-.47h0s-.28-.28-.28-.28l-.88-.8-.73-.67-.35,2.2s0,.02,0,.03v.02c-.04.16-.06.33-.06.48,0,9.36,0,18.71,0,28.06,0,.24.03.47.08.71l.13.87.16,1.15.07.45.45-.45.25-.26,1.16-1.17h0l.47-.48,1.15-1.16.95-.96.1-.5s.01-.06.02-.1c.04-.17.08-.38.08-.61,0-7.58,0-15.15,0-22.73,0-.24-.04-.46-.08-.64Zm-2.71,23.93c0-7.94,0-15.88.02-23.87l.45.44c0,.06.02.12.02.14,0,7.58,0,15.15,0,22.72-.01.03-.01.06-.02.09l-.47.48Z"/>
    </g>
    <g>
      <path class="cls-1" d="m88.78,41.99c.85-.86,1.71-1.72,2.56-2.59.04.16.12.31.12.47,0,2.66.02,5.32,0,7.98-.02,2.14-.08-1.87-.12.27,0,.14-.08.27-.12.4-.86-.87-1.72.87-2.57,0-.03-.2-.08.2-.09,0,0-.95,0,1.03,0,0-.94,0-1.82.01-2.71,0-.31,0-.61-.09-.92-.13-.42-.42-.83-.84-1.25-1.26.46-.5.92-1,1.38-1.5.92-.03,1.85-.06,2.77-.09.27,0,.54-.03.84-.05,0-1,0-1.92,0-2.85,0-.22.07-.44.1-.66Z"/>
      <path class="cls-1" d="m89.83,42.56l-1.16,1.17-.25.26-.45.45-.07-.45h-.38v.41l-1.19.04h-.36s-.86.04-.86.04h-.29v.05c-.27.27-.55.54-.82.81l.27.27.41.43c-.07.08-.14.16-.22.24l.04.04.07.07.33.33.37.38.21-.23.1-.1,2-.07h.29c.19-.01.38-.02.58-.04h.02l1.35-.07v-2.88c0-.35,0-.7.01-1.05,0-.03,0-.07,0-.1h0Zm0,0l-1.16,1.17-.25.26-.45.45-.07-.45h-.38v.41l-1.19.04h-.36s-.86.04-.86.04h-.29v.05c-.27.27-.55.54-.82.81l.27.27.41.43c-.07.08-.14.16-.22.24l.04.04.07.07.33.33.37.38.21-.23.1-.1,2-.07h.29c.19-.01.38-.02.58-.04h.02l1.35-.07v-2.88c0-.35,0-.7.01-1.05,0-.03,0-.07,0-.1h0Zm2.7-3.2c-.02-.08-.05-.16-.07-.23l-.5-1.98-.5.5-1.17,1.18-.47.48-1.14,1.15-.98.99-.09.52c-.04.22-.08.45-.08.67v.2c0,.38,0,.76,0,1.15v.41l-1.19.04h-.36s-.86.04-.86.04h-.29s-.28.02-.28.02l-.66.71-.25.28-.1.1-.4.44-.28.31-.27.29h-.01l-.48.53.7.7.03.04.82.82.74.75.62.1s.07.01.11.02c.23.04.48.08.71.08.52.01,1.05.01,1.58.01v.31h1.15s.06,0,.1-.01c.09,0,.21-.03.32-.07.1.01.19.01.29.01.29-.02.55-.09.77-.18.17-.06.31-.14.41-.19.04,0,.09-.04.13-.06l1.12.98.19-.5.17-.43.02-.05c.53-.32.53-1.09.54-1.63,0-1.91,0-3.83,0-5.74v-2.25c0-.19-.04-.36-.08-.51Zm-2.87,8.02h-.36s-.05-.04-.07-.05h0c-.05-.05-.1-.08-.15-.1-.04-.03-.06-.04-.1-.05h-.01c-.16-.07-.32-.09-.43-.07-.31,0-.53.09-.7.22l-.09.05c-.61,0-1.19,0-1.79-.01h-.1c-.12,0-.25-.03-.37-.05l-.22-.22.21-.23.1-.1,2-.07h.29c.19-.01.38-.02.58-.04h.02l1.35-.07v-2.88c0-.35,0-.7.01-1.05,0-.03,0-.07,0-.1l.47-.48v.5c0,.39,0,.78,0,1.17v1.94c0,.16,0,.32,0,.47,0,.31,0,.61,0,.91-.01.03-.02.07-.03.1-.24.05-.45.13-.62.21Zm.17-4.82l-1.16,1.17-.25.26-.45.45-.07-.45h-.38v.41l-1.19.04h-.36s-.86.04-.86.04h-.29v.05c-.27.27-.55.54-.82.81l.27.27.41.43c-.07.08-.14.16-.22.24l.04.04.07.07.33.33.37.38.21-.23.1-.1,2-.07h.29c.19-.01.38-.02.58-.04h.02l1.35-.07v-2.88c0-.35,0-.7.01-1.05,0-.03,0-.07,0-.1h0Z"/>
    </g>
    <g>
      <path class="cls-1" d="m44.62,4.3c-.86-.86.54-1.71-.32-2.57.15-.05.3-.14.45-.14,4.46,0,2.66,0,7.12,0,.14,0,.28.07.42.11-.87.86-1.74,1.73-2.61,2.59-.74.05-1.48.09-2.35.15v2.28c-.72.7-1.45,1.39-2.17,2.09-.09,0-.18,0-.28,0-.08-.24-.23-.49-.24-.73-.04-.65-.02-1.29-.02-1.94,0-.57,0-1.14,0-1.76-1.01,0,2.06,0,1.14,0-.38,0-.76-.05-1.14-.08Z"/>
      <path class="cls-1" d="m52.54.57c-.05-.02-.11-.04-.18-.06-.13-.04-.29-.07-.48-.07h-7.13c-.32,0-.58.11-.79.19l-1.59.53h-.02l-.19.06,1.09,1.08.18.18c-.02.06-.04.13-.06.19,0,.04-.03.09-.04.14h-.01c-.07.26-.16.62-.12,1.03,0,.03,0,.07.01.11,0,.1.03.2.07.31,0,.05,0,.09,0,.12v.38s.02.35.02.35v.42h.18v1.16c0,.49,0,.97.02,1.46.02.21.06.4.12.56,0,.06.03.1.05.15.02.05.04.09.05.13h0s0,.04.02.05l.27.76.06.17h1.56l.22-.21.02-.03h0l.1-.09.64-.62.09-.09.1-.09h.01l.37-.37.17-.16s-.01,0,0-.01l.14-.13.04-.04.44-.42.51-.49v-1.7l.78-.05.31-.02.61-.04,1.02-1.03,2.77-2.79.49-.49-1.92-.53Zm-6.36,5.67l-.35.33-.06.06v-1.1h.11v-.02c.11-.01.21-.02.3-.04v.77Zm3-3.07l-.86.06-1.36.08-.55.04c-.07-.03-.13-.05-.21-.07-.12-.03-.26-.05-.42-.05-.06,0-.12,0-.18-.01.04-.11.08-.25.11-.41,0-.02,0-.05,0-.07h3.89l-.43.43Z"/>
    </g>
    <g>
      <path class="cls-1" d="m80.3,4.29c-.86-.87-1.72-1.73-2.58-2.6.14-.04.28-.11.41-.11,2.16,0,4.33-.03,6.49,0,1.8.03,3.35.72,4.66,1.95.03.03.04.09.06.14-.61.63-1.21,1.25-1.82,1.88-.12-.06-.27-.09-.36-.17-.85-.73-1.84-1.03-2.95-1.01-1.12.02-2.24,0-3.35,0-.19,0-.37-.06-.56-.08Z"/>
      <path class="cls-1" d="m90.35,3.04l-.05-.12-.23-.21c-1.56-1.47-3.39-2.23-5.42-2.26-1.67-.03-3.34-.02-5.01-.02h-1.5c-.19.01-.35.04-.49.09-.09.02-.16.04-.24.07l-1.89.52.48.48,1.16,1.17.46.47,1.15,1.15.98.99.5.08s.06.01.09.02c.17.03.34.06.51.06h.33c1.02.01,2.04.02,3.06,0,.86-.04,1.58.22,2.18.73.09.08.18.14.27.18.13.08.26.13.37.17l.74.33.35-.37.83-.85.35-.37.81-.84.03-.03.55-.48-.37-.96Zm-6.03.19h-.12c-1,.02-2,.01-3,0h-.33l-.5-.5c1.41-.01,2.82-.01,4.24.02,1.13.02,2.15.34,3.09.98l-.35.36c-.88-.57-1.89-.86-3.03-.86Z"/>
    </g>
    <g>
      <path class="cls-1" d="m87.53,5.56c.61-.63,1.21-1.25,1.82-1.88,1.11.94,1.69,2.19,1.98,3.58.09.44.13.9.14,1.35.01,2.09,0,4.19,0,6.28,0,.14-.07.28-.11.42-.87-.85-1.74-1.7-2.61-2.55-.02-.22-.07-.45-.07-.67-.01-1.23,0-2.47-.02-3.7-.02-.87-.32-1.66-.86-2.35-.11-.14-.17-.31-.26-.47Z"/>
      <path class="cls-1" d="m92.45,7.02c-.35-1.68-1.04-2.98-2.1-3.98-.08-.09-.17-.16-.26-.24l-.82-.69-.77.79-.8.83-.35.36-.82.84-.41.43.45.85c.03.06.07.14.12.23.05.09.11.2.19.3.41.52.61,1.06.62,1.67.02.74.02,1.48.02,2.22v1.46c0,.21.03.41.06.61v.02l.06.57,1.03,1.01,1.17,1.14.45.44.26.25.91.84.51.47.51-1.88c.02-.05.04-.11.05-.18.05-.13.08-.3.08-.49,0-2.09,0-4.19,0-6.29,0-.56-.06-1.09-.16-1.58Zm-2.62,5.2h0c0-.06-.01-.1-.01-.14v-1.45c0-.76,0-1.51-.02-2.27-.02-.95-.3-1.84-.82-2.64l.35-.37c.41.58.69,1.28.87,2.14.07.35.11.72.11,1.12,0,1.36,0,2.72,0,4.08l-.49-.47Z"/>
    </g>
    <g>
      <path class="cls-1" d="m82.23,45.67s.05-.12.08-.11c.92.02,1.83.05,2.75.07-.46.5-.92,1-1.38,1.5-.02,0-.05,0-.07,0-.46-.49-.92-.98-1.38-1.46Z"/>
      <path class="cls-1" d="m83.16,48.34l-2.38-2.53.46-.72.32-.63.8-.05c.89.02,1.8.04,2.72.07l2.52.07-3.35,3.66-1.09.13Z"/>
    </g>
    <g>
      <path class="cls-1" d="m83.61,47.14s.05,0,.07,0c.42.42.83.84,1.25,1.26-.08.05-.16.13-.23.13-.69.01-1.37.01-2.06,0-.09,0-.19-.1-.28-.16.42-.41.84-.81,1.26-1.22Z"/>
      <path class="cls-1" d="m83.68,49.68c-.36,0-.72,0-1.08-.01-.43-.01-.73-.23-.85-.32l-1.31-.76,2.66-2.56.96-.1.44.39,2.28,2.3-1.27.75c-.08.07-.38.29-.81.29-.34,0-.68,0-1.02,0Z"/>
    </g>
    <g>
      <path class="cls-1" d="m47.22,10.9c.05.21.14.43.14.64.01,1.4,0,2.8,0,4.19,0,.2,0,.41,0,.61.89-.26,1.7-.57,2.55-.74.63-.12,1.3-.06,1.96-.08,1.19,1.18,2.38,2.35,3.57,3.53-.15-.02-.31-.02-.44-.08-2.45-1.18-4.81-1.1-7.11.42-.69.46-1.45.51-2.19.11-.73-.4-1.1-1.02-1.1-1.88.01-2.62,0-5.25.01-7.87,0-.31.16-.63.25-.94.09,0,.18,0,.27,0,.69.69,1.38,1.39,2.07,2.08Z"/>
      <path class="cls-1" d="m46.43,17.83c-.11-.16-.16-.35-.16-.59v-2.18c0-1.16,0-2.31,0-3.44h0s-.06-.06-.06-.06c.01,1.07.01,2.15.01,3.23v3.1l.2-.06Zm0,0c-.11-.16-.16-.35-.16-.59v-2.18c0-1.16,0-2.31,0-3.44h0s-.06-.06-.06-.06c.01,1.07.01,2.15.01,3.23v3.1l.2-.06Zm8.97-.43l-.12-.12-.92-.91-.8-.79-.52-.51-.7-.69h-.49s-.03.01-.03.01h-.25c-.09.01-.19,0-.29,0-.47,0-1.02-.01-1.57.1-.03.01-.05.01-.08.02-.12.02-.23.04-.34.08-.26.05-.51.12-.76.2,0-1.08,0-2.16,0-3.24v-.02c0-.18-.03-.35-.07-.49-.02-.1-.05-.18-.07-.26l-.11-.46-.22-.22-.39-.39-.04-.05-.27-.26-.54-.56h-.01l-.76-.77-.05-.04h0s-.35-.36-.35-.36h-1.63l-.23.84s0,.04-.02.06c-.02.06-.04.11-.06.17,0,.04-.03.08-.04.12,0,.02,0,.04-.02.06-.08.24-.15.51-.15.83,0,1.43,0,2.85,0,4.28,0,1.2,0,2.4-.01,3.6,0,1.27.6,2.3,1.7,2.9.5.27,1.03.4,1.56.4.5,0,1-.12,1.47-.37.12-.05.23-.12.34-.19.59-.39,1.19-.67,1.8-.84,1.33-.38,2.71-.21,4.17.5.12.05.23.09.33.11.15.04.29.05.42.06l.67.11.92.16.93.16.71.12.36.06-3.45-3.41Zm-7.97.96h-.01c-.05.02-.1.06-.15.09-.34.23-.65.25-1,.06-.36-.2-.5-.44-.5-.87,0-1.2,0-2.41,0-3.61v-2.95l.2.2.22.22s.02.04.02.05h0c.01,1.08.01,2.16.01,3.24v3.1l.2-.06,1.27-.37c.29-.09.56-.18.83-.26.56-.18,1.1-.35,1.61-.45.25-.05.53-.06.83-.06h.44l.34.34h-.02c-.72,0-1.44.11-2.14.32-.73.22-1.45.55-2.16,1.01Zm-1-.53c-.11-.16-.16-.35-.16-.59v-2.18c0-1.16,0-2.31,0-3.44h0s-.06-.06-.06-.06c.01,1.07.01,2.15.01,3.23v3.1l.2-.06Z"/>
    </g>
    <g>
      <path class="cls-1" d="m47.22,10.9c-.69-.69-1.38-1.39-2.07-2.08.72-.7,1.45-1.39,2.17-2.09.01,1.31.03,2.62.03,3.93,0,.08-.09.16-.14.25Z"/>
      <path class="cls-1" d="m47.44,12.8l-3.92-4,4.93-4.75.03,3.02c.01,1.19.02,2.39.03,3.58,0,.44-.22.74-.31.86l-.76,1.29Z"/>
    </g>
    <g>
      <path class="cls-1" d="m46.02,47.24c-.5-.52-.99-1.04-1.49-1.56.03-.31.09-.62.09-.93,0-4.15.01-8.29,0-12.44,0-.8.3-1.43.98-1.85.77-.48,1.56-.45,2.31.05.92.61,1.91.99,3.01,1.14,2.6.36,5.32-.92,6.66-3.18,1.48-2.49,1.3-5.47-.5-7.74-.35-.45-.83-.8-1.24-1.2-.14-.14-.26-.3-.39-.45-1.19-1.18-2.38-2.35-3.57-3.53.37-.02.75-.1,1.11-.05,3.66.53,6.28,2.5,7.67,5.89,1.68,4.11.31,8.94-3.55,11.48-2.76,1.82-5.71,2.08-8.8,1-.29-.1-.56-.25-.9-.4-.02.24-.04.41-.04.57,0,3.64,0,7.27,0,10.91,0,.22.12.44.19.66-.49.54-.99,1.09-1.48,1.63-.02,0-.05,0-.07,0Z"/>
      <path class="cls-1" d="m59.34,21.02c-.84-1.77-2.33-3.07-4.06-3.74l.02.02c1.98.85,3.42,2.36,4.3,4.52.36.88.56,1.8.61,2.71-.02-1.15-.31-2.32-.87-3.51Zm-13.06,23.47v-11.35l-.03.43c-.01.18-.02.32-.02.46,0,3.05-.01,6.11,0,9.16,0,.25,0,.51,0,.76v1c0,.14.01.25.04.36l.2-.21.21-.23-.41-.38Zm13.06-23.47c-.84-1.77-2.33-3.07-4.06-3.74l.02.02c1.98.85,3.42,2.36,4.3,4.52.36.88.56,1.8.61,2.71-.02-1.15-.31-2.32-.87-3.51Zm-13.06,12.12l-.03.43c-.01.18-.02.32-.02.46,0,3.05-.01,6.11,0,9.16,0,.25,0,.51,0,.76v1c0,.14.01.25.04.36l.2-.21.21-.23-.41-.38v-11.35Zm15.45-12.19c-1.53-3.73-4.49-6.01-8.58-6.6-.38-.05-.75-.02-1.04.01-.09.02-.17.03-.26.03h-.28s-1.94.12-1.94.12l-.4.02.06.06.75.74.24.24.76.75.71.71.9.88.41.4,1,1,.5.49.1.12c.06.07.12.15.18.22s.12.15.19.21c.16.15.32.3.49.44.25.23.48.44.65.65,1.49,1.88,1.65,4.35.42,6.44-.31.52-.7.97-1.16,1.35-.03.02-.05.04-.08.06-1.18.95-2.75,1.42-4.27,1.22-.92-.13-1.75-.45-2.53-.96-1.13-.75-2.37-.79-3.5-.1l-.06.03c-.99.62-1.52,1.6-1.52,2.83.01,3.48.01,6.95,0,10.42.01.38,0,.77,0,1.15v.86c0,.1,0,.19,0,.29-.01.07-.02.13-.03.2h0s-.05.47-.05.47l-.04.39.27.29h0l.19.2.2.2h0s.06.07.06.07l1.04,1.09v.02h.02l.11.12h.01l.02.03.22.23h.07s.56.05.56.05l.14-.02.16-.02.25-.04.22-.24h0s.05-.06.05-.06l.25-.28.48-.52.06-.06.23-.25v-.02h0l.15-.16v-.02s.62-.67.62-.67l.12-.13-.03-.09-.06-.21v-.05s-.09-.28-.09-.28c-.02-.04-.03-.09-.05-.14h-.01c0-.05-.03-.1-.05-.14,0-.04-.02-.07-.03-.07v-2.11c-.01-2.55-.01-5.11-.01-7.67.24.07.49.14.73.19,1.86.45,3.66.43,5.38-.06,1.06-.3,2.1-.78,3.11-1.44,4.22-2.78,5.89-8.2,3.98-12.88Zm-15.96,11.36c0-.5.18-.72.44-.88.08-.05.15-.09.22-.12.29-.11.54-.06.85.15,1.07.72,2.21,1.15,3.48,1.32,2.17.31,4.36-.34,6.01-1.68.71-.56,1.32-1.26,1.79-2.05,1.58-2.66,1.54-5.77-.07-8.3-.16-.25-.33-.5-.52-.74-.29-.37-.63-.67-.93-.94-.13-.12-.27-.24-.4-.37-.07-.06-.12-.14-.18-.21l-1.06-1.09-.1-.1c1.98.85,3.42,2.36,4.3,4.52.36.88.56,1.8.61,2.71v.1c.11,2.85-1.25,5.64-3.73,7.28-.79.52-1.59.9-2.42,1.14-1.69.49-3.46.39-5.37-.27-.15-.06-.3-.13-.47-.21l-1.16-.54-.68-.31-.1,1.42-.03.43c-.01.18-.02.32-.02.46,0,3.05-.01,6.11,0,9.16,0,.25,0,.51,0,.76v1c0,.14.01.25.04.36h0s-.24.28-.24.28h-.01s-.29-.31-.29-.31c.02-.18.03-.35.03-.53v-.71c0-.41,0-.81,0-1.21,0-3.51,0-7.02,0-10.52Zm.51,12.18v-11.35l-.03.43c-.01.18-.02.32-.02.46,0,3.05-.01,6.11,0,9.16,0,.25,0,.51,0,.76v1c0,.14.01.25.04.36l.2-.21.21-.23-.41-.38Zm13.06-23.47c-.84-1.77-2.33-3.07-4.06-3.74l.02.02c1.98.85,3.42,2.36,4.3,4.52.36.88.56,1.8.61,2.71-.02-1.15-.31-2.32-.87-3.51Z"/>
    </g>
    <g>
      <path class="cls-1" d="m46.09,47.23c.49-.54.99-1.09,1.48-1.63.17-.02.35-.06.52-.06,4.18,0,8.36,0,12.55,0,.6,0,1.14.13,1.58.58.73.75.85,1.72.26,2.68-.5.83-.91,1.68-1.11,2.64-.51,2.4.62,5.3,2.65,6.7,2.25,1.55,4.62,1.76,7.09.58,2.99-1.42,4.42-5.14,3.14-8.19-.21-.5-.47-.98-.75-1.43-.53-.85-.5-1.69,0-2.52.42-.7,1.06-1.04,1.88-1.03,2.08,0,4.16,0,6.25,0,.2,0,.4.08.61.12.46.49.92.98,1.38,1.46-.42.41-.84.81-1.26,1.22-.23.06-.46.16-.69.16-1.43.02-2.87,0-4.3,0-.19,0-.38,0-.57,0,1.86,5.8.45,10.39-5.09,13.12-3.4,1.67-6.91,1.04-9.79-1.34-3.79-3.13-4.43-7.18-2.59-11.74-.23-.01-.45-.03-.67-.03-3.52,0-7.03,0-10.55,0-.28,0-.55-.04-.83-.07-.39-.41-.79-.81-1.18-1.22Z"/>
      <path class="cls-1" d="m81.66,46.74h0l.08.08-.07-.08Zm-6.03.64h-.42l.48,1.5c.28.9.49,1.75.61,2.55l.31-.31c0-1.28-.32-2.53-.98-3.74Zm6.03-.64h0l.08.08-.07-.08Zm-6.45.64l.48,1.5c.28.9.49,1.75.61,2.55l.31-.31c0-1.28-.32-2.53-.98-3.74h-.42Zm10-.21l-.42-.45-.27-.28-.1-.11-.37-.4-.31-.33h0l-.1-.11-.69-.74-.12-.12-.47-.11c-.1-.03-.2-.06-.34-.09h-.02c-.11-.02-.23-.03-.36-.03h-6.25c-.28,0-.54.03-.79.09-.75.16-1.39.57-1.86,1.19-.07.1-.14.2-.21.31-.74,1.23-.74,2.51,0,3.72.28.45.5.87.67,1.27.45,1.08.48,2.26.17,3.36-.38,1.36-1.28,2.58-2.56,3.25-.06.04-.13.07-.19.1-2.07.99-4.02.83-5.94-.49-1.02-.71-1.78-1.92-2.11-3.2,0-.02,0-.03-.01-.04-.18-.76-.21-1.55-.06-2.27.14-.62.38-1.23.77-1.92.06-.12.13-.24.2-.36.25-.4.41-.82.48-1.24.15-.78,0-1.56-.43-2.25-.13-.21-.29-.4-.47-.59-.61-.63-1.39-.93-2.4-.93h-12.55c-.17,0-.35.02-.52.05h-.1s-.08.02-.08.02h-.03l-.3.03h-.05s-.06.08-.06.08l-.26.28h0s-.21.24-.21.24l-.2.21h0s-.25.27-.25.27l-.12.13h0s-.42.47-.42.47l-.23.26-.12.13-.23.25-.06.07-.34.37.6.62.16.16v.02s.29.29.29.29l.52.53.18.18.16.17.32.33.15.02h.05l.46.05c.22.02.43.04.64.05h9.67c-1.33,4.57-.15,8.52,3.47,11.51,2.03,1.69,4.33,2.54,6.64,2.54,1.47,0,2.96-.34,4.39-1.05,3.33-1.64,5.4-3.98,6.16-6.93.29-1.08.39-2.23.32-3.47-.05-.83-.17-1.7-.39-2.6h.92c.82,0,1.64,0,2.45-.01.2,0,.38-.04.54-.08.09-.02.18-.04.25-.06l.47-.12.71-.69.2-.19.31-.31.31-.3.05-.05.46-.45.03-.02.22-.22h0Zm-12.89,12.82c-.35.22-.73.42-1.13.62-2.87,1.41-5.9.99-8.55-1.2-1.96-1.63-3.01-3.5-3.15-5.67v-.02c-.1-1.44.21-3.02.9-4.73l.6-1.5-1.13-.06-.68-.04c-.18-.01-.35-.02-.53-.02h-10.6c-.08,0-.16-.01-.24-.02l-.06-.06-.03-.04-.05-.05.06-.06.23-.25v-.02h0l.15-.16v-.02h12.52c.43,0,.62.1.73.21l.02.02c.17.18.27.36.3.54h0c.04.23-.03.47-.19.74-.14.23-.26.45-.38.66-.39.74-.66,1.42-.83,2.12-.02.07-.03.15-.05.22-.61,2.85.74,6.24,3.13,7.88.37.26.75.48,1.13.68.3.15.6.28.9.39.11.04.23.08.34.11.19.06.38.11.56.16,1.72.42,3.5.2,5.3-.67,1.21-.57,2.2-1.45,2.92-2.5.35-.5.63-1.05.85-1.62,0-.02.01-.03.01-.04.25-.66.41-1.35.46-2.06h0c.05-.54.04-1.07-.04-1.6-.06-.53-.19-1.06-.39-1.57-.03-.1-.06-.19-.1-.28-.22-.51-.49-1.04-.83-1.59-.23-.36-.28-.68-.13-1.03.03-.1.08-.19.14-.29.18-.3.4-.45.75-.47.04-.01.09-.01.14-.01h6.21s.02,0,.03.01l.11.11h0s.07.09.07.09l.18.18h0s.01.01.01.01l-.24.24h-.03s-.06.02-.08.03c-1.04.01-2.07.01-3.11.01h-3.33l.48,1.5c.28.9.49,1.75.61,2.55.07.53.12,1.03.12,1.52,0,.62-.05,1.22-.16,1.78h0s-.02.07-.02.1c0,.01,0,.02,0,.03-.46,2.11-1.76,3.81-3.9,5.13,0,.01-.01.01-.01.01Zm3.31-12.62h-.42l.48,1.5c.28.9.49,1.75.61,2.55l.31-.31c0-1.28-.32-2.53-.98-3.74Zm6.03-.64h0l.08.08-.07-.08Z"/>
    </g>
  </g>
</svg>