<?xml version="1.0" encoding="UTF-8"?>
<svg id="Capa_1" data-name="Capa 1" xmlns="http://www.w3.org/2000/svg" viewBox="0 0 66.91 100">
  <defs>
    <style>
      .cls-1 {
        fill: #17774f;
      }
    </style>
  </defs>
  <path class="cls-1" d="m66.11,26.25c-1.3-6.09-4.22-11.49-8.66-16.06-4.27-4.39-9.27-7.37-14.86-8.85-1.62-.43-3.31-.7-4.94-.97-.73-.11-1.47-.24-2.2-.37h-3.97l-.38.06c-.19.04-.38.07-.57.11-.77.15-1.53.28-2.3.4-1.67.28-3.4.57-5.03,1.1-8.14,2.64-14.44,7.74-18.71,15.15C.24,24.18-1,32.18.8,40.6c1.48,6.89,4.94,12.85,10.3,17.71.23.22.42.61.41.87-.18,4.85-.38,9.78-.58,14.54l-.16,3.81c-.24,5.83-.48,11.66-.72,17.48-.05,1.23.28,2.3.96,3.16.85,1.07,1.94,1.69,3.15,1.81,1.31.13,2.59-.34,3.77-1.36,2.76-2.34,5.49-4.71,8.23-7.07l7.3-6.28.17.15c.12.1.23.19.34.28l1.25,1.08c4.56,3.92,9.13,7.85,13.69,11.8,1.11.95,2.18,1.42,3.31,1.42.33,0,.66-.04.99-.11,2.39-.53,3.76-2.46,3.65-5.17-.17-4.07-.33-8.14-.5-12.22-.32-7.68-.63-15.35-.93-23.02-.02-.42.16-.94.4-1.16,2.69-2.46,4.93-5.25,6.65-8.28,4.2-7.41,5.42-15.41,3.63-23.79Zm-16.45,63.69c-.26-.21-.47-.39-.67-.56l-3.69-3.18c-2.75-2.37-5.49-4.73-8.24-7.09-2.6-2.23-4.61-2.23-7.19-.02-2.48,2.13-4.95,4.27-7.43,6.4l-4.5,3.88c-.19.17-.39.33-.62.53l-.06.04,1.12-26.58c10.14,4.76,20.01,4.76,30.16,0l1.12,26.59Zm-16.19-30.04h-.02c-7.08,0-13.74-2.79-18.75-7.84-4.98-5.02-7.71-11.65-7.67-18.66.09-14.55,11.92-26.37,26.4-26.37h.05c7.08.02,13.74,2.8,18.75,7.84,4.97,5.01,7.7,11.63,7.66,18.65-.08,14.55-11.92,26.38-26.42,26.38Z"/>
  <path class="cls-1" d="m49.03,26.64c-.19.67-.58,1.34-1.07,1.83-4.77,4.81-9.91,9.96-16.19,16.21-.83.82-1.75,1.23-2.67,1.23s-1.83-.4-2.64-1.22c-2.77-2.75-5.6-5.63-8.67-8.78-1.46-1.49-1.5-3.6-.09-5.02,1.38-1.38,3.54-1.35,5.03.08,1.54,1.46,3.06,2.94,4.61,4.44l1.93,1.86,8.96-8.96c.49-.49.98-.98,1.47-1.48,1.13-1.14,2.3-2.32,3.48-3.45,1.21-1.16,2.83-1.38,4.22-.58,1.38.8,2.05,2.37,1.63,3.84Z"/>
</svg>