<?xml version="1.0" encoding="UTF-8"?>
<svg id="Capa_1" data-name="Capa 1" xmlns="http://www.w3.org/2000/svg" viewBox="0 0 88.72 98.51">
  <defs>
    <style>
      .cls-1 {
        fill: #17774f;
      }
    </style>
  </defs>
  <path class="cls-1" d="m88.39,19.92c-1.31-5.13-6.25-8.59-11.23-7.97-5.54.69-9.47,5.03-9.51,10.59-.04,5.67,0,11.33,0,17.29-.88-.2-1.51-.36-2.15-.5-3.33-.73-6.65-1.96-10-2.07-8.5-.29-17.03-.48-25.51.03-10.26.63-18.67,5.1-22.77,15.02-2.87,6.96-4.97,14.27-6.99,21.54-.55,2.02-.02,4.66.81,6.69,2.4,5.87,6.52,9.52,13.46,8.55.06.36.14.61.15.86.3,6.07,2.87,8.55,8.91,8.55,9.3,0,18.59,0,27.89,0,5.59,0,8.43-2.81,8.44-8.35,0-9.36,0-18.72,0-28.09v-2.32c1.54.41,2.8.74,4.05,1.07,4.64,1.24,9.22,2.59,14.17,1.78,6.71-1.09,10.59-5.3,10.6-12.05.02-9.17.02-18.33,0-27.5-.01-1.04-.05-2.12-.31-3.12Zm-6.1,11.7c0,6.4.01,12.79,0,19.19,0,2.76-.93,4.39-3.62,4.88-2.53.47-5.27.62-7.78.16-4.32-.79-8.53-2.17-12.8-3.27-2.87-.74-4.63.59-4.65,3.57-.04,5.67,0,11.34,0,17.01,0,5.6-.06,11.21.03,16.81.02,1.56-.46,2.09-2.01,2.08-9.43-.05-18.86-.05-28.29,0-1.57,0-1.91-.6-2.08-2.08-.35-2.92.64-4.61,3.33-6.01,5.54-2.88,10.91-6.12,16.27-9.33,3.8-2.27,5.6-5.79,5.15-10.16-.43-4.19-2.74-7.2-6.73-8.76-3.08-1.2-6.1-.93-8.95.67-3.56,1.99-7.09,4.05-10.61,6.12-2,1.18-2.57,2.94-1.59,4.63.94,1.62,2.86,2.03,4.82.92,3.33-1.88,6.62-3.82,9.93-5.72,2.49-1.42,4.98-.94,6.19,1.17,1.24,2.17.48,4.45-2.08,5.94-7.18,4.17-14.36,8.32-21.55,12.45-2.97,1.7-5.4.97-7.28-1.83-1.55-2.32-1.92-4.56-.98-7.26,1.87-5.33,3.34-10.81,5.25-16.13,3.18-8.88,10.19-12.65,19.09-13.04,7.77-.34,15.58-.39,23.33.06,4.2.24,8.32,1.79,12.48,2.77.76.18,1.51.45,2.28.63,2.96.69,4.6-.58,4.61-3.61.02-6.53.01-13.05.01-19.58,0-.53-.03-1.06.03-1.58.26-2.34,2.03-3.96,4.21-3.9,2.29.07,3.95,1.8,3.99,4.3.05,2.97,0,5.93,0,8.9Z"/>
  <path class="cls-1" d="m37.35,0c-10.02,0-18.07,8.02-18.12,18.05-.05,10,7.94,18.08,17.98,18.19,10.01.11,18.23-8.09,18.22-18.16C55.4,8.08,47.33,0,37.35,0Zm.06,29.73c-6.54.03-11.7-5.08-11.71-11.58,0-6.47,5.23-11.75,11.63-11.73,6.38,0,11.72,5.38,11.68,11.75-.04,6.36-5.23,11.53-11.6,11.56Z"/>
</svg>