<?xml version="1.0" encoding="UTF-8"?>
<svg id="Capa_1" data-name="Capa 1" xmlns="http://www.w3.org/2000/svg" viewBox="0 0 75.92 102">
  <defs>
    <style>
      .cls-1 {
        fill: #17774f;
      }
    </style>
  </defs>
  <path class="cls-1" d="m74.91,79.51c0-1.23-.54-1.74-1.81-1.75-.97-.01-1.95,0-2.83,0,.05-1.16.14-2.25.14-3.34,0-.89-.58-1.48-1.35-1.49-.82-.02-1.45.57-1.52,1.46-.04.49,0,.98,0,1.46-.03.96-.49,1.44-1.44,1.49-.68.03-1.38-.09-2.04.03-2.69.45-4.46-.69-6.21-2.72-3.48-4.06-8.06-5.89-13.44-5.45-1.64.13-3.26.35-4.99.54,0-2.7-.02-5.3,0-7.89.02-4.76,3.93-9.06,8.66-9.29,3.46-.17,6.95-.19,10.42-.02,5.21.25,9.01,4.4,9.04,9.63,0,1.89-.01,3.78,0,5.66,0,1.14.55,1.76,1.5,1.77.89.01,1.39-.59,1.4-1.73,0-1.95.02-3.91-.01-5.86-.07-5.2-3.22-9.73-8.06-11.61-.28-.11-.56-.22-.91-.35,6.15-4.73,7.26-11.83,4.82-16.78-4.36-8.86-11.45-10.48-20.22-6.85.22-.28.49-.49.74-.71,4.18-3.68,5.92-8.27,4.73-13.74-1.2-5.46-4.7-8.91-10.02-10.51-.62-.19-1.25-.31-1.88-.46h-3.31c-.15.06-.29.14-.44.17-5.86,1.1-9.79,4.48-11.31,10.23-1.53,5.76.28,10.63,4.81,14.49.18.16.35.33.52.49-.04.07-.07.14-.11.21-.3-.13-.6-.25-.89-.39-4.13-2.06-8.3-2.12-12.48-.18-.39.18-.9.47-1.02.82-.14.45-.1,1.11.14,1.51.44.71,1.19.7,1.9.33,1.99-1.03,4.12-1.35,6.33-1.11,4.97.54,9.08,4.6,9.66,9.51.63,5.32-2.29,10.12-7.26,11.92-4.74,1.72-10.22-.09-12.92-4.36-2.41-3.83-2.44-7.76-.31-11.74.23-.43.52-1.03.39-1.42-.16-.46-.67-.97-1.14-1.13-.7-.24-1.19.3-1.56.89-3.09,4.85-2.67,11.56,1.03,16.06.82.99,1.71,1.92,2.55,2.86-.02.01-.14.06-.25.1-4.73,1.84-7.65,5.22-8.29,10.28-.3,2.44-.12,4.94-.15,7.41-.01.38,0,.75,0,1.12-2,.24-3.38,1.15-4.2,2.84-.53,1.09-.39,2.27.55,3.02,3.24,2.61,6.49,5.2,9.83,7.66.96.7,2.23,1.18,3.4,1.31,4.06.47,8.15.73,12.22,1.1,3.03.28,6.11.37,8.85,1.97.11.06.23.11.36.13.71.12,1.32-.04,1.61-.76.27-.71.19-1.46-.52-1.79-1.5-.69-3.01-1.58-4.6-1.79-4.91-.65-9.86-1.17-14.81-1.44-2.83-.15-5.25-.89-7.39-2.7-.52-.44-1.11-.79-1.64-1.23-1.75-1.43-3.49-2.88-5.22-4.32.92-1.26,1.89-1.44,3.01-.69,1.26.85,2.52,1.72,3.8,2.54,2.78,1.77,5.76,2.74,9.12,2.4,2.13-.21,4.28-.19,6.43-.23.3,0,.72.23.88.48.66,1.07,1.55,1.6,2.82,1.58,2.11-.03,4.22-.03,6.33,0,2.43.03,4.48.92,6.11,2.76.75.84,1.54.96,2.19.37.65-.58.6-1.41-.13-2.23-2.13-2.37-4.77-3.63-7.97-3.67-1.95-.03-3.9-.01-5.85-.02-.31,0-.61-.03-.92-.04.1-1.84,1.18-2.86,3.23-3.08,3.58-.4,7.17-.72,10.74-1.17,5.18-.66,9.32,1.18,12.69,5.06.79.91,1.62,1.78,2.5,2.6.48.44.63.9.63,1.53-.02,4.36,0,8.72,0,13.08,0,.31-.03.62-.05,1.09-1.58-.83-3.03-1.6-4.49-2.36-3.82-1.99-7.63-4.01-11.46-5.97-1.07-.55-1.89-.26-2.27.63-.34.8.07,1.42,1.09,1.96,5.55,2.89,11.1,5.81,16.63,8.74.23.12.49.48.47.72-.05.86.34,1.42,1.02,1.85h13.45c.61-.43.99-.95.98-1.76-.02-6.58,0-13.15,0-19.73Zm-9.89,6.97c.82.11,1.19.74,1.14,1.56-.06.84-.58,1.31-1.37,1.39-.74.07-1.49.01-2.35.01v-2.99c.87,0,1.74-.09,2.58.03Zm-.28,5.75c2.37-.06,4.27-1.98,4.28-4.31,0-2.36-1.94-4.29-4.36-4.32-.71-.01-1.42,0-2.2,0v-2.89h9.49v17.31h-9.51v-5.79c.82,0,1.56.02,2.3,0Zm-28.25-22.17c-1.46.15-2.85.24-4.22.47-2.07.34-3.78,1.3-4.81,3.25-.12.22-.49.43-.75.44-3.21.11-6.42.26-9.63.22-.99-.01-2.05-.42-2.94-.9-1.76-.95-3.45-2.05-5.12-3.16-.33-.22-.58-.78-.59-1.19-.05-2.47-.04-4.94-.02-7.42.03-4.68,3.95-8.98,8.63-9.21,3.56-.17,7.14-.16,10.71-.01,4.55.2,8.43,4.05,8.71,8.61.17,2.92.03,5.85.03,8.9Zm-3.82-41.15h10.79c-2.91,3.29-4.23,6.97-3.77,11.15.45,4.13,2.48,7.43,5.99,10-3.47,1.13-5.97,3.16-7.67,6.18-3.25-4.19-3.39-4.31-7.53-6.16,7.02-6.35,7.79-13.36,2.19-21.17Zm-5.76-14.03c.05-6.16,4.97-11.01,11.15-10.99,6.08.02,10.99,5,10.96,11.1-.03,6.18-5.01,11.04-11.26,11.01-5.98-.03-10.88-5.07-10.85-11.12Zm15.49,23.64c.03-6.11,4.95-11,11.05-11.01,6.11,0,11.04,4.88,11.08,10.99.05,6.1-4.93,11.11-11.06,11.13-6.11.01-11.11-5.01-11.07-11.11Z"/>
  <path class="cls-1" d="m46.52,6.44c-2.25-2.28-5.26-3.54-8.45-3.55h-.05c-6.75,0-12.06,5.26-12.11,11.98-.02,3.23,1.23,6.27,3.51,8.58,2.24,2.27,5.2,3.53,8.33,3.55h.07c3.26,0,6.32-1.23,8.6-3.46,2.31-2.25,3.58-5.28,3.6-8.54.01-3.23-1.23-6.27-3.5-8.56Zm-8.76,18.56c-2.59-.02-5.05-1.06-6.92-2.95-1.9-1.93-2.94-4.47-2.93-7.16.04-5.62,4.48-10,10.11-10h.04c2.66.01,5.16,1.06,7.04,2.95,1.9,1.91,2.93,4.45,2.92,7.15,0,2.72-1.08,5.24-2.99,7.12-1.93,1.88-4.48,2.89-7.27,2.89Zm15.7,1.51h0c-6.61,0-12.01,5.39-12.05,12-.02,3.22,1.23,6.26,3.52,8.56,2.28,2.29,5.31,3.56,8.53,3.56h.02c3.24-.01,6.29-1.29,8.57-3.59,2.28-2.3,3.52-5.34,3.49-8.55-.04-6.61-5.46-11.98-12.07-11.98Zm3.88,21.34c-1.21.51-2.52.77-3.87.78h-.02c-2.68,0-5.21-1.06-7.11-2.97-1.92-1.92-2.96-4.45-2.94-7.14.03-5.51,4.54-10,10.05-10.01h0c5.51,0,10.03,4.48,10.07,9.99.03,2.68-1.01,5.21-2.91,7.13-.96.97-2.07,1.71-3.28,2.22Zm-19.88,13.25c-.31-5.04-4.64-9.33-9.67-9.55-3.68-.16-7.32-.15-10.8.01-5.15.25-9.54,4.92-9.58,10.21-.02,2.5-.03,4.96.02,7.44.02.66.38,1.56,1.03,2,1.9,1.26,3.51,2.29,5.21,3.21,1.24.66,2.38,1.01,3.39,1.02.35.01.71.01,1.06.01,2.35,0,4.71-.09,7.01-.17l1.62-.06c.62-.02,1.31-.44,1.59-.97.81-1.52,2.15-2.41,4.1-2.74.9-.15,1.82-.23,2.79-.32.45-.05.9-.09,1.37-.14l.89-.09v-.9c0-.95,0-1.88.03-2.81.03-2.11.06-4.11-.06-6.15Zm-12.4,12.18c-2.62.09-5.32.19-7.97.16-.68-.01-1.54-.28-2.47-.78-1.63-.88-3.2-1.88-5.02-3.1-.07-.07-.17-.29-.17-.39-.05-2.45-.04-4.9-.02-7.39.03-4.18,3.62-8.02,7.68-8.22,1.74-.08,3.52-.12,5.33-.12s3.5.03,5.28.11c4.04.18,7.51,3.62,7.76,7.67.12,1.97.09,3.93.06,6,0,.64-.02,1.28-.03,1.93-.15.02-.3.03-.45.04-1.01.1-1.96.19-2.93.35-2.53.42-4.38,1.66-5.49,3.68l-1.56.06Zm40.1,12.2c-.67-.09-1.32-.07-1.96-.05-.25.01-.51.02-.76.02h-1v4.99h1c.26,0,.52.01.76.01.25.01.48.01.72.01.32,0,.64-.01.96-.04,1.32-.12,2.19-1.01,2.27-2.32.09-1.39-.71-2.44-1.99-2.62Zm-.47,2.95c-.39.04-.8.03-1.25.03v-1.03c.51-.02,1-.02,1.45.04.13,0,.3.04.27.51-.02.28-.09.41-.47.45Zm-3.23-8.72v4.89h1.74c.49,0,.97-.01,1.45,0,1.86.02,3.37,1.51,3.37,3.32,0,1.78-1.49,3.27-3.3,3.31-.5.01-.99.01-1.5.01h-1.78s0,7.78,0,7.78h11.51v-19.31h-11.49Zm9.49,17.31h-7.51v-3.78c.45,0,.89,0,1.33-.01,2.89-.07,5.24-2.45,5.25-5.31,0-2.9-2.4-5.29-5.35-5.32h-1.21v-.89h7.49v15.31Zm-9.49-17.31v4.89h1.74c.49,0,.97-.01,1.45,0,1.86.02,3.37,1.51,3.37,3.32,0,1.78-1.49,3.27-3.3,3.31-.5.01-.99.01-1.5.01h-1.78s0,7.78,0,7.78h11.51v-19.31h-11.49Zm9.49,17.31h-7.51v-3.78c.45,0,.89,0,1.33-.01,2.89-.07,5.24-2.45,5.25-5.31,0-2.9-2.4-5.29-5.35-5.32h-1.21v-.89h7.49v15.31Zm-5.79-11.54c-.67-.09-1.32-.07-1.96-.05-.25.01-.51.02-.76.02h-1v4.99h1c.26,0,.52.01.76.01.25.01.48.01.72.01.32,0,.64-.01.96-.04,1.32-.12,2.19-1.01,2.27-2.32.09-1.39-.71-2.44-1.99-2.62Zm-.47,2.95c-.39.04-.8.03-1.25.03v-1.03c.51-.02,1-.02,1.45.04.13,0,.3.04.27.51-.02.28-.09.41-.47.45Zm-11.23-61.92h0c-6.61,0-12.01,5.39-12.05,12-.02,3.22,1.23,6.26,3.52,8.56,2.28,2.29,5.31,3.56,8.53,3.56h.02c3.24-.01,6.29-1.29,8.57-3.59,2.28-2.3,3.52-5.34,3.49-8.55-.04-6.61-5.46-11.98-12.07-11.98Zm3.88,21.34c-1.21.51-2.52.77-3.87.78h-.02c-2.68,0-5.21-1.06-7.11-2.97-1.92-1.92-2.96-4.45-2.94-7.14.03-5.51,4.54-10,10.05-10.01h0c5.51,0,10.03,4.48,10.07,9.99.03,2.68-1.01,5.21-2.91,7.13-.96.97-2.07,1.71-3.28,2.22ZM46.52,6.44c-2.25-2.28-5.26-3.54-8.45-3.55h-.05c-6.75,0-12.06,5.26-12.11,11.98-.02,3.23,1.23,6.27,3.51,8.58,2.24,2.27,5.2,3.53,8.33,3.55h.07c3.26,0,6.32-1.23,8.6-3.46,2.31-2.25,3.58-5.28,3.6-8.54.01-3.23-1.23-6.27-3.5-8.56Zm-8.76,18.56c-2.59-.02-5.05-1.06-6.92-2.95-1.9-1.93-2.94-4.47-2.93-7.16.04-5.62,4.48-10,10.11-10h.04c2.66.01,5.16,1.06,7.04,2.95,1.9,1.91,2.93,4.45,2.92,7.15,0,2.72-1.08,5.24-2.99,7.12-1.93,1.88-4.48,2.89-7.27,2.89Zm-.3,36.1c-.31-5.04-4.64-9.33-9.67-9.55-3.68-.16-7.32-.15-10.8.01-5.15.25-9.54,4.92-9.58,10.21-.02,2.5-.03,4.96.02,7.44.02.66.38,1.56,1.03,2,1.9,1.26,3.51,2.29,5.21,3.21,1.24.66,2.38,1.01,3.39,1.02.35.01.71.01,1.06.01,2.35,0,4.71-.09,7.01-.17l1.62-.06c.62-.02,1.31-.44,1.59-.97.81-1.52,2.15-2.41,4.1-2.74.9-.15,1.82-.23,2.79-.32.45-.05.9-.09,1.37-.14l.89-.09v-.9c0-.95,0-1.88.03-2.81.03-2.11.06-4.11-.06-6.15Zm-12.4,12.18c-2.62.09-5.32.19-7.97.16-.68-.01-1.54-.28-2.47-.78-1.63-.88-3.2-1.88-5.02-3.1-.07-.07-.17-.29-.17-.39-.05-2.45-.04-4.9-.02-7.39.03-4.18,3.62-8.02,7.68-8.22,1.74-.08,3.52-.12,5.33-.12s3.5.03,5.28.11c4.04.18,7.51,3.62,7.76,7.67.12,1.97.09,3.93.06,6,0,.64-.02,1.28-.03,1.93-.15.02-.3.03-.45.04-1.01.1-1.96.19-2.93.35-2.53.42-4.38,1.66-5.49,3.68l-1.56.06Zm12.4-12.18c-.31-5.04-4.64-9.33-9.67-9.55-3.68-.16-7.32-.15-10.8.01-5.15.25-9.54,4.92-9.58,10.21-.02,2.5-.03,4.96.02,7.44.02.66.38,1.56,1.03,2,1.9,1.26,3.51,2.29,5.21,3.21,1.24.66,2.38,1.01,3.39,1.02.35.01.71.01,1.06.01,2.35,0,4.71-.09,7.01-.17l1.62-.06c.62-.02,1.31-.44,1.59-.97.81-1.52,2.15-2.41,4.1-2.74.9-.15,1.82-.23,2.79-.32.45-.05.9-.09,1.37-.14l.89-.09v-.9c0-.95,0-1.88.03-2.81.03-2.11.06-4.11-.06-6.15Zm-12.4,12.18c-2.62.09-5.32.19-7.97.16-.68-.01-1.54-.28-2.47-.78-1.63-.88-3.2-1.88-5.02-3.1-.07-.07-.17-.29-.17-.39-.05-2.45-.04-4.9-.02-7.39.03-4.18,3.62-8.02,7.68-8.22,1.74-.08,3.52-.12,5.33-.12s3.5.03,5.28.11c4.04.18,7.51,3.62,7.76,7.67.12,1.97.09,3.93.06,6,0,.64-.02,1.28-.03,1.93-.15.02-.3.03-.45.04-1.01.1-1.96.19-2.93.35-2.53.42-4.38,1.66-5.49,3.68l-1.56.06ZM46.52,6.44c-2.25-2.28-5.26-3.54-8.45-3.55h-.05c-6.75,0-12.06,5.26-12.11,11.98-.02,3.23,1.23,6.27,3.51,8.58,2.24,2.27,5.2,3.53,8.33,3.55h.07c3.26,0,6.32-1.23,8.6-3.46,2.31-2.25,3.58-5.28,3.6-8.54.01-3.23-1.23-6.27-3.5-8.56Zm-8.76,18.56c-2.59-.02-5.05-1.06-6.92-2.95-1.9-1.93-2.94-4.47-2.93-7.16.04-5.62,4.48-10,10.11-10h.04c2.66.01,5.16,1.06,7.04,2.95,1.9,1.91,2.93,4.45,2.92,7.15,0,2.72-1.08,5.24-2.99,7.12-1.93,1.88-4.48,2.89-7.27,2.89Zm15.7,1.51h0c-6.61,0-12.01,5.39-12.05,12-.02,3.22,1.23,6.26,3.52,8.56,2.28,2.29,5.31,3.56,8.53,3.56h.02c3.24-.01,6.29-1.29,8.57-3.59,2.28-2.3,3.52-5.34,3.49-8.55-.04-6.61-5.46-11.98-12.07-11.98Zm3.88,21.34c-1.21.51-2.52.77-3.87.78h-.02c-2.68,0-5.21-1.06-7.11-2.97-1.92-1.92-2.96-4.45-2.94-7.14.03-5.51,4.54-10,10.05-10.01h0c5.51,0,10.03,4.48,10.07,9.99.03,2.68-1.01,5.21-2.91,7.13-.96.97-2.07,1.71-3.28,2.22Zm7.82,37.63c-.67-.09-1.32-.07-1.96-.05-.25.01-.51.02-.76.02h-1v4.99h1c.26,0,.52.01.76.01.25.01.48.01.72.01.32,0,.64-.01.96-.04,1.32-.12,2.19-1.01,2.27-2.32.09-1.39-.71-2.44-1.99-2.62Zm-.47,2.95c-.39.04-.8.03-1.25.03v-1.03c.51-.02,1-.02,1.45.04.13,0,.3.04.27.51-.02.28-.09.41-.47.45Zm-3.23-8.72v4.89h1.74c.49,0,.97-.01,1.45,0,1.86.02,3.37,1.51,3.37,3.32,0,1.78-1.49,3.27-3.3,3.31-.5.01-.99.01-1.5.01h-1.78s0,7.78,0,7.78h11.51v-19.31h-11.49Zm9.49,17.31h-7.51v-3.78c.45,0,.89,0,1.33-.01,2.89-.07,5.24-2.45,5.25-5.31,0-2.9-2.4-5.29-5.35-5.32h-1.21v-.89h7.49v15.31Zm-9.49-17.31v4.89h1.74c.49,0,.97-.01,1.45,0,1.86.02,3.37,1.51,3.37,3.32,0,1.78-1.49,3.27-3.3,3.31-.5.01-.99.01-1.5.01h-1.78s0,7.78,0,7.78h11.51v-19.31h-11.49Zm9.49,17.31h-7.51v-3.78c.45,0,.89,0,1.33-.01,2.89-.07,5.24-2.45,5.25-5.31,0-2.9-2.4-5.29-5.35-5.32h-1.21v-.89h7.49v15.31Zm-7.75-6.57c.25.01.48.01.72.01.32,0,.64-.01.96-.04,1.32-.12,2.19-1.01,2.27-2.32.09-1.39-.71-2.44-1.99-2.62-.67-.09-1.32-.07-1.96-.05-.25.01-.51.02-.76.02h-1v4.99h1c.26,0,.52.01.76.01Zm.24-3.02c.51-.02,1-.02,1.45.04.13,0,.3.04.27.51-.02.28-.09.41-.47.45-.39.04-.8.03-1.25.03v-1.03Zm2.09-48.94c-.04-6.61-5.46-11.98-12.07-11.98h0c-6.61,0-12.01,5.39-12.05,12-.02,3.22,1.23,6.26,3.52,8.56,2.28,2.29,5.31,3.56,8.53,3.56h.02c3.24-.01,6.29-1.29,8.57-3.59,2.28-2.3,3.52-5.34,3.49-8.55Zm-8.19,9.36c-1.21.51-2.52.77-3.87.78h-.02c-2.68,0-5.21-1.06-7.11-2.97-1.92-1.92-2.96-4.45-2.94-7.14.03-5.51,4.54-10,10.05-10.01h0c5.51,0,10.03,4.48,10.07,9.99.03,2.68-1.01,5.21-2.91,7.13-.96.97-2.07,1.71-3.28,2.22Zm-7.32-32.85c.01-3.23-1.23-6.27-3.5-8.56-2.25-2.28-5.26-3.54-8.45-3.55h-.05c-6.75,0-12.06,5.26-12.11,11.98-.02,3.23,1.23,6.27,3.51,8.58,2.24,2.27,5.2,3.53,8.33,3.55h.07c3.26,0,6.32-1.23,8.6-3.46,2.31-2.25,3.58-5.28,3.6-8.54Zm-12.26,10c-2.59-.02-5.05-1.06-6.92-2.95-1.9-1.93-2.94-4.47-2.93-7.16.04-5.62,4.48-10,10.11-10h.04c2.66.01,5.16,1.06,7.04,2.95,1.9,1.91,2.93,4.45,2.92,7.15,0,2.72-1.08,5.24-2.99,7.12-1.93,1.88-4.48,2.89-7.27,2.89Zm-9.97,26.55c-3.68-.16-7.32-.15-10.8.01-5.15.25-9.54,4.92-9.58,10.21-.02,2.5-.03,4.96.02,7.44.02.66.38,1.56,1.03,2,1.9,1.26,3.51,2.29,5.21,3.21,1.24.66,2.38,1.01,3.39,1.02.35.01.71.01,1.06.01,2.35,0,4.71-.09,7.01-.17l1.62-.06c.62-.02,1.31-.44,1.59-.97.81-1.52,2.15-2.41,4.1-2.74.9-.15,1.82-.23,2.79-.32.45-.05.9-.09,1.37-.14l.89-.09v-.9c0-.95,0-1.88.03-2.81.03-2.11.06-4.11-.06-6.15-.31-5.04-4.64-9.33-9.67-9.55Zm-2.73,21.73c-2.62.09-5.32.19-7.97.16-.68-.01-1.54-.28-2.47-.78-1.63-.88-3.2-1.88-5.02-3.1-.07-.07-.17-.29-.17-.39-.05-2.45-.04-4.9-.02-7.39.03-4.18,3.62-8.02,7.68-8.22,1.74-.08,3.52-.12,5.33-.12s3.5.03,5.28.11c4.04.18,7.51,3.62,7.76,7.67.12,1.97.09,3.93.06,6,0,.64-.02,1.28-.03,1.93-.15.02-.3.03-.45.04-1.01.1-1.96.19-2.93.35-2.53.42-4.38,1.66-5.49,3.68l-1.56.06Zm50.85,13.71v-7.48c0-1.24-.49-2.73-2.8-2.75-.61-.01-1.21-.01-1.79,0,.05-.8.09-1.56.09-2.34,0-1.39-1-2.46-2.33-2.49h-.05c-1.33,0-2.37.99-2.49,2.38-.02.32-.02.64,0,.96v.55c-.02.46-.08.5-.49.52-.24.01-.48,0-.73-.01-.43-.01-.93-.03-1.43.05-2.03.35-3.51-.32-5.28-2.39-3.65-4.25-8.57-6.25-14.28-5.79-1.13.09-2.25.22-3.41.36l-.51.06v-1.35c0-1.83,0-3.62,0-5.42.02-4.29,3.55-8.09,7.71-8.29,3.53-.18,7-.19,10.32-.02,4.66.22,8.06,3.86,8.09,8.64v5.66c0,1.67.99,2.75,2.49,2.76.61,0,1.23-.21,1.66-.63.49-.49.74-1.19.75-2.1v-.5c0-1.79.02-3.58-.01-5.37-.07-5.35-3.21-10.09-8.06-12.26,5.73-5.27,6.07-12.32,3.81-16.91-3.73-7.57-9.74-10.51-17.51-8.65,2.9-3.58,3.86-7.75,2.83-12.42-1.25-5.71-4.85-9.5-10.71-11.26-.44-.14-.89-.24-1.34-.34l-.58-.13-3.74-.03-.36.15s-.07.03-.08.04c-6.32,1.18-10.5,4.97-12.09,10.95-1.27,4.81-.36,9.23,2.64,12.97-3.4-.91-6.83-.58-10.24,1-.87.41-1.36.86-1.54,1.42-.25.75-.15,1.71.23,2.33.67,1.1,1.93,1.38,3.21.71,1.75-.91,3.63-1.23,5.76-1.01,4.48.49,8.25,4.2,8.77,8.64.58,4.85-2.08,9.22-6.61,10.86-4.34,1.58-9.27-.09-11.72-3.96-2.2-3.47-2.29-6.98-.28-10.73.36-.68.7-1.47.45-2.21-.25-.76-.99-1.5-1.76-1.76-.71-.24-1.76-.21-2.72,1.3-3.31,5.2-2.84,12.45,1.1,17.24.53.64,1.08,1.25,1.63,1.84-4.59,2.13-7.22,5.7-7.84,10.64-.22,1.75-.19,3.52-.17,5.24.01.76.02,1.52.01,2.28,0,.1-.01.19-.01.29-1.88.44-3.26,1.52-4.09,3.24-.76,1.56-.44,3.23.82,4.24,3.31,2.66,6.56,5.25,9.87,7.68,1.09.8,2.5,1.35,3.88,1.51,2.62.3,5.29.52,7.88.73,1.45.11,2.91.23,4.36.36l1.02.09c2.66.23,5.17.44,7.41,1.75.23.13.47.22.71.26,1.29.21,2.27-.3,2.7-1.38.51-1.31.1-2.55-1.03-3.07-.32-.14-.63-.29-.94-.45-1.25-.6-2.54-1.23-3.94-1.42-5.57-.73-10.45-1.21-14.9-1.45-2.82-.15-4.98-.93-6.8-2.46-.29-.25-.6-.47-.92-.7-.24-.17-.49-.35-.72-.54-1.24-1.01-2.46-2.03-3.68-3.04l-.69-.57c.34-.17.63-.02.96.2l.88.59c.97.66,1.95,1.32,2.95,1.96,3.22,2.06,6.41,2.89,9.75,2.56,1.72-.17,3.5-.19,5.22-.21l1.06-.02s.08.04.08.02c.86,1.37,2.11,2.06,3.68,2.04,2.04-.03,4.17-.03,6.31,0,2.2.03,3.95.82,5.37,2.42.75.84,1.47,1.05,1.96,1.08.58.03,1.16-.18,1.65-.62,1.06-.97,1.04-2.43-.06-3.65-2.35-2.61-5.27-3.96-8.7-4-1.24-.02-2.49-.02-3.74-.02h-1.81c.27-.54.86-.99,2.11-1.13,1.29-.14,2.58-.28,3.87-.41,2.26-.23,4.59-.47,6.88-.76,4.67-.6,8.54.95,11.82,4.73.83.96,1.7,1.86,2.57,2.67.24.22.31.39.31.79-.02,3.04,0,6.07,0,9.11v3.44c-1.05-.55-2.06-1.09-3.07-1.61l-2.75-1.44c-2.91-1.52-5.81-3.05-8.73-4.54-1.01-.51-1.78-.42-2.25-.25-.62.22-1.1.7-1.39,1.38-.25.6-.62,2.1,1.55,3.23,5.54,2.89,11.06,5.8,16.56,8.73,0,1.06.5,1.91,1.47,2.54l.25.16h14.06l.26-.18c.96-.67,1.42-1.51,1.41-2.59,0-4.08,0-8.16,0-12.24Zm-2.32,13.01h-12.78c-.3-.25-.36-.49-.34-.79.04-.69-.48-1.38-1-1.66-5.54-2.93-11.08-5.85-16.64-8.75-.75-.39-.67-.57-.63-.67.04-.09.12-.25.23-.29.05-.02.24-.06.66.15,2.91,1.49,5.81,3.01,8.71,4.53l2.75,1.44c1.02.53,2.03,1.06,3.08,1.62l2.79,1.46.1-1.99c.01-.27.03-.49.03-.71v-3.98c0-3.04-.01-6.07,0-9.1,0-.96-.29-1.66-.95-2.27-.82-.76-1.63-1.6-2.42-2.52-3.7-4.25-8.26-6.07-13.58-5.39-2.27.28-4.59.52-6.83.75-1.3.14-2.6.27-3.89.41-2.53.28-3.99,1.71-4.12,4.03l-.05,1,1.27.06c.24.02.47.03.7.03h2.13c1.23,0,2.47,0,3.71.02,2.88.03,5.25,1.13,7.24,3.34.49.55.29.74.2.82-.06.05-.14.11-.2.11-.11,0-.31-.11-.57-.41-1.79-2.01-4.09-3.06-6.85-3.09-2.16-.03-4.3-.03-6.36,0h-.04c-.86,0-1.43-.33-1.91-1.1-.34-.56-1.09-.97-1.75-.96l-1.12.02c-1.76.02-3.59.04-5.39.22-2.88.29-5.65-.45-8.48-2.26-.98-.62-1.94-1.27-2.9-1.92l-.88-.6c-.93-.62-2.73-1.33-4.38.93l-.55.76,2.26,1.88c1.22,1.01,2.45,2.04,3.69,3.05.27.22.55.42.83.62.27.19.54.38.79.6,2.17,1.82,4.71,2.76,7.98,2.93,4.4.24,9.23.71,14.74,1.44,1.09.14,2.18.67,3.33,1.23.33.16.65.32.98.47.16.08.05.41.01.51-.05.12-.09.22-.54.13-2.63-1.53-5.49-1.78-8.25-2.01l-1-.09c-1.47-.13-2.93-.25-4.39-.37-2.57-.21-5.22-.42-7.81-.72-1.03-.12-2.12-.54-2.92-1.13-3.29-2.41-6.51-4.98-9.8-7.63-.76-.6-.45-1.46-.28-1.81.66-1.35,1.74-2.08,3.41-2.28l.89-.1v-1.26c-.01-.25-.01-.49,0-.73,0-.78,0-1.56-.01-2.34-.02-1.72-.05-3.35.16-4.96.56-4.51,3.11-7.69,7.59-9.46l.86-.33.17-1.14-.41-.33c-.24-.27-.48-.54-.73-.81-.58-.62-1.17-1.27-1.71-1.93-3.41-4.15-3.82-10.41-.97-14.89.25-.39.39-.48.4-.49.15.06.39.29.48.45,0,.09-.07.28-.29.69-2.35,4.38-2.23,8.66.35,12.74,2.94,4.66,8.87,6.66,14.1,4.77,5.41-1.97,8.59-7.18,7.91-12.98-.64-5.42-5.08-9.79-10.55-10.38-2.49-.27-4.81.14-6.89,1.22-.46.23-.54.09-.58.02-.07-.1-.1-.39-.06-.59.05-.05.2-.16.5-.3,3.93-1.83,7.73-1.77,11.62.16.21.11.43.2.65.3l1.1.45.95-1.65-.73-.69c-.13-.12-.27-.25-.41-.37-4.36-3.72-5.87-8.25-4.49-13.47,1.4-5.26,4.94-8.46,10.53-9.51.19-.03.35-.1.47-.15h2.99l.49.11c.41.09.81.18,1.21.3,5.11,1.54,8.24,4.83,9.33,9.77,1.08,4.95-.4,9.25-4.41,12.78l-.12.1c-.23.2-.49.43-.73.73l-1.72,2.12h-12.84l1.13,1.58c5.27,7.34,4.6,13.83-2.04,19.85l-1.14,1.03,1.4.63q3.99,1.78,7.15,5.86l.92,1.19.74-1.32c1.57-2.8,3.9-4.67,7.11-5.72l1.85-.61-1.57-1.15c-3.34-2.45-5.17-5.5-5.59-9.3-.42-3.82.73-7.22,3.53-10.38l1.46-1.66h-.61l1.38-.57c8.83-3.65,15.02-1.57,18.93,6.37,2.08,4.22,1.54,10.88-4.53,15.54l-1.41,1.08,2.57,1.01c4.44,1.72,7.36,5.92,7.42,10.68.03,1.78.02,3.56.01,5.33v.51c-.01.4-.09.62-.16.69-.05.04-.14.05-.23.05-.23,0-.5,0-.51-.77v-5.67c-.04-5.78-4.33-10.35-9.99-10.62-3.39-.17-6.93-.16-10.52.02-5.18.26-9.58,4.97-9.61,10.28,0,1.8,0,3.6,0,5.43v3.59s1.12-.12,1.12-.12c.55-.07,1.09-.13,1.63-.19,1.13-.14,2.23-.27,3.33-.36,5.09-.41,9.34,1.31,12.6,5.11,1.59,1.84,3.67,3.65,7.14,3.05.29-.05.64-.03,1.01-.02.31.01.61.03.91.01,1.47-.07,2.34-.97,2.39-2.46v-.64c-.01-.26-.01-.52,0-.77.01-.2.1-.54.49-.54h0c.32.01.37.31.37.49,0,.74-.04,1.47-.08,2.23-.02.35-.04.7-.06,1.06l-.05,1.05h1.87c.65,0,1.32-.01,2,0,.79,0,.82.14.82.75v7.48c0,4.09,0,8.17,0,12.25.01.29-.05.51-.33.76Zm-34.9-59.84c.42,3.78,2.1,6.99,5.01,9.59-2.41,1.07-4.32,2.64-5.78,4.75-2.22-2.82-2.97-3.46-5.68-4.72,5.97-6.02,6.74-12.69,2.3-19.87h6.85c-2.2,3.13-3.1,6.57-2.7,10.25Zm22.77,44.44h1.74c.49,0,.97-.01,1.45,0,1.86.02,3.37,1.51,3.37,3.32,0,1.78-1.49,3.27-3.3,3.31-.5.01-.99.01-1.5.01h-1.78s0,7.78,0,7.78h11.51v-19.31h-11.49v4.89Zm2-2.89h7.49v15.31h-7.51v-3.78c.45,0,.89,0,1.33-.01,2.89-.07,5.24-2.45,5.25-5.31,0-2.9-2.4-5.29-5.35-5.32h-1.21v-.89Zm-.26,8.74c.25.01.48.01.72.01.32,0,.64-.01.96-.04,1.32-.12,2.19-1.01,2.27-2.32.09-1.39-.71-2.44-1.99-2.62-.67-.09-1.32-.07-1.96-.05-.25.01-.51.02-.76.02h-1v4.99h1c.26,0,.52.01.76.01Zm.24-3.02c.51-.02,1-.02,1.45.04.13,0,.3.04.27.51-.02.28-.09.41-.47.45-.39.04-.8.03-1.25.03v-1.03Zm-9.97-36.8c3.24-.01,6.29-1.29,8.57-3.59,2.28-2.3,3.52-5.34,3.49-8.55-.04-6.61-5.46-11.98-12.07-11.98h0c-6.61,0-12.01,5.39-12.05,12-.02,3.22,1.23,6.26,3.52,8.56,2.28,2.29,5.31,3.56,8.53,3.56h.02Zm-.02-22.12h0c5.51,0,10.03,4.48,10.07,9.99.03,2.68-1.01,5.21-2.91,7.13-.96.97-2.07,1.71-3.28,2.22-1.21.51-2.52.77-3.87.78h-.02c-2.68,0-5.21-1.06-7.11-2.97-1.92-1.92-2.96-4.45-2.94-7.14.03-5.51,4.54-10,10.05-10.01Zm-15.63-1.51c3.26,0,6.32-1.23,8.6-3.46,2.31-2.25,3.58-5.28,3.6-8.54.01-3.23-1.23-6.27-3.5-8.56-2.25-2.28-5.26-3.54-8.45-3.55h-.05c-6.75,0-12.06,5.26-12.11,11.98-.02,3.23,1.23,6.27,3.51,8.58,2.24,2.27,5.2,3.53,8.33,3.55h.07Zm.2-22.11h.04c2.66.01,5.16,1.06,7.04,2.95,1.9,1.91,2.93,4.45,2.92,7.15,0,2.72-1.08,5.24-2.99,7.12-1.93,1.88-4.48,2.89-7.27,2.89-2.59-.02-5.05-1.06-6.92-2.95-1.9-1.93-2.94-4.47-2.93-7.16.04-5.62,4.48-10,10.11-10Zm-10.23,46.66c-3.68-.16-7.32-.15-10.8.01-5.15.25-9.54,4.92-9.58,10.21-.02,2.5-.03,4.96.02,7.44.02.66.38,1.56,1.03,2,1.9,1.26,3.51,2.29,5.21,3.21,1.24.66,2.38,1.01,3.39,1.02.35.01.71.01,1.06.01,2.35,0,4.71-.09,7.01-.17l1.62-.06c.62-.02,1.31-.44,1.59-.97.81-1.52,2.15-2.41,4.1-2.74.9-.15,1.82-.23,2.79-.32.45-.05.9-.09,1.37-.14l.89-.09v-.9c0-.95,0-1.88.03-2.81.03-2.11.06-4.11-.06-6.15-.31-5.04-4.64-9.33-9.67-9.55Zm-2.73,21.73c-2.62.09-5.32.19-7.97.16-.68-.01-1.54-.28-2.47-.78-1.63-.88-3.2-1.88-5.02-3.1-.07-.07-.17-.29-.17-.39-.05-2.45-.04-4.9-.02-7.39.03-4.18,3.62-8.02,7.68-8.22,1.74-.08,3.52-.12,5.33-.12s3.5.03,5.28.11c4.04.18,7.51,3.62,7.76,7.67.12,1.97.09,3.93.06,6,0,.64-.02,1.28-.03,1.93-.15.02-.3.03-.45.04-1.01.1-1.96.19-2.93.35-2.53.42-4.38,1.66-5.49,3.68l-1.56.06Zm12.4-12.18c-.31-5.04-4.64-9.33-9.67-9.55-3.68-.16-7.32-.15-10.8.01-5.15.25-9.54,4.92-9.58,10.21-.02,2.5-.03,4.96.02,7.44.02.66.38,1.56,1.03,2,1.9,1.26,3.51,2.29,5.21,3.21,1.24.66,2.38,1.01,3.39,1.02.35.01.71.01,1.06.01,2.35,0,4.71-.09,7.01-.17l1.62-.06c.62-.02,1.31-.44,1.59-.97.81-1.52,2.15-2.41,4.1-2.74.9-.15,1.82-.23,2.79-.32.45-.05.9-.09,1.37-.14l.89-.09v-.9c0-.95,0-1.88.03-2.81.03-2.11.06-4.11-.06-6.15Zm-12.4,12.18c-2.62.09-5.32.19-7.97.16-.68-.01-1.54-.28-2.47-.78-1.63-.88-3.2-1.88-5.02-3.1-.07-.07-.17-.29-.17-.39-.05-2.45-.04-4.9-.02-7.39.03-4.18,3.62-8.02,7.68-8.22,1.74-.08,3.52-.12,5.33-.12s3.5.03,5.28.11c4.04.18,7.51,3.62,7.76,7.67.12,1.97.09,3.93.06,6,0,.64-.02,1.28-.03,1.93-.15.02-.3.03-.45.04-1.01.1-1.96.19-2.93.35-2.53.42-4.38,1.66-5.49,3.68l-1.56.06ZM46.52,6.44c-2.25-2.28-5.26-3.54-8.45-3.55h-.05c-6.75,0-12.06,5.26-12.11,11.98-.02,3.23,1.23,6.27,3.51,8.58,2.24,2.27,5.2,3.53,8.33,3.55h.07c3.26,0,6.32-1.23,8.6-3.46,2.31-2.25,3.58-5.28,3.6-8.54.01-3.23-1.23-6.27-3.5-8.56Zm-8.76,18.56c-2.59-.02-5.05-1.06-6.92-2.95-1.9-1.93-2.94-4.47-2.93-7.16.04-5.62,4.48-10,10.11-10h.04c2.66.01,5.16,1.06,7.04,2.95,1.9,1.91,2.93,4.45,2.92,7.15,0,2.72-1.08,5.24-2.99,7.12-1.93,1.88-4.48,2.89-7.27,2.89Zm15.7,1.51h0c-6.61,0-12.01,5.39-12.05,12-.02,3.22,1.23,6.26,3.52,8.56,2.28,2.29,5.31,3.56,8.53,3.56h.02c3.24-.01,6.29-1.29,8.57-3.59,2.28-2.3,3.52-5.34,3.49-8.55-.04-6.61-5.46-11.98-12.07-11.98Zm3.88,21.34c-1.21.51-2.52.77-3.87.78h-.02c-2.68,0-5.21-1.06-7.11-2.97-1.92-1.92-2.96-4.45-2.94-7.14.03-5.51,4.54-10,10.05-10.01h0c5.51,0,10.03,4.48,10.07,9.99.03,2.68-1.01,5.21-2.91,7.13-.96.97-2.07,1.71-3.28,2.22Zm7.82,37.63c-.67-.09-1.32-.07-1.96-.05-.25.01-.51.02-.76.02h-1v4.99h1c.26,0,.52.01.76.01.25.01.48.01.72.01.32,0,.64-.01.96-.04,1.32-.12,2.19-1.01,2.27-2.32.09-1.39-.71-2.44-1.99-2.62Zm-.47,2.95c-.39.04-.8.03-1.25.03v-1.03c.51-.02,1-.02,1.45.04.13,0,.3.04.27.51-.02.28-.09.41-.47.45Zm-3.23-8.72v4.89h1.74c.49,0,.97-.01,1.45,0,1.86.02,3.37,1.51,3.37,3.32,0,1.78-1.49,3.27-3.3,3.31-.5.01-.99.01-1.5.01h-1.78s0,7.78,0,7.78h11.51v-19.31h-11.49Zm9.49,17.31h-7.51v-3.78c.45,0,.89,0,1.33-.01,2.89-.07,5.24-2.45,5.25-5.31,0-2.9-2.4-5.29-5.35-5.32h-1.21v-.89h7.49v15.31Zm-9.49-17.31v4.89h1.74c.49,0,.97-.01,1.45,0,1.86.02,3.37,1.51,3.37,3.32,0,1.78-1.49,3.27-3.3,3.31-.5.01-.99.01-1.5.01h-1.78s0,7.78,0,7.78h11.51v-19.31h-11.49Zm9.49,17.31h-7.51v-3.78c.45,0,.89,0,1.33-.01,2.89-.07,5.24-2.45,5.25-5.31,0-2.9-2.4-5.29-5.35-5.32h-1.21v-.89h7.49v15.31Zm-5.79-11.54c-.67-.09-1.32-.07-1.96-.05-.25.01-.51.02-.76.02h-1v4.99h1c.26,0,.52.01.76.01.25.01.48.01.72.01.32,0,.64-.01.96-.04,1.32-.12,2.19-1.01,2.27-2.32.09-1.39-.71-2.44-1.99-2.62Zm-.47,2.95c-.39.04-.8.03-1.25.03v-1.03c.51-.02,1-.02,1.45.04.13,0,.3.04.27.51-.02.28-.09.41-.47.45Zm-11.23-61.92h0c-6.61,0-12.01,5.39-12.05,12-.02,3.22,1.23,6.26,3.52,8.56,2.28,2.29,5.31,3.56,8.53,3.56h.02c3.24-.01,6.29-1.29,8.57-3.59,2.28-2.3,3.52-5.34,3.49-8.55-.04-6.61-5.46-11.98-12.07-11.98Zm3.88,21.34c-1.21.51-2.52.77-3.87.78h-.02c-2.68,0-5.21-1.06-7.11-2.97-1.92-1.92-2.96-4.45-2.94-7.14.03-5.51,4.54-10,10.05-10.01h0c5.51,0,10.03,4.48,10.07,9.99.03,2.68-1.01,5.21-2.91,7.13-.96.97-2.07,1.71-3.28,2.22ZM46.52,6.44c-2.25-2.28-5.26-3.54-8.45-3.55h-.05c-6.75,0-12.06,5.26-12.11,11.98-.02,3.23,1.23,6.27,3.51,8.58,2.24,2.27,5.2,3.53,8.33,3.55h.07c3.26,0,6.32-1.23,8.6-3.46,2.31-2.25,3.58-5.28,3.6-8.54.01-3.23-1.23-6.27-3.5-8.56Zm-8.76,18.56c-2.59-.02-5.05-1.06-6.92-2.95-1.9-1.93-2.94-4.47-2.93-7.16.04-5.62,4.48-10,10.11-10h.04c2.66.01,5.16,1.06,7.04,2.95,1.9,1.91,2.93,4.45,2.92,7.15,0,2.72-1.08,5.24-2.99,7.12-1.93,1.88-4.48,2.89-7.27,2.89Zm-.3,36.1c-.31-5.04-4.64-9.33-9.67-9.55-3.68-.16-7.32-.15-10.8.01-5.15.25-9.54,4.92-9.58,10.21-.02,2.5-.03,4.96.02,7.44.02.66.38,1.56,1.03,2,1.9,1.26,3.51,2.29,5.21,3.21,1.24.66,2.38,1.01,3.39,1.02.35.01.71.01,1.06.01,2.35,0,4.71-.09,7.01-.17l1.62-.06c.62-.02,1.31-.44,1.59-.97.81-1.52,2.15-2.41,4.1-2.74.9-.15,1.82-.23,2.79-.32.45-.05.9-.09,1.37-.14l.89-.09v-.9c0-.95,0-1.88.03-2.81.03-2.11.06-4.11-.06-6.15Zm-12.4,12.18c-2.62.09-5.32.19-7.97.16-.68-.01-1.54-.28-2.47-.78-1.63-.88-3.2-1.88-5.02-3.1-.07-.07-.17-.29-.17-.39-.05-2.45-.04-4.9-.02-7.39.03-4.18,3.62-8.02,7.68-8.22,1.74-.08,3.52-.12,5.33-.12s3.5.03,5.28.11c4.04.18,7.51,3.62,7.76,7.67.12,1.97.09,3.93.06,6,0,.64-.02,1.28-.03,1.93-.15.02-.3.03-.45.04-1.01.1-1.96.19-2.93.35-2.53.42-4.38,1.66-5.49,3.68l-1.56.06Z"/>
</svg>