<?xml version="1.0" encoding="UTF-8"?>
<svg id="Capa_1" data-name="Capa 1" xmlns="http://www.w3.org/2000/svg" viewBox="0 0 151.25 119.41">
  <defs>
    <style>
      .cls-1 {
        fill: #17774f;
      }
    </style>
  </defs>
  <path class="cls-1" d="m131.93,31.58c-.92-.89-2.17-.82-3.22.23-2.02,2-4.02,4.02-6.04,6.03-.21.21-.44.4-.79.72v-1.2c0-8.75,0-17.5-.01-26.24,0-6.49-4.6-11.11-11.07-11.11-19-.01-37.99-.01-56.98-.01-6.58.01-11.23,4.69-11.24,11.29-.01,4.33-.02,8.65,0,12.98,0,.72-.2.95-.93,1.02-4.67.45-8.95,2.02-12.78,4.71-7.61,5.33-11.79,12.67-12.4,21.95-.3,4.55.22,9.03,2.48,13.1,1.13,2.04,2.48,3.97,3.9,5.83,4.78,6.25,5.77,13.53,5.91,21.22-.74,0-1.37-.08-1.97.02-.95.16-1.97.27-2.8.7-3.14,1.63-4.07,5.37-2.21,8.47.22.36.44.63.13,1.1-1.41,2.09-1.49,4.29-.23,6.45,1.24,2.12,3.19,2.98,5.61,2.92,1.51-.04,3.03.02,4.54-.02.62-.02.85.21,1.03.78,1.32,4.15,5,6.83,9.36,6.88,1.69.01,3.38.01,5.07.01,4.74-.01,8.34-2.53,9.95-7.01.2-.54.47-.65.97-.64,1.66.02,3.32.02,4.98-.01,3-.05,5.42-2.27,5.73-5.27.18-1.66-.28-3.16-1.26-4.49.05-.11.08-.2.13-.27,1.45-2.06,1.6-4.27.47-6.47-1.14-2.2-3.08-3.2-5.55-3.16-.62.01-1.23,0-1.93,0,0-.38-.02-.67,0-.96.08-1.33.16-2.66.25-3.99.49-6.45,2.35-12.38,6.57-17.42,3.97-4.74,5.61-10.23,5.56-16.37-.11-13.72-9.81-25.34-23.3-27.8-.93-.16-1.87-.27-2.87-.42v-.82c0-4.42-.01-8.84,0-13.25,0-3.91,2.82-6.74,6.75-6.74,19.11-.02,38.22-.02,57.33-.01,3.79.01,6.64,2.88,6.64,6.66.01,8.8.01,17.61.01,26.41,0,.25-.04.49-.06.86-.24-.21-.38-.31-.5-.43-1.99-1.99-3.97-4-5.98-5.96-.39-.38-.91-.7-1.42-.83-.91-.24-1.83.3-2.28,1.16-.44.83-.31,1.75.45,2.52,3.47,3.53,6.95,7.04,10.45,10.54.92.92,2.19.89,3.1-.02,3.43-3.44,6.85-6.89,10.28-10.34,1.04-1.05,1.09-2.4.16-3.3ZM52.44,112.66c-1.08,1.58-2.61,2.39-4.51,2.43-1.89.04-3.79.03-5.69,0-2.23-.05-4.11-1.3-4.87-3.28h15.5c-.16.32-.27.6-.43.85Zm10.34-5.33h-17.85v.03c-5.89,0-11.78,0-17.68.01-.9,0-1.65-.19-1.99-1.13-.41-1.16.29-2.16,1.55-2.16,6.75-.03,13.5-.04,20.25-.04,5.27,0,10.55.02,15.82.04,1.18.01,1.81.6,1.79,1.59-.02,1.02-.72,1.66-1.89,1.66Zm.04-11.04c1.1,0,1.74.51,1.84,1.4.1.87-.44,1.71-1.27,1.88-.7.14-1.4.26-2.11.26-7.37.02-14.74.02-22.11.02-3.35,0-6.69,0-10.04-.02-.88,0-1.76-.12-2.64-.25-.84-.13-1.41-.95-1.34-1.83.08-.86.66-1.44,1.61-1.46,1.87-.03,3.73-.01,5.6-.01h12.61c5.95,0,11.9,0,17.85.01Zm-11.09-65.88c10.62,3.09,17.72,13.22,17.24,24.27-.2,4.62-1.57,8.7-4.53,12.25-5.21,6.26-7.29,13.64-7.69,21.62-.05,1.15-.12,2.3-.19,3.49h-9.44v-7.15c.01-3.59.03-7.17.01-10.76,0-.54.17-.85.64-1.11,2.25-1.26,4.49-2.54,6.71-3.84,1-.58,1.39-1.68,1.03-2.67-.32-.87-1.3-1.5-2.25-1.37-.37.05-.74.23-1.07.41-2.19,1.24-4.38,2.48-6.55,3.76-.53.31-.93.29-1.46-.02-2.11-1.26-4.24-2.48-6.37-3.71-1.3-.75-2.6-.49-3.24.64-.6,1.08-.17,2.35,1.08,3.07,2.15,1.26,4.31,2.48,6.44,3.76.29.18.58.62.58.94.04,5.81.03,11.62.03,17.43,0,.17-.03.35-.06.64h-9.36c-.11-1.78-.2-3.52-.34-5.25-.56-7.16-2.61-13.76-7.21-19.42-2.29-2.82-4.04-5.89-4.6-9.57-2.12-13.88,6.84-25.37,18.8-27.9,1.62-.34,3.27-.32,4.91-.4,2.4-.13,4.65.24,6.89.89Z"/>
  <path class="cls-1" d="m148.57,80.67c-1.3.02-2.6-.02-3.91.01-.48.01-.73-.16-.91-.62-.38-1-.79-1.98-1.28-2.93-.28-.53-.16-.83.24-1.21.97-.92,1.9-1.87,2.83-2.83,1.08-1.12,1.1-2.17.02-3.26-2.35-2.39-4.71-4.76-7.09-7.11-1.08-1.07-2.19-1.07-3.28-.02-.98.95-1.96,1.9-2.89,2.9-.4.43-.73.54-1.29.26-.9-.45-1.83-.84-2.78-1.17-.56-.19-.7-.5-.69-1.04.03-1.4.02-2.79,0-4.18-.02-1.52-.85-2.39-2.36-2.4-3.41-.02-6.82-.02-10.23,0-1.52.01-2.35.87-2.36,2.38,0,1.4-.02,2.79,0,4.18.01.5-.16.71-.64.88-1,.34-1.99.75-2.95,1.22-.48.24-.77.19-1.15-.18-.95-.93-1.93-1.83-2.91-2.74-1.3-1.19-2.29-1.2-3.55.03-2.32,2.25-4.61,4.52-6.91,6.79-1.26,1.24-1.27,2.36-.02,3.61,1.1,1.11,2.23,2.2,3.31,3.26-.52,1.28-1.04,2.44-1.46,3.64-.18.54-.44.67-.96.66-1.45-.03-2.9-.03-4.35-.01-1.47.02-2.37.86-2.38,2.3-.03,3.47-.03,6.94,0,10.41,0,1.41.89,2.24,2.31,2.26,1.45.02,2.91.03,4.36,0,.5-.02.74.16.91.62.38,1.03.78,2.05,1.23,3.04.19.43.16.68-.17,1-1.01.97-1.99,1.96-2.96,2.96-1.03,1.05-1.03,2.24.02,3.29,2.4,2.38,4.81,4.74,7.22,7.1,1.06,1.03,2.22,1.01,3.29-.03.99-.98,1.99-1.95,2.95-2.96.37-.41.67-.41,1.14-.19.91.43,1.84.84,2.79,1.15.6.19.74.5.73,1.09-.04,1.33-.03,2.67,0,4,.03,1.72.88,2.56,2.59,2.57h9.78c1.82,0,2.85-1.03,2.86-2.87,0-1.22.04-2.44-.01-3.65-.03-.72.14-1.11.91-1.32.91-.24,1.79-.63,2.63-1.06.53-.27.82-.18,1.21.23.93.99,1.91,1.95,2.88,2.9,1.08,1.05,2.23,1.06,3.28.01,2.38-2.36,4.75-4.73,7.1-7.11,1.06-1.07,1.06-2.19,0-3.27-.95-.98-1.91-1.96-2.89-2.9-.37-.35-.47-.64-.23-1.14.45-.93.85-1.89,1.18-2.87.19-.56.49-.7,1.04-.69,1.33.03,2.67.03,4,0,1.63-.03,2.46-.85,2.46-2.48.02-3.32.02-6.65.01-9.97-.01-1.76-.89-2.57-2.68-2.54Zm-1.68,10.59c-1.3,0-2.57-.01-3.83,0-1.83.01-2.3.5-2.9,2.22-.64,1.8-1.43,3.56-2.3,5.27-.69,1.32-.68,2.12.36,3.17.97.99,1.91,2.02,2.85,3.01-1.36,1.33-2.81,2.76-4.32,4.25-.9-.87-1.9-1.83-2.9-2.78-1.17-1.12-1.83-1.09-3.24-.39-1.8.88-3.66,1.64-5.54,2.33-1.37.49-1.95,1.11-1.95,2.57,0,1.36,0,2.71,0,4.13h-6.13v-2.84c0-.75.02-1.49,0-2.23-.06-1.2-.63-1.76-1.74-2.18-1.93-.72-3.84-1.51-5.7-2.39-1.24-.59-2.06-.59-3.04.41-1.01,1.04-2,2.1-2.97,3.12-1.56-1.57-2.99-3.01-4.49-4.51l2.88-2.88c1.02-1.02,1.05-1.72.47-3.03-.84-1.86-1.58-3.75-2.28-5.67-.45-1.23-1.17-1.86-2.49-1.87-1.41-.01-2.82,0-4.28,0v-6.26c1.51,0,2.95.01,4.4,0,1.26-.01,1.96-.67,2.37-1.86.66-1.9,1.37-3.78,2.2-5.6.68-1.51.68-2.11-.52-3.32-.93-.91-1.87-1.8-2.74-2.64,1.53-1.52,2.97-2.95,4.59-4.55.87.93,1.86,2.01,2.89,3.07,1,1.03,1.71,1.01,3.01.38,1.81-.87,3.66-1.65,5.54-2.33,1.31-.48,1.88-1.02,1.9-2.42.03-1.39,0-2.77,0-4.25h6.26v4.04c0,1.63.46,2.09,2.03,2.67,1.88.7,3.72,1.52,5.54,2.37,1.1.52,1.88.5,2.82-.38,1.07-1.01,2.13-2.04,3.19-3.06,1.47,1.48,2.88,2.91,4.39,4.43-.89.89-1.81,1.83-2.74,2.76-1.27,1.27-1.28,2.12-.46,3.73.85,1.67,1.57,3.44,2.21,5.21.52,1.46,1.09,2.01,2.61,2.01h4.05v6.29Z"/>
  <path class="cls-1" d="m81.56,41.93c-1.16-.02-1.91-.58-2.2-1.5-.28-.9.02-1.87.86-2.42.97-.63,1.99-1.17,2.99-1.75,1.15-.67,2.29-1.35,3.46-2,1.17-.65,2.33-.36,3.01.72.67,1.08.42,2.28-.75,2.99-2.08,1.26-4.19,2.46-6.3,3.65-.37.21-.84.26-1.05.32Z"/>
  <path class="cls-1" d="m23.99,26.42c-.87,0-1.52-.37-1.96-1.14-1.17-2.06-2.37-4.1-3.54-6.16-.68-1.2-.39-2.43.69-3.09,1.09-.66,2.33-.31,3.03.88,1.23,2.1,2.45,4.19,3.63,6.31.84,1.51-.17,3.21-1.85,3.19Z"/>
  <path class="cls-1" d="m71.64,18.25c-.07.19-.19.65-.42,1.05-1.1,1.96-2.23,3.9-3.35,5.84-.72,1.25-2.04,1.65-3.16.97-1.01-.61-1.29-1.96-.62-3.14,1.15-2.03,2.31-4.05,3.51-6.06.59-.99,1.64-1.35,2.68-1.03.81.25,1.37,1.11,1.36,2.36Z"/>
  <path class="cls-1" d="m2.43,33.99c.15.05.51.11.81.27,2.08,1.18,4.16,2.37,6.22,3.58.81.47,1.19,1.21,1.14,2.15-.04.83-.46,1.51-1.21,1.68-.66.16-1.52.17-2.1-.13-2.09-1.09-4.12-2.32-6.14-3.54-1-.6-1.37-1.67-1.03-2.68.26-.78,1.15-1.35,2.31-1.34Z"/>
  <path class="cls-1" d="m26.16,56.58c.42-11.91,10.13-21.43,21.98-21.65,1.62-.03,2.65.82,2.66,2.2,0,1.29-.95,2.18-2.37,2.21-4.06.1-7.75,1.29-10.96,3.81-4.34,3.42-6.66,7.92-7.02,13.43-.03.41-.01.83-.08,1.24-.18,1.13-1.08,1.86-2.17,1.81-1.09-.05-1.94-.87-2.03-1.98-.03-.38,0-.77,0-1.08Z"/>
  <path class="cls-1" d="m119.97,74.63c-7.38-.02-13.4,6.04-13.41,13.51,0,7.45,5.95,13.54,13.26,13.56,7.56.01,13.59-5.96,13.61-13.49.02-7.44-6.04-13.56-13.46-13.58Zm-.07,22.87c-5.05-.01-9.08-4.12-9.06-9.24.02-5.13,4.05-9.18,9.12-9.17,5.11.01,9.19,4.11,9.17,9.23-.01,5.11-4.12,9.19-9.23,9.18Z"/>
</svg>