<?xml version="1.0" encoding="UTF-8"?>
<svg id="Capa_1" data-name="Capa 1" xmlns="http://www.w3.org/2000/svg" viewBox="0 0 148.24 120">
  <defs>
    <style>
      .cls-1 {
        fill: #17774f;
      }
    </style>
  </defs>
  <path class="cls-1" d="m145.53,115.56h-11.32q-1.62,0-1.62-1.59c0-30.29-.02-60.58.04-90.88,0-2.03-1.43-3.27-3.45-2.49-6.9,2.66-13.83,5.25-20.74,7.86-1.84.7-3.68,1.38-5.78,2.17V2.79c0-2.07-.74-2.78-2.81-2.78h-26.86C62.94.01,52.9.01,42.85,0c-.89,0-1.8.09-2.23.9-.35.68-.51,1.53-.51,2.31-.03,11.42-.02,22.85,0,34.28.01.93-.3,1.35-1.16,1.67-6.9,2.56-13.78,5.16-20.66,7.77-2.15.82-2.37,1.19-2.37,3.53v63.69q0,1.39-1.4,1.39c-4.05.01-8.11.02-12.16.01-.9-.01-1.8.18-2.14,1.04-.26.64-.31,1.51-.09,2.17.34,1.02,1.33,1.23,2.35,1.23h40.82c19.07,0,38.14.01,57.21.01,15.01,0,30.03,0,45.05-.01,1.67,0,2.66-.84,2.67-2.2.01-1.42-.97-2.23-2.71-2.23Zm-105.42-1.17c0,.94-.25,1.19-1.18,1.18-5.81-.04-11.63-.03-17.44,0-.86,0-1.16-.22-1.16-1.12.03-20.88.02-41.75.01-62.62,0-.58.08-1,.71-1.23,6.1-2.28,12.18-4.58,18.27-6.88.17-.06.34-.08.7-.16.03.49.08.87.08,1.24.02,7.33.06,14.67.06,22-.02,15.86-.06,31.73-.05,47.59Zm58.19-54.38v54.06q0,1.47-1.42,1.47c-16.92.01-33.84,0-50.76.03-1.11,0-1.34-.35-1.34-1.38.03-24.06.05-48.11.02-72.16-.02-12.05-.15-24.11-.23-36.16-.01-1.4,0-1.41,1.35-1.41,17.06,0,34.12.01,51.18-.03,1.04,0,1.21.4,1.21,1.3-.02,17.74-.02,35.48-.02,53.22v1.06h0Zm29.94,53.86c0,1.68,0,1.69-1.64,1.69h-22.42q-1.52,0-1.52-1.48v-45.07c0-10.82.01-21.64,0-32.46,0-.73.08-1.23.91-1.54,7.88-2.93,15.75-5.92,23.62-8.88.28-.11.58-.17,1.05-.3v88.04Z"/>
  <path class="cls-1" d="m59.43,105.74c-2.07,0-4.15,0-6.22,0-1.59,0-2.57-.83-2.59-2.15-.03-1.43.9-2.31,2.53-2.31,4.25-.02,8.51,0,12.76-.01,1.02,0,1.89.29,2.38,1.25.78,1.52-.26,3.15-2.11,3.21-2.25.07-4.5.02-6.75.02,0,0,0,0,0,0Z"/>
  <path class="cls-1" d="m83.4,105.73c-2.18,0-4.36.02-6.54,0-1.29-.02-2.19-.77-2.35-1.85-.21-1.36.7-2.57,2.12-2.59,4.54-.05,9.08-.04,13.61,0,1.3.01,2.22,1.06,2.18,2.26-.03,1.21-.96,2.15-2.27,2.18-2.25.04-4.5.01-6.75.01h0Z"/>
  <path class="cls-1" d="m59.19,34.23c-2.11,0-4.22,0-6.33,0-1.54,0-2.53-.88-2.55-2.21-.02-1.3.9-2.22,2.41-2.23,4.36-.04,8.73-.05,13.09-.02,1.53.01,2.51,1.01,2.46,2.32-.05,1.26-1.05,2.13-2.53,2.14-2.18.02-4.36,0-6.55,0Z"/>
  <path class="cls-1" d="m83.14,34.23c-2.11,0-4.22.01-6.33,0-1.63-.01-2.6-.88-2.59-2.27,0-1.32.98-2.2,2.56-2.2,4.29-.02,8.58-.01,12.87,0,1.53,0,2.52.95,2.5,2.27-.02,1.32-1.02,2.19-2.57,2.2-2.14.01-4.29,0-6.44,0Z"/>
  <path class="cls-1" d="m59.46,91.42c-2.15,0-4.29,0-6.44,0-1.53,0-2.54-.89-2.56-2.21-.02-1.28,1.01-2.2,2.55-2.21,4.33-.01,8.65-.01,12.98,0,1.47,0,2.45.91,2.43,2.2-.02,1.32-.97,2.21-2.42,2.22-2.18.01-4.36,0-6.54,0Z"/>
  <path class="cls-1" d="m83.13,19.93c-2.15,0-4.29,0-6.44,0-1.49,0-2.56-.95-2.59-2.22-.02-1.26,1.05-2.22,2.57-2.22,4.29-.01,8.59-.01,12.88,0,1.57,0,2.54.88,2.53,2.21-.01,1.38-.93,2.21-2.51,2.23-2.15.02-4.29,0-6.44,0h0Z"/>
  <path class="cls-1" d="m83.1,48.51c-2.11,0-4.22,0-6.33,0-1.55,0-2.51-.87-2.51-2.23,0-1.31.93-2.21,2.43-2.22,4.36-.03,8.72-.02,13.09,0,1.45,0,2.42.96,2.42,2.25,0,1.3-.96,2.18-2.45,2.19-2.22.02-4.43,0-6.65,0h0Z"/>
  <path class="cls-1" d="m59.32,48.51c-2.11,0-4.22,0-6.34,0-1.66,0-2.63-.84-2.63-2.22,0-1.36,1-2.22,2.63-2.22,4.26,0,8.52-.01,12.78,0,1.58,0,2.58.95,2.52,2.34-.05,1.22-.96,2.08-2.31,2.09-2.22.02-4.44,0-6.65,0h0Z"/>
  <path class="cls-1" d="m59.26,19.92c-2.15,0-4.29,0-6.44,0-1.58,0-2.53-.85-2.53-2.21,0-1.38.9-2.24,2.5-2.24,4.33-.02,8.65-.02,12.98,0,1.43,0,2.47.97,2.48,2.21,0,1.29-1.04,2.23-2.55,2.24-2.15.01-4.29,0-6.44,0Z"/>
  <path class="cls-1" d="m59.33,58.39c2.18,0,4.36-.01,6.55,0,1.53.01,2.48.87,2.45,2.16-.03,1.4-.96,2.26-2.49,2.27-4.29,0-8.58,0-12.87,0-1.55,0-2.54-.86-2.56-2.18-.02-1.36.91-2.23,2.49-2.25,2.15-.02,4.29,0,6.44,0Z"/>
  <path class="cls-1" d="m83.2,77.1c-2.11,0-4.22.01-6.33,0-1.59-.01-2.53-.84-2.53-2.2,0-1.33,1-2.23,2.53-2.23,4.29,0,8.58,0,12.88,0,1.55,0,2.51.87,2.52,2.22,0,1.36-.92,2.2-2.51,2.21-2.18.02-4.36,0-6.54,0Z"/>
  <path class="cls-1" d="m59.41,77.11c-2.15,0-4.29,0-6.44,0-1.52,0-2.58-.94-2.57-2.21.02-1.28,1.07-2.22,2.58-2.22,4.29-.01,8.59-.01,12.88,0,1.57,0,2.48.85,2.49,2.23,0,1.39-.9,2.2-2.51,2.21-2.15,0-4.29,0-6.44,0Z"/>
  <path class="cls-1" d="m83.21,62.81c-2.11,0-4.22-.01-6.33,0-1.47.01-2.49-.79-2.56-2.07-.08-1.39.82-2.34,2.38-2.34,4.19-.03,8.38,0,12.56,0,.32,0,.63.04.95.09,1.4.2,2.09,1.02,2,2.36-.07,1.07-1.02,1.94-2.24,1.96-2.25.03-4.5,0-6.76,0,0,0,0-.01,0-.02Z"/>
  <path class="cls-1" d="m83.34,91.42c-2.15,0-4.29.01-6.44,0-1.53-.01-2.52-.91-2.52-2.24,0-1.28.97-2.18,2.46-2.18,4.36-.02,8.72-.02,13.08,0,1.48,0,2.39.88,2.38,2.23,0,1.32-.94,2.19-2.42,2.2-2.18.01-4.36,0-6.54,0Z"/>
  <path class="cls-1" d="m115.48,105.74c-1.76,0-3.52.02-5.28,0-1.65-.02-2.6-.89-2.58-2.29.02-1.33.99-2.17,2.58-2.18,3.55-.01,7.11-.02,10.66,0,1.4,0,2.32.68,2.54,1.77.29,1.46-.72,2.66-2.33,2.7-1.86.04-3.73,0-5.59.01Z"/>
  <path class="cls-1" d="m115.49,77.1c-1.83,0-3.66,0-5.49,0-1.57-.01-2.54-.89-2.51-2.23.03-1.33,1.02-2.2,2.56-2.2,3.55,0,7.11,0,10.66,0,1.61,0,2.64.9,2.62,2.25-.02,1.32-1,2.17-2.57,2.18-1.76.01-3.52,0-5.28,0Z"/>
  <path class="cls-1" d="m115.26,48.5c-1.79,0-3.59.01-5.38,0-1.51-.02-2.44-.86-2.45-2.17,0-1.32.93-2.25,2.39-2.26,3.69-.03,7.39-.03,11.08,0,1.42.01,2.38,1.01,2.35,2.31-.03,1.23-1,2.12-2.4,2.13-1.86.02-3.73,0-5.59,0h0Z"/>
  <path class="cls-1" d="m115.37,62.83c-1.83,0-3.66,0-5.49,0-1.4,0-2.42-.93-2.43-2.22,0-1.27.92-2.19,2.32-2.19,3.77-.02,7.53-.03,11.3,0,1.29,0,2.24.99,2.23,2.2-.02,1.22-.96,2.2-2.22,2.22-1.9.03-3.8,0-5.7,0Z"/>
  <path class="cls-1" d="m115.4,91.42c-1.79,0-3.59.01-5.38,0-1.47-.01-2.47-.89-2.51-2.16-.04-1.31.97-2.26,2.5-2.27,3.66-.02,7.32-.02,10.98,0,1.44,0,2.43.97,2.39,2.25-.04,1.29-1.04,2.17-2.48,2.18-1.83,0-3.66,0-5.49,0Z"/>
  <path class="cls-1" d="m30.33,101.25c1.27,0,2.54,0,3.81,0,1.54.01,2.49.88,2.5,2.25,0,1.33-.89,2.2-2.41,2.22-2.64.03-5.29.03-7.93,0-1.39-.02-2.33-.99-2.31-2.23.02-1.28.95-2.19,2.33-2.22,1.34-.03,2.68,0,4.02,0h0Z"/>
  <path class="cls-1" d="m30.32,91.42c-1.34,0-2.68.01-4.02,0-1.38-.02-2.37-.92-2.39-2.16-.02-1.32.91-2.24,2.38-2.26,2.64-.03,5.28-.03,7.93,0,1.46.01,2.4.95,2.38,2.26-.02,1.23-1,2.14-2.38,2.17-1.3.02-2.61,0-3.91,0h0Z"/>
  <path class="cls-1" d="m30.14,62.83c-1.3,0-2.6.02-3.91,0-1.35-.02-2.36-.96-2.38-2.18-.02-1.25.92-2.22,2.29-2.24,2.71-.03,5.42-.03,8.13,0,1.34.01,2.23.92,2.24,2.16,0,1.32-.88,2.23-2.26,2.26-1.37.03-2.74,0-4.11,0Z"/>
  <path class="cls-1" d="m30.22,77.11c-1.3,0-2.61.01-3.91,0-1.43-.02-2.39-.87-2.43-2.11-.04-1.31.91-2.3,2.35-2.32,2.71-.04,5.42-.04,8.14,0,1.28.02,2.23,1.04,2.22,2.23,0,1.22-.93,2.15-2.25,2.18-1.37.04-2.75,0-4.12,0h0Z"/>
</svg>