<?xml version="1.0" encoding="UTF-8"?>
<svg id="Capa_1" data-name="Capa 1" xmlns="http://www.w3.org/2000/svg" viewBox="0 0 107.64 119">
  <defs>
    <style>
      .cls-1 {
        fill: #17774f;
      }
    </style>
  </defs>
  <path class="cls-1" d="m105.27,107.29h-16.4c.75-.99,1.47-1.77,2.02-2.67.93-1.53,1.54-3.22,1.08-5.03-.98-3.79-2.06-7.55-3.09-11.33-2.11-7.69-4.21-15.38-6.32-23.08-.53-1.92-.95-3.89-2.13-5.58-1.54-2.18-3.68-3.47-6.14-4.34-1.7-.61-3.45-1.14-5.1-1.87-1.58-.71-3.07-1.65-4.68-2.52.24-.19.38-.31.53-.42,2.55-1.81,4.79-3.91,6.28-6.72.12-.22.5-.41.78-.42.93-.06,1.88-.02,2.82-.03,1.44-.02,2.53-.67,3.38-1.82.35-.47.78-.91,1.27-1.22,1.64-1.05,2.5-2.5,2.49-4.46,0-3.07,0-6.14,0-9.2-.01-1.88-.81-3.36-2.47-4.27-.57-.32-.78-.67-.84-1.32-.6-5.64-2.86-10.51-7-14.43C66.59,1.68,60.39-.36,53.34.05c-11.84.69-21.01,9.5-22.13,21.26-.03.28-.27.66-.52.8-1.81,1.01-2.76,2.49-2.75,4.58,0,2.98-.02,5.95.01,8.93,0,.72.07,1.48.32,2.14,1.26,3.37,5.98,4.28,8.56,1.7.17-.17.36-.34.63-.58.28,5.62,3.74,9,7.92,12.06-3.16,1.58-5.93,3.61-9.48,4.02-2.91.34-5.23,1.89-6.57,4.51-.95,1.84-1.65,3.84-2.24,5.84-3.3,11.14-6.52,22.3-9.81,33.44-.47,1.6-.46,3.15.29,4.6.7,1.35,1.59,2.6,2.43,3.94h-.85c-5.67,0-11.35-.01-17.03,0-1.5.01-2.11.62-2.11,2.1-.01,2.49-.01,4.98,0,7.48,0,1.55.6,2.12,2.17,2.13h8.1c16.6-.01,33.21-.03,49.81-.03,15.12,0,30.24.02,45.35.03,1.6,0,2.19-.6,2.2-2.21v-7.1c0-1.87-.52-2.4-2.37-2.4Zm-37.59-50.69c-1.38,2.07-2.71,4.05-4.21,6.29-.11-1.33-.24-2.39-.29-3.45-.04-.95-.47-1.58-1.33-1.99-.7-.33-1.37-.73-2.17-1.16.78-.98,1.49-1.87,2.22-2.8,1.95,1.05,3.84,2.07,5.78,3.11Zm7.61-25.34c0-1.52-.01-3.04.01-4.56,0-1.04.45-1.46,1.51-1.48,1.16-.03,1.74.42,1.75,1.48.03,3.1.03,6.19.02,9.29-.01.87-.52,1.35-1.37,1.36-1.39.02-1.89-.31-1.91-1.36-.03-1.58-.01-3.15-.01-4.73Zm-40.58.07c.01,1.49.02,2.98,0,4.46,0,1.18-.5,1.59-1.82,1.59-1,0-1.47-.53-1.47-1.65.01-2.92.01-5.83.02-8.74,0-1.45.98-2.16,2.36-1.7.66.21.92.71.92,1.4-.01,1.55-.01,3.09-.01,4.64Zm.46-9.35c-.2-.15-.39-.51-.36-.76.61-5.75,3.23-10.41,7.91-13.77,6.27-4.49,13.2-5.21,20.24-2.4,7.15,2.87,11.23,8.43,12.26,16.12.03.25-.14.64-.34.79-.75.55-1.54,1.03-2.35,1.55,0-.13-.06-.35-.05-.57.17-6.32-2.96-10.68-8.38-13.37-6.5-3.22-13.11-3.1-19.41.63-4.69,2.77-7.32,6.9-7.18,12.53,0,.29,0,.58,0,.83-.87-.57-1.63-1.04-2.35-1.58Zm9.93,24.2c-.99-.87-1.86-1.91-2.66-2.97-.96-1.29-1.4-2.78-1.39-4.44.04-5.43.07-10.86-.01-16.3-.04-2.85.98-5.19,2.92-7.21,5.88-6.14,17.47-5.72,22.82.85,1.43,1.75,2.18,3.75,2.17,6.04-.02,5.52,0,11.05,0,16.58v1.04c-1.48,0-2.81.02-4.14-.02-.2-.01-.49-.29-.58-.5-.72-1.93-1.86-2.76-3.9-2.77-2.88,0-5.77-.01-8.65,0-2.41.01-3.91,1.51-3.93,3.92,0,.76,0,1.52,0,2.28.02,2.33,1.5,3.84,3.81,3.85,2.98.02,5.95.01,8.93,0,1.82,0,3.09-.86,3.66-2.57.18-.55.42-.71.95-.68.7.03,1.4.01,2.27.01-.19.31-.29.55-.45.73-2.14,2.58-4.78,4.49-7.91,5.64-2.07.76-4.25.49-6.4.3-3.01-.26-5.34-1.88-7.51-3.78Zm13.16-3.19c-2.28-.04-4.55-.01-6.87-.01v-2.93h9.29c.04.18.08.27.08.36.1,2.64.1,2.61-2.5,2.58Zm-1.02,10.63c-.79,1.04-1.48,1.93-2.2,2.87-.77-.94-1.5-1.86-2.32-2.87h4.52Zm-9.13-.14c.73.94,1.42,1.81,2.19,2.8-.79.43-1.47.86-2.2,1.2-.95.44-1.33,1.17-1.35,2.17-.03,1-.1,1.99-.36,3.05-1.34-2-2.68-4.01-4.08-6.09,1.93-1.04,3.81-2.06,5.8-3.13Zm-27.28,45.5c2.15-6.95,4.14-13.96,6.19-20.94,1.42-4.8,2.81-9.6,4.27-14.39.52-1.72,1.18-3.52,2.91-4.35,1.37-.65,2.93-.91,4.41-1.29.18-.04.53.23.67.45,2.21,3.26,4.4,6.54,6.59,9.82.62.92,1.19,1.95,2.56,1.59,1.4-.37,1.29-1.59,1.37-2.67.15-1.97.3-3.94.37-5.91.02-.74.27-1.18.95-1.44.44-.18.86-.43,1.28-.65.89.87,1,2.49,2.61,2.48,1.57-.01,1.72-1.62,2.65-2.45.56.29,1.17.52,1.67.9.25.19.43.63.46.97.18,2.27.3,4.55.45,6.82.07,1.12.49,1.74,1.31,1.96.88.23,1.56-.11,2.2-1.06,2.3-3.43,4.61-6.85,6.88-10.29.31-.48.61-.57,1.12-.42,3.63,1.01,6.18,2.95,7.17,6.9,1.88,7.53,4.05,14.98,6.1,22.47,1.12,4.1,2.22,8.2,3.37,12.28.24.82.15,1.55-.16,2.29-.75,1.82-2.17,2.94-3.86,3.81-.57.3-1.04.78-1.56,1.17-.13.1-.29.23-.44.24-.69.03-1.38.01-2.29.01,2.18-2.71,1.74-5.75,1.76-8.7.03-4.68.02-9.35,0-14.03-.01-5.46-3.78-9.21-9.21-9.21-11.96,0-23.92-.01-35.88,0-5.23,0-9.03,3.77-9.04,8.99,0,4.34.03,8.68.04,13.02.01,1.06.02,2.13,0,3.19-.06,2.32.01,4.61,1.67,6.73-1.23,0-2.21.01-3.2-.01-.12,0-.25-.12-.36-.21-.58-.49-1.15-1-1.75-1.49-.72-.59-1.56-1.07-2.19-1.75-1.26-1.37-1.69-2.88-1.09-4.83Zm57.49,2.91c-.04,3.15-2.26,5.38-5.41,5.39-6.04.02-12.08.01-18.12.01h-17.85c-3.59-.01-5.73-2.13-5.73-5.71,0-5.71,0-11.41,0-17.12.01-3.39,2.2-5.59,5.58-5.6,11.96,0,23.92,0,35.88,0,3.45,0,5.65,2.21,5.66,5.64,0,4.71-.01,9.41-.01,14.12,0,1.09.02,2.18,0,3.27Zm25.77,13.16c-.01.15-.41.39-.64.4-1.12.04-2.24.02-3.36.02H3.56v-4.58h100.56c0,1.4.02,2.78-.03,4.16Z"/>
  <path class="cls-1" d="m54.46,102.13c6.68,0,13.35.04,20.03-.03,1.37-.01,2.67,1.32,1.82,2.56-.32.46-.97.82-1.53.94-.75.16-1.57.04-2.36.04-12.47,0-24.95,0-37.42,0-.39,0-.8.01-1.18-.07-.85-.18-1.38-.94-1.32-1.82.05-.83.65-1.49,1.48-1.6.33-.04.67-.03,1-.03,6.49,0,12.99,0,19.48,0Z"/>
</svg>