<?xml version="1.0" encoding="UTF-8"?>
<svg id="Capa_1" data-name="Capa 1" xmlns="http://www.w3.org/2000/svg" viewBox="0 0 121.55 120">
  <defs>
    <style>
      .cls-1 {
        fill: #17774f;
      }
    </style>
  </defs>
  <path class="cls-1" d="m64.26,79.77c-1.36.02-2.71-.02-4.06.01-.51.01-.76-.16-.95-.65-.39-1.03-.83-2.05-1.33-3.03-.29-.56-.17-.87.25-1.26,1-.95,1.97-1.94,2.94-2.94,1.12-1.17,1.14-2.25.02-3.39-2.44-2.48-4.9-4.94-7.37-7.39-1.12-1.11-2.28-1.1-3.4-.01-1.02.98-2.03,1.97-3,3.01-.42.45-.76.56-1.34.27-.94-.47-1.91-.87-2.89-1.22-.58-.2-.73-.51-.72-1.08.03-1.45.02-2.89,0-4.34-.02-1.58-.88-2.48-2.45-2.49-3.54-.02-7.08-.02-10.62,0-1.58.01-2.44.9-2.46,2.48-.01,1.44-.02,2.89,0,4.34,0,.52-.16.73-.66.9-1.04.36-2.07.79-3.06,1.28-.51.25-.81.19-1.2-.19-.98-.97-2-1.91-3.02-2.84-1.35-1.25-2.38-1.25-3.69.02-2.4,2.34-4.79,4.7-7.18,7.06-1.3,1.28-1.31,2.45-.02,3.74,1.15,1.16,2.32,2.29,3.44,3.39-.54,1.33-1.08,2.54-1.51,3.78-.19.56-.46.7-1,.69-1.5-.03-3.01-.03-4.52-.01-1.52.02-2.46.89-2.47,2.39-.03,3.6-.03,7.2,0,10.81.01,1.46.93,2.32,2.4,2.35,1.51.02,3.02.02,4.52-.01.52-.01.77.17.95.65.39,1.06.81,2.12,1.28,3.16.2.44.17.71-.18,1.04-1.04,1-2.06,2.03-3.07,3.06-1.07,1.1-1.07,2.34.02,3.42,2.49,2.47,4.99,4.93,7.5,7.38,1.1,1.07,2.31,1.05,3.41-.03,1.04-1.02,2.07-2.03,3.06-3.08.4-.42.7-.42,1.19-.19.94.45,1.91.87,2.9,1.19.63.2.77.52.76,1.13-.05,1.39-.03,2.77-.01,4.16.03,1.79.92,2.66,2.69,2.66,3.39.01,6.77.01,10.16,0,1.89,0,2.95-1.07,2.97-2.98,0-1.26.04-2.52-.01-3.78-.04-.75.14-1.16.94-1.37.95-.25,1.86-.66,2.73-1.1.55-.28.86-.19,1.26.23.97,1.03,1.98,2.02,3,3.01,1.12,1.09,2.3,1.1,3.4.01,2.47-2.45,4.93-4.91,7.38-7.38,1.09-1.11,1.09-2.28,0-3.4-.98-1.02-1.98-2.03-3-3.01-.39-.37-.49-.66-.24-1.18.47-.97.88-1.97,1.23-2.98.2-.58.51-.73,1.08-.72,1.38.03,2.77.03,4.15,0,1.7-.03,2.55-.88,2.56-2.58.02-3.45.02-6.9,0-10.35,0-1.83-.92-2.67-2.77-2.64Zm-1.75,11c-1.35,0-2.66-.01-3.98,0-1.9.01-2.38.51-3.01,2.31-.66,1.87-1.49,3.7-2.39,5.47-.71,1.37-.7,2.2.37,3.29,1.01,1.03,1.99,2.1,2.96,3.12-1.41,1.39-2.91,2.88-4.48,4.43-.94-.91-1.97-1.91-3.01-2.9-1.22-1.16-1.9-1.13-3.37-.4-1.86.92-3.8,1.7-5.76,2.42-1.41.51-2.02,1.15-2.02,2.67,0,1.41,0,2.82,0,4.29h-6.37v-2.96c0-.77.02-1.54-.01-2.3-.06-1.25-.65-1.83-1.8-2.27-2.01-.75-3.99-1.57-5.93-2.49-1.29-.61-2.13-.6-3.15.43-1.05,1.08-2.07,2.18-3.08,3.24-1.62-1.63-3.11-3.12-4.67-4.69.96-.95,1.98-1.97,3-2.98,1.05-1.06,1.08-1.79.48-3.15-.87-1.93-1.65-3.9-2.37-5.88-.47-1.28-1.21-1.94-2.58-1.95-1.47-.01-2.94,0-4.45,0v-6.5c1.57,0,3.07.01,4.57-.01,1.31,0,2.03-.69,2.46-1.93.69-1.96,1.42-3.92,2.28-5.81.72-1.57.72-2.2-.54-3.44-.95-.96-1.94-1.88-2.84-2.75,1.6-1.58,3.09-3.06,4.77-4.72.9.96,1.93,2.08,3,3.18,1.04,1.07,1.78,1.05,3.13.4,1.87-.91,3.8-1.72,5.76-2.43,1.35-.49,1.94-1.05,1.97-2.51.02-1.44,0-2.88,0-4.41h6.51c0,1.44,0,2.82,0,4.19,0,1.7.47,2.18,2.1,2.78,1.96.73,3.87,1.57,5.75,2.46,1.15.54,1.97.52,2.94-.39,1.11-1.05,2.21-2.12,3.31-3.18,1.53,1.54,3,3.02,4.56,4.6-.92.92-1.88,1.9-2.85,2.87-1.31,1.31-1.32,2.19-.48,3.86.89,1.75,1.64,3.58,2.3,5.42.54,1.51,1.13,2.08,2.71,2.08,1.38.01,2.76,0,4.21,0v6.54Z"/>
  <path class="cls-1" d="m34.55,73.5c-7.67-.03-13.92,6.27-13.93,14.03-.01,7.73,6.18,14.06,13.77,14.08,7.86.02,14.12-6.19,14.14-14,.02-7.74-6.28-14.09-13.98-14.11Zm-.08,23.75c-5.24-.01-9.42-4.28-9.4-9.6.02-5.32,4.2-9.53,9.47-9.52,5.31.01,9.54,4.27,9.53,9.59-.02,5.3-4.29,9.55-9.6,9.53Z"/>
  <path class="cls-1" d="m121.46,64.62c-.65-2.72-1.31-5.43-1.99-8.15-.36-1.44-1.24-1.92-2.69-1.54-1.06.28-2.14.51-3.2.79-.4.1-.63.02-.87-.33-.51-.74-1.05-1.46-1.63-2.13-.34-.39-.3-.65-.05-1.04.61-.95,1.18-1.91,1.75-2.88.66-1.14.47-2-.63-2.68-2.4-1.48-4.81-2.94-7.23-4.39-1.1-.66-2.01-.43-2.69.64-.61.97-1.21,1.95-1.77,2.95-.25.44-.5.59-1.01.47-.82-.18-1.67-.32-2.51-.4-.49-.04-.67-.26-.77-.71-.25-1.15-.54-2.29-.84-3.42-.32-1.24-1.17-1.78-2.41-1.49-2.79.67-5.58,1.35-8.36,2.05-1.24.31-1.75,1.18-1.46,2.42.27,1.14.54,2.29.85,3.42.11.41,0,.61-.35.84-.75.48-1.48,1.02-2.16,1.59-.35.3-.6.31-.98.09-.97-.58-1.95-1.12-2.93-1.66-1.31-.72-2.11-.53-2.9.73-1.44,2.31-2.86,4.62-4.29,6.94-.78,1.26-.57,2.18.7,2.95,1.13.69,2.27,1.36,3.36,2.01-.17,1.15-.36,2.2-.46,3.27-.04.47-.23.63-.65.73-1.19.26-2.38.56-3.56.86-1.2.31-1.77,1.17-1.49,2.36.67,2.84,1.37,5.68,2.09,8.51.29,1.15,1.17,1.65,2.34,1.39,1.19-.28,2.38-.56,3.56-.88.41-.11.64-.01.87.33.51.76,1.05,1.52,1.61,2.24.25.31.27.52.06.85-.62.99-1.23,2-1.82,3.01-.63,1.07-.4,2.04.67,2.68,2.44,1.47,4.88,2.93,7.33,4.37,1.07.63,2.02.38,2.68-.69.62-.99,1.24-1.99,1.82-3.01.23-.4.47-.46.9-.38.82.17,1.67.32,2.51.38.53.04.71.27.81.75.23,1.1.51,2.19.8,3.27.37,1.4,1.23,1.92,2.63,1.58,2.67-.64,5.33-1.3,8-1.95,1.49-.37,2.12-1.42,1.76-2.92-.23-1-.45-2-.74-2.98-.17-.59-.11-.94.48-1.26.7-.38,1.34-.88,1.94-1.4.38-.32.64-.31,1.03-.05.96.62,1.95,1.2,2.94,1.79,1.1.64,2.03.42,2.69-.65,1.47-2.41,2.93-4.82,4.38-7.24.65-1.08.42-2-.65-2.67-.97-.61-1.95-1.22-2.94-1.79-.38-.22-.52-.43-.42-.89.18-.85.31-1.72.39-2.58.05-.5.27-.68.72-.77,1.09-.25,2.18-.52,3.27-.8,1.33-.35,1.84-1.19,1.51-2.53Zm-7.07.07c-1.5.38-1.78.87-1.93,2.4-.16,1.6-.46,3.2-.83,4.77-.29,1.22-.13,1.87.93,2.52,1,.61,1.97,1.27,2.93,1.89-.84,1.36-1.74,2.82-2.67,4.34-.92-.53-1.92-1.11-2.93-1.7-1.18-.68-1.72-.52-2.73.33-1.29,1.09-2.67,2.08-4.07,3.02-1.01.68-1.37,1.29-1.08,2.49.27,1.11.54,2.22.83,3.38-1.68.41-3.29.81-5.01,1.23-.2-.8-.38-1.56-.57-2.33-.15-.6-.28-1.22-.46-1.81-.28-.97-.87-1.32-1.85-1.44-1.73-.21-3.45-.47-5.15-.82-1.13-.23-1.79-.06-2.4.95-.62,1.05-1.21,2.11-1.8,3.14-1.59-.97-3.05-1.86-4.58-2.79.57-.93,1.18-1.93,1.78-2.93.63-1.03.52-1.62-.22-2.57-1.05-1.35-2.05-2.75-3-4.17-.62-.92-1.32-1.29-2.4-1.04-1.16.28-2.32.57-3.51.86-.43-1.74-.83-3.4-1.25-5.12,1.23-.3,2.41-.59,3.59-.88,1.03-.26,1.47-.94,1.57-2,.16-1.68.36-3.36.68-5.02.25-1.37.14-1.86-1.09-2.6-.94-.57-1.89-1.11-2.77-1.62.95-1.55,1.84-3.01,2.84-4.64.9.59,1.93,1.28,2.98,1.93,1.02.65,1.6.49,2.54-.29,1.3-1.07,2.66-2.08,4.07-3.02.97-.64,1.33-1.2,1.06-2.35-.25-1.14-.55-2.27-.84-3.48,1.76-.43,3.4-.83,5.12-1.25.28,1.13.54,2.22.81,3.3.33,1.34.79,1.62,2.19,1.78,1.68.2,3.35.49,5,.83,1.01.2,1.65.03,2.24-.87.67-1.05,1.33-2.1,2-3.15,1.49.92,2.93,1.8,4.47,2.75-.55.9-1.11,1.86-1.69,2.8-.78,1.29-.62,1.99.37,3.14,1.03,1.2,1.97,2.5,2.85,3.82.72,1.09,1.29,1.42,2.54,1.12,1.08-.26,2.17-.53,3.31-.81.42,1.74.83,3.39,1.26,5.15-1.06.25-2.1.5-3.13.76Z"/>
  <path class="cls-1" d="m105.91,64.13c-1.48-6.1-7.66-9.88-13.74-8.42-6.03,1.46-9.74,7.63-8.26,13.74,1.49,6.09,7.58,9.88,13.56,8.43,6.19-1.5,9.93-7.59,8.44-13.75Zm-9.21,10.3c-4.14,1-8.25-1.55-9.26-5.74-1.01-4.2,1.47-8.32,5.62-9.33,4.18-1.01,8.34,1.53,9.35,5.72,1.01,4.18-1.53,8.34-5.71,9.35Z"/>
  <path class="cls-1" d="m78.49,21.45c-.57-2.39-1.16-4.78-1.75-7.16-.32-1.27-1.09-1.7-2.37-1.36-.94.24-1.88.44-2.81.69-.35.09-.56.02-.77-.29-.45-.64-.92-1.28-1.44-1.87-.29-.34-.26-.57-.04-.92.54-.83,1.04-1.68,1.54-2.53.58-1,.41-1.76-.56-2.35-2.11-1.3-4.23-2.59-6.35-3.87-.97-.58-1.77-.38-2.37.57-.53.85-1.07,1.71-1.56,2.59-.22.38-.43.52-.88.42-.73-.17-1.47-.29-2.21-.36-.44-.04-.59-.23-.68-.63-.22-1-.48-2-.74-3-.28-1.09-1.03-1.57-2.12-1.31-2.45.58-4.91,1.18-7.35,1.8-1.1.27-1.54,1.04-1.28,2.13.23,1.01.47,2.01.74,3.01.09.36,0,.53-.31.74-.66.42-1.3.89-1.9,1.4-.31.26-.53.27-.86.07-.85-.5-1.71-.98-2.58-1.46-1.15-.63-1.86-.46-2.55.65-1.27,2.02-2.52,4.06-3.77,6.1-.69,1.11-.5,1.92.62,2.6.99.6,1.99,1.19,2.95,1.76-.15,1.01-.32,1.94-.4,2.88-.04.41-.21.56-.58.64-1.05.24-2.09.49-3.13.76-1.05.27-1.55,1.03-1.31,2.08.59,2.49,1.21,4.99,1.84,7.48.26,1.01,1.03,1.46,2.06,1.22,1.04-.24,2.09-.49,3.13-.77.36-.1.56-.01.76.29.46.67.92,1.33,1.43,1.97.21.27.23.46.05.75-.55.87-1.09,1.76-1.61,2.64-.55.95-.34,1.8.59,2.37,2.15,1.29,4.3,2.57,6.45,3.84.94.55,1.78.33,2.36-.61.54-.87,1.09-1.75,1.6-2.64.2-.36.41-.41.79-.34.73.15,1.47.28,2.21.33.46.04.62.24.71.66.21.97.45,1.93.7,2.88.33,1.23,1.09,1.69,2.32,1.39,2.34-.57,4.69-1.14,7.03-1.72,1.31-.32,1.87-1.24,1.56-2.57-.21-.87-.4-1.76-.66-2.62-.15-.51-.09-.82.43-1.11.61-.33,1.17-.77,1.7-1.22.33-.29.56-.28.91-.05.85.55,1.72,1.06,2.59,1.57.96.57,1.78.37,2.36-.57,1.29-2.11,2.58-4.24,3.85-6.36.58-.96.38-1.76-.57-2.36-.85-.53-1.71-1.06-2.59-1.57-.33-.19-.45-.38-.36-.78.16-.75.27-1.51.34-2.27.04-.44.23-.6.63-.68.96-.21,1.92-.45,2.88-.7,1.17-.31,1.61-1.05,1.33-2.23Zm-6.22.07c-1.32.32-1.57.76-1.7,2.1-.14,1.41-.4,2.82-.73,4.2-.26,1.07-.11,1.65.82,2.22.88.54,1.73,1.11,2.58,1.66-.74,1.2-1.53,2.48-2.36,3.82-.8-.47-1.68-.98-2.57-1.49-1.04-.6-1.51-.47-2.4.29-1.14.95-2.35,1.82-3.58,2.65-.89.59-1.2,1.14-.95,2.19.23.98.48,1.95.73,2.97-1.48.37-2.9.71-4.41,1.08-.17-.7-.34-1.37-.5-2.04-.13-.54-.25-1.07-.4-1.6-.25-.85-.77-1.16-1.63-1.26-1.52-.19-3.03-.42-4.53-.72-1-.21-1.58-.06-2.11.83-.55.92-1.07,1.86-1.59,2.76-1.4-.85-2.68-1.63-4.03-2.45.51-.82,1.04-1.7,1.57-2.58.56-.91.45-1.42-.2-2.26-.92-1.19-1.79-2.42-2.63-3.67-.54-.81-1.17-1.13-2.12-.91-1.02.24-2.03.5-3.08.75-.38-1.53-.73-2.99-1.1-4.5,1.08-.27,2.12-.52,3.16-.78.9-.23,1.29-.83,1.38-1.75.14-1.48.32-2.96.59-4.42.23-1.21.13-1.64-.96-2.29-.82-.5-1.66-.97-2.43-1.42.84-1.37,1.62-2.65,2.5-4.08.79.51,1.7,1.12,2.62,1.7.9.56,1.41.42,2.24-.26,1.14-.94,2.34-1.83,3.57-2.65.85-.57,1.17-1.06.94-2.08-.23-1-.48-1.99-.74-3.05,1.55-.38,2.99-.73,4.5-1.11.25,1,.48,1.95.71,2.91.29,1.17.7,1.42,1.93,1.57,1.48.17,2.95.43,4.4.72.89.18,1.45.03,1.97-.76.59-.92,1.17-1.85,1.75-2.77,1.32.81,2.59,1.59,3.94,2.41-.48.8-.98,1.64-1.49,2.47-.68,1.14-.54,1.75.33,2.76.91,1.06,1.73,2.2,2.51,3.36.63.96,1.13,1.25,2.23.99.95-.23,1.91-.47,2.91-.71.37,1.52.73,2.98,1.11,4.52-.94.23-1.85.45-2.75.68Z"/>
  <path class="cls-1" d="m64.8,21.02c-1.29-5.36-6.73-8.69-12.07-7.4-5.32,1.28-8.58,6.7-7.27,12.08,1.3,5.36,6.66,8.69,11.93,7.41,5.44-1.32,8.73-6.67,7.41-12.09Zm-8.1,9.06c-3.63.88-7.25-1.36-8.14-5.05s1.3-7.31,4.95-8.2c3.67-.9,7.33,1.34,8.22,5.03.89,3.67-1.35,7.33-5.03,8.22Z"/>
  <g>
    <path class="cls-1" d="m88.85,33.55c1.35-1.35,3.44-22.03-3.66-30.53"/>
    <polyline class="cls-1" points="82.8 11.35 84.15 1.93 92.22 5.96"/>
  </g>
  <g>
    <path class="cls-1" d="m0,53.62c.44-1.85,16.97-14.47,27.92-12.87"/>
    <polyline class="cls-1" points="22.08 47.15 29.4 41.07 21.74 36.31"/>
  </g>
</svg>